<svg width="187" height="134" viewBox="0 0 187 134" fill="none" xmlns="http://www.w3.org/2000/svg">
<g clip-path="url(#clip0_528_1751)">
<path d="M91 73.75C99.1462 73.75 105.75 67.1462 105.75 59C105.75 50.8538 99.1462 44.25 91 44.25C82.8538 44.25 76.25 50.8538 76.25 59C76.25 67.1462 82.8538 73.75 91 73.75Z" fill="#F8F8F8"/>
<g filter="url(#filter0_d_528_1751)">
<path d="M130.333 19.6673H114.748L108.651 13.0298C107.735 12.0238 106.619 11.22 105.374 10.6698C104.13 10.1195 102.784 9.83482 101.423 9.83398H80.5767C77.8233 9.83398 75.1683 11.014 73.3 13.0298L67.2525 19.6673H51.6667C46.2583 19.6673 41.8333 24.0923 41.8333 29.5007V88.5006C41.8333 93.909 46.2583 98.334 51.6667 98.334H130.333C135.742 98.334 140.167 93.909 140.167 88.5006V29.5007C140.167 24.0923 135.742 19.6673 130.333 19.6673ZM91 83.584C77.43 83.584 66.4167 72.5706 66.4167 59.0006C66.4167 45.4306 77.43 34.4173 91 34.4173C104.57 34.4173 115.583 45.4306 115.583 59.0006C115.583 72.5706 104.57 83.584 91 83.584Z" fill="#F8F8F8"/>
</g>
</g>
<path d="M4.60742 122.038H6.25488C6.8291 122.038 7.36003 122.136 7.84766 122.332C8.33984 122.523 8.76823 122.797 9.13281 123.152C9.50195 123.508 9.78906 123.932 9.99414 124.424C10.1992 124.911 10.3018 125.451 10.3018 126.044C10.3018 126.636 10.1992 127.179 9.99414 127.671C9.78906 128.163 9.50195 128.589 9.13281 128.949C8.76823 129.305 8.33984 129.58 7.84766 129.776C7.36003 129.968 6.8291 130.063 6.25488 130.063H4.60742C4.0332 130.063 3.50228 129.968 3.01465 129.776C2.52702 129.58 2.09863 129.305 1.72949 128.949C1.36491 128.594 1.08008 128.172 0.875 127.685C0.674479 127.192 0.574219 126.65 0.574219 126.058C0.574219 125.465 0.674479 124.925 0.875 124.438C1.08008 123.945 1.36491 123.521 1.72949 123.166C2.09863 122.806 2.52702 122.528 3.01465 122.332C3.50228 122.136 4.0332 122.038 4.60742 122.038ZM4.60742 123.077C4.01042 123.077 3.50456 123.202 3.08984 123.453C2.67513 123.699 2.36068 124.046 2.14648 124.492C1.93229 124.939 1.8252 125.461 1.8252 126.058C1.8252 126.509 1.88444 126.917 2.00293 127.281C2.12598 127.646 2.30599 127.958 2.54297 128.218C2.77995 128.478 3.07161 128.678 3.41797 128.819C3.76432 128.961 4.16081 129.031 4.60742 129.031H6.26855C6.861 129.031 7.3623 128.908 7.77246 128.662C8.18717 128.411 8.50163 128.063 8.71582 127.616C8.93457 127.165 9.04395 126.641 9.04395 126.044C9.04395 125.597 8.98242 125.192 8.85938 124.827C8.73633 124.463 8.55632 124.15 8.31934 123.891C8.08691 123.631 7.79753 123.43 7.45117 123.289C7.10938 123.148 6.71517 123.077 6.26855 123.077H4.60742ZM6.07031 120.637V131.41H4.80566V120.637H6.07031ZM11.4434 127.384V127.227C11.4434 126.693 11.5208 126.199 11.6758 125.743C11.8307 125.283 12.054 124.884 12.3457 124.547C12.6374 124.205 12.9906 123.941 13.4053 123.754C13.82 123.562 14.2848 123.467 14.7998 123.467C15.3193 123.467 15.7865 123.562 16.2012 123.754C16.6204 123.941 16.9759 124.205 17.2676 124.547C17.5638 124.884 17.7894 125.283 17.9443 125.743C18.0993 126.199 18.1768 126.693 18.1768 127.227V127.384C18.1768 127.917 18.0993 128.411 17.9443 128.867C17.7894 129.323 17.5638 129.722 17.2676 130.063C16.9759 130.401 16.6227 130.665 16.208 130.856C15.7979 131.043 15.333 131.137 14.8135 131.137C14.2939 131.137 13.8268 131.043 13.4121 130.856C12.9974 130.665 12.6419 130.401 12.3457 130.063C12.054 129.722 11.8307 129.323 11.6758 128.867C11.5208 128.411 11.4434 127.917 11.4434 127.384ZM12.708 127.227V127.384C12.708 127.753 12.7513 128.102 12.8379 128.43C12.9245 128.753 13.0544 129.04 13.2275 129.291C13.4053 129.542 13.6263 129.74 13.8906 129.886C14.1549 130.027 14.4626 130.098 14.8135 130.098C15.1598 130.098 15.4629 130.027 15.7227 129.886C15.987 129.74 16.2057 129.542 16.3789 129.291C16.5521 129.04 16.682 128.753 16.7686 128.43C16.8597 128.102 16.9053 127.753 16.9053 127.384V127.227C16.9053 126.862 16.8597 126.518 16.7686 126.194C16.682 125.866 16.5498 125.577 16.3721 125.326C16.1989 125.071 15.9801 124.87 15.7158 124.725C15.4561 124.579 15.1507 124.506 14.7998 124.506C14.4535 124.506 14.1481 124.579 13.8838 124.725C13.624 124.87 13.4053 125.071 13.2275 125.326C13.0544 125.577 12.9245 125.866 12.8379 126.194C12.7513 126.518 12.708 126.862 12.708 127.227ZM22.627 123.604V131H21.3555V123.604H22.627ZM25.1084 123.604V124.629H18.9219V123.604H25.1084ZM25.7305 127.384V127.227C25.7305 126.693 25.8079 126.199 25.9629 125.743C26.1178 125.283 26.3411 124.884 26.6328 124.547C26.9245 124.205 27.2777 123.941 27.6924 123.754C28.1071 123.562 28.5719 123.467 29.0869 123.467C29.6064 123.467 30.0736 123.562 30.4883 123.754C30.9076 123.941 31.263 124.205 31.5547 124.547C31.8509 124.884 32.0765 125.283 32.2314 125.743C32.3864 126.199 32.4639 126.693 32.4639 127.227V127.384C32.4639 127.917 32.3864 128.411 32.2314 128.867C32.0765 129.323 31.8509 129.722 31.5547 130.063C31.263 130.401 30.9098 130.665 30.4951 130.856C30.085 131.043 29.6201 131.137 29.1006 131.137C28.5811 131.137 28.1139 131.043 27.6992 130.856C27.2845 130.665 26.929 130.401 26.6328 130.063C26.3411 129.722 26.1178 129.323 25.9629 128.867C25.8079 128.411 25.7305 127.917 25.7305 127.384ZM26.9951 127.227V127.384C26.9951 127.753 27.0384 128.102 27.125 128.43C27.2116 128.753 27.3415 129.04 27.5146 129.291C27.6924 129.542 27.9134 129.74 28.1777 129.886C28.4421 130.027 28.7497 130.098 29.1006 130.098C29.4469 130.098 29.75 130.027 30.0098 129.886C30.2741 129.74 30.4928 129.542 30.666 129.291C30.8392 129.04 30.9691 128.753 31.0557 128.43C31.1468 128.102 31.1924 127.753 31.1924 127.384V127.227C31.1924 126.862 31.1468 126.518 31.0557 126.194C30.9691 125.866 30.8369 125.577 30.6592 125.326C30.486 125.071 30.2673 124.87 30.0029 124.725C29.7432 124.579 29.4378 124.506 29.0869 124.506C28.7406 124.506 28.4352 124.579 28.1709 124.725C27.9111 124.87 27.6924 125.071 27.5146 125.326C27.3415 125.577 27.2116 125.866 27.125 126.194C27.0384 126.518 26.9951 126.862 26.9951 127.227ZM42.3008 123.604V124.649H38.8828V131H37.6182V123.604H42.3008ZM42.9297 127.384V127.227C42.9297 126.693 43.0072 126.199 43.1621 125.743C43.3171 125.283 43.5404 124.884 43.832 124.547C44.1237 124.205 44.4769 123.941 44.8916 123.754C45.3063 123.562 45.7712 123.467 46.2861 123.467C46.8057 123.467 47.2728 123.562 47.6875 123.754C48.1068 123.941 48.4622 124.205 48.7539 124.547C49.0501 124.884 49.2757 125.283 49.4307 125.743C49.5856 126.199 49.6631 126.693 49.6631 127.227V127.384C49.6631 127.917 49.5856 128.411 49.4307 128.867C49.2757 129.323 49.0501 129.722 48.7539 130.063C48.4622 130.401 48.109 130.665 47.6943 130.856C47.2842 131.043 46.8193 131.137 46.2998 131.137C45.7803 131.137 45.3132 131.043 44.8984 130.856C44.4837 130.665 44.1283 130.401 43.832 130.063C43.5404 129.722 43.3171 129.323 43.1621 128.867C43.0072 128.411 42.9297 127.917 42.9297 127.384ZM44.1943 127.227V127.384C44.1943 127.753 44.2376 128.102 44.3242 128.43C44.4108 128.753 44.5407 129.04 44.7139 129.291C44.8916 129.542 45.1126 129.74 45.377 129.886C45.6413 130.027 45.9489 130.098 46.2998 130.098C46.6462 130.098 46.9492 130.027 47.209 129.886C47.4733 129.74 47.6921 129.542 47.8652 129.291C48.0384 129.04 48.1683 128.753 48.2549 128.43C48.346 128.102 48.3916 127.753 48.3916 127.384V127.227C48.3916 126.862 48.346 126.518 48.2549 126.194C48.1683 125.866 48.0361 125.577 47.8584 125.326C47.6852 125.071 47.4665 124.87 47.2021 124.725C46.9424 124.579 46.637 124.506 46.2861 124.506C45.9398 124.506 45.6344 124.579 45.3701 124.725C45.1104 124.87 44.8916 125.071 44.7139 125.326C44.5407 125.577 44.4108 125.866 44.3242 126.194C44.2376 126.518 44.1943 126.862 44.1943 127.227ZM54.1133 123.604V131H52.8418V123.604H54.1133ZM56.5947 123.604V124.629H50.4082V123.604H56.5947ZM57.2168 127.384V127.227C57.2168 126.693 57.2943 126.199 57.4492 125.743C57.6042 125.283 57.8275 124.884 58.1191 124.547C58.4108 124.205 58.764 123.941 59.1787 123.754C59.5934 123.562 60.0583 123.467 60.5732 123.467C61.0928 123.467 61.5599 123.562 61.9746 123.754C62.3939 123.941 62.7493 124.205 63.041 124.547C63.3372 124.884 63.5628 125.283 63.7178 125.743C63.8727 126.199 63.9502 126.693 63.9502 127.227V127.384C63.9502 127.917 63.8727 128.411 63.7178 128.867C63.5628 129.323 63.3372 129.722 63.041 130.063C62.7493 130.401 62.3962 130.665 61.9814 130.856C61.5713 131.043 61.1064 131.137 60.5869 131.137C60.0674 131.137 59.6003 131.043 59.1855 130.856C58.7708 130.665 58.4154 130.401 58.1191 130.063C57.8275 129.722 57.6042 129.323 57.4492 128.867C57.2943 128.411 57.2168 127.917 57.2168 127.384ZM58.4814 127.227V127.384C58.4814 127.753 58.5247 128.102 58.6113 128.43C58.6979 128.753 58.8278 129.04 59.001 129.291C59.1787 129.542 59.3997 129.74 59.6641 129.886C59.9284 130.027 60.236 130.098 60.5869 130.098C60.9333 130.098 61.2363 130.027 61.4961 129.886C61.7604 129.74 61.9792 129.542 62.1523 129.291C62.3255 129.04 62.4554 128.753 62.542 128.43C62.6331 128.102 62.6787 127.753 62.6787 127.384V127.227C62.6787 126.862 62.6331 126.518 62.542 126.194C62.4554 125.866 62.3232 125.577 62.1455 125.326C61.9723 125.071 61.7536 124.87 61.4893 124.725C61.2295 124.579 60.9242 124.506 60.5732 124.506C60.2269 124.506 59.9215 124.579 59.6572 124.725C59.3975 124.87 59.1787 125.071 59.001 125.326C58.8278 125.577 58.6979 125.866 58.6113 126.194C58.5247 126.518 58.4814 126.862 58.4814 127.227ZM69.0088 127.746H66.582L66.5684 126.734H68.5508C68.9427 126.734 69.2686 126.696 69.5283 126.618C69.7926 126.541 69.9909 126.424 70.123 126.27C70.2552 126.115 70.3213 125.923 70.3213 125.695C70.3213 125.518 70.2826 125.363 70.2051 125.23C70.1322 125.094 70.0205 124.982 69.8701 124.896C69.7197 124.804 69.5329 124.738 69.3096 124.697C69.0908 124.652 68.8333 124.629 68.5371 124.629H66.917V131H65.6523V123.604H68.5371C69.0065 123.604 69.4281 123.645 69.8018 123.727C70.18 123.809 70.5013 123.934 70.7656 124.103C71.0345 124.267 71.2396 124.476 71.3809 124.731C71.5221 124.987 71.5928 125.287 71.5928 125.634C71.5928 125.857 71.5472 126.069 71.4561 126.27C71.3649 126.47 71.2305 126.648 71.0527 126.803C70.875 126.958 70.6562 127.085 70.3965 127.186C70.1367 127.281 69.8382 127.343 69.501 127.37L69.0088 127.746ZM69.0088 131H66.124L66.7529 129.975H69.0088C69.3597 129.975 69.6514 129.931 69.8838 129.845C70.1162 129.754 70.2894 129.626 70.4033 129.462C70.5218 129.293 70.5811 129.093 70.5811 128.86C70.5811 128.628 70.5218 128.43 70.4033 128.266C70.2894 128.097 70.1162 127.969 69.8838 127.883C69.6514 127.792 69.3597 127.746 69.0088 127.746H67.0879L67.1016 126.734H69.501L69.959 127.117C70.3646 127.149 70.7087 127.249 70.9912 127.418C71.2738 127.587 71.488 127.801 71.6338 128.061C71.7796 128.316 71.8525 128.594 71.8525 128.895C71.8525 129.241 71.7865 129.546 71.6543 129.811C71.5267 130.075 71.3398 130.296 71.0938 130.474C70.8477 130.647 70.5492 130.779 70.1982 130.87C69.8473 130.957 69.4508 131 69.0088 131ZM74.915 128.997L78.3262 123.604H79.5977V131H78.3262V125.606L74.915 131H73.6572V123.604H74.915V128.997ZM84.6426 123.604V131H83.3711V123.604H84.6426ZM87.124 123.604V124.629H80.9375V123.604H87.124ZM90.7812 130.098C91.082 130.098 91.36 130.036 91.6152 129.913C91.8704 129.79 92.0801 129.621 92.2441 129.407C92.4082 129.188 92.5016 128.94 92.5244 128.662H93.7275C93.7048 129.1 93.5566 129.507 93.2832 129.886C93.0143 130.259 92.6611 130.562 92.2236 130.795C91.7861 131.023 91.3053 131.137 90.7812 131.137C90.2253 131.137 89.7399 131.039 89.3252 130.843C88.915 130.647 88.5732 130.378 88.2998 130.036C88.0309 129.694 87.8281 129.302 87.6914 128.86C87.5592 128.414 87.4932 127.942 87.4932 127.445V127.158C87.4932 126.661 87.5592 126.192 87.6914 125.75C87.8281 125.303 88.0309 124.909 88.2998 124.567C88.5732 124.226 88.915 123.957 89.3252 123.761C89.7399 123.565 90.2253 123.467 90.7812 123.467C91.36 123.467 91.8659 123.585 92.2988 123.822C92.7318 124.055 93.0713 124.374 93.3174 124.779C93.568 125.18 93.7048 125.636 93.7275 126.146H92.5244C92.5016 125.841 92.415 125.565 92.2646 125.319C92.1188 125.073 91.9183 124.877 91.6631 124.731C91.4124 124.581 91.1185 124.506 90.7812 124.506C90.3939 124.506 90.068 124.583 89.8037 124.738C89.5439 124.889 89.3366 125.094 89.1816 125.354C89.0312 125.609 88.9219 125.894 88.8535 126.208C88.7897 126.518 88.7578 126.835 88.7578 127.158V127.445C88.7578 127.769 88.7897 128.088 88.8535 128.402C88.9173 128.717 89.0244 129.002 89.1748 129.257C89.3298 129.512 89.5371 129.717 89.7969 129.872C90.0612 130.022 90.3893 130.098 90.7812 130.098ZM96.6465 127.473H98.0137L95.874 131H94.5068L96.6465 127.473ZM97.7061 123.604H100.796V131H99.5312V124.629H97.7061C97.346 124.629 97.0521 124.69 96.8242 124.813C96.5964 124.932 96.43 125.087 96.3252 125.278C96.2204 125.47 96.168 125.668 96.168 125.873C96.168 126.074 96.2158 126.267 96.3115 126.454C96.4072 126.636 96.5576 126.787 96.7627 126.905C96.9678 127.024 97.2321 127.083 97.5557 127.083H99.873V128.122H97.5557C97.1318 128.122 96.7559 128.065 96.4277 127.951C96.0996 127.837 95.8216 127.68 95.5938 127.479C95.3659 127.274 95.1927 127.035 95.0742 126.762C94.9557 126.484 94.8965 126.183 94.8965 125.859C94.8965 125.536 94.958 125.237 95.0811 124.964C95.2087 124.69 95.391 124.451 95.6279 124.246C95.8695 124.041 96.1634 123.884 96.5098 123.774C96.8607 123.66 97.2594 123.604 97.7061 123.604ZM107.68 123.604V131H106.415V123.604H107.68ZM112.533 123.604L109.026 127.842H107.256L107.064 126.734H108.514L110.995 123.604H112.533ZM111.173 131L108.452 127.65L109.266 126.734L112.779 131H111.173ZM122.281 123.604V124.649H118.542V123.604H122.281ZM118.727 123.604V131H117.462V123.604H118.727ZM123.402 123.604V131H122.131V123.604H123.402ZM127.511 130.234L129.568 123.604H130.922L127.955 132.142C127.887 132.324 127.796 132.52 127.682 132.729C127.572 132.944 127.431 133.146 127.258 133.338C127.085 133.529 126.875 133.684 126.629 133.803C126.387 133.926 126.098 133.987 125.761 133.987C125.66 133.987 125.533 133.974 125.378 133.946C125.223 133.919 125.114 133.896 125.05 133.878L125.043 132.853C125.079 132.857 125.136 132.862 125.214 132.866C125.296 132.875 125.353 132.88 125.385 132.88C125.672 132.88 125.916 132.841 126.116 132.764C126.317 132.691 126.485 132.565 126.622 132.388C126.763 132.215 126.884 131.975 126.984 131.67L127.511 130.234ZM126 123.604L127.921 129.346L128.249 130.679L127.34 131.144L124.619 123.604H126ZM136.808 120.384H137.847C137.847 120.83 137.778 121.186 137.642 121.45C137.505 121.71 137.318 121.91 137.081 122.052C136.849 122.193 136.584 122.3 136.288 122.373C135.996 122.446 135.693 122.517 135.379 122.585C134.987 122.667 134.622 122.797 134.285 122.975C133.952 123.148 133.665 123.394 133.424 123.713C133.187 124.032 133.011 124.447 132.897 124.957C132.788 125.467 132.758 126.099 132.809 126.851V127.479H131.77V126.851C131.77 126.007 131.849 125.271 132.009 124.643C132.173 124.014 132.403 123.483 132.699 123.05C132.995 122.617 133.346 122.273 133.752 122.018C134.162 121.762 134.613 121.587 135.105 121.491C135.461 121.423 135.766 121.35 136.021 121.272C136.277 121.19 136.47 121.081 136.603 120.944C136.739 120.808 136.808 120.621 136.808 120.384ZM135.311 124.027C135.794 124.027 136.224 124.112 136.603 124.28C136.981 124.449 137.302 124.684 137.566 124.984C137.831 125.285 138.031 125.641 138.168 126.051C138.309 126.456 138.38 126.898 138.38 127.377V127.527C138.38 128.042 138.305 128.521 138.154 128.963C138.008 129.4 137.792 129.783 137.505 130.111C137.222 130.435 136.876 130.688 136.466 130.87C136.06 131.052 135.598 131.144 135.078 131.144C134.559 131.144 134.094 131.052 133.684 130.87C133.278 130.688 132.932 130.435 132.645 130.111C132.357 129.783 132.139 129.4 131.988 128.963C131.842 128.521 131.77 128.042 131.77 127.527V127.377C131.77 127.263 131.79 127.151 131.831 127.042C131.872 126.933 131.922 126.821 131.981 126.707C132.045 126.593 132.102 126.472 132.152 126.345C132.321 125.935 132.551 125.554 132.843 125.203C133.139 124.852 133.492 124.57 133.902 124.355C134.317 124.137 134.786 124.027 135.311 124.027ZM135.064 125.06C134.6 125.06 134.217 125.167 133.916 125.381C133.62 125.595 133.399 125.88 133.253 126.235C133.107 126.586 133.034 126.967 133.034 127.377V127.527C133.034 127.874 133.075 128.202 133.157 128.512C133.239 128.822 133.362 129.097 133.526 129.339C133.695 129.576 133.907 129.763 134.162 129.899C134.422 130.036 134.727 130.104 135.078 130.104C135.429 130.104 135.732 130.036 135.987 129.899C136.243 129.763 136.452 129.576 136.616 129.339C136.78 129.097 136.903 128.822 136.985 128.512C137.067 128.202 137.108 127.874 137.108 127.527V127.377C137.108 127.067 137.067 126.773 136.985 126.495C136.903 126.217 136.778 125.971 136.609 125.757C136.445 125.543 136.233 125.374 135.974 125.251C135.718 125.123 135.415 125.06 135.064 125.06ZM141.06 128.997L144.471 123.604H145.742V131H144.471V125.606L141.06 131H139.802V123.604H141.06V128.997ZM149.146 123.604V131H147.882V123.604H149.146ZM154 123.604L150.493 127.842H148.723L148.531 126.734H149.98L152.462 123.604H154ZM152.64 131L149.919 127.65L150.732 126.734L154.246 131H152.64ZM159.708 129.735V125.928C159.708 125.636 159.649 125.383 159.53 125.169C159.416 124.95 159.243 124.782 159.011 124.663C158.778 124.545 158.491 124.485 158.149 124.485C157.83 124.485 157.55 124.54 157.309 124.649C157.072 124.759 156.885 124.902 156.748 125.08C156.616 125.258 156.55 125.449 156.55 125.654H155.285C155.285 125.39 155.354 125.128 155.49 124.868C155.627 124.608 155.823 124.374 156.078 124.164C156.338 123.95 156.648 123.781 157.008 123.658C157.372 123.531 157.778 123.467 158.225 123.467C158.762 123.467 159.236 123.558 159.646 123.74C160.061 123.923 160.385 124.198 160.617 124.567C160.854 124.932 160.973 125.39 160.973 125.941V129.387C160.973 129.633 160.993 129.895 161.034 130.173C161.08 130.451 161.146 130.69 161.232 130.891V131H159.913C159.849 130.854 159.799 130.66 159.763 130.419C159.726 130.173 159.708 129.945 159.708 129.735ZM159.927 126.516L159.94 127.404H158.662C158.302 127.404 157.981 127.434 157.698 127.493C157.416 127.548 157.179 127.632 156.987 127.746C156.796 127.86 156.65 128.004 156.55 128.177C156.45 128.345 156.399 128.544 156.399 128.771C156.399 129.004 156.452 129.216 156.557 129.407C156.661 129.599 156.819 129.751 157.028 129.865C157.243 129.975 157.505 130.029 157.814 130.029C158.202 130.029 158.544 129.947 158.84 129.783C159.136 129.619 159.371 129.419 159.544 129.182C159.722 128.945 159.817 128.715 159.831 128.491L160.371 129.1C160.339 129.291 160.253 129.503 160.111 129.735C159.97 129.968 159.781 130.191 159.544 130.405C159.312 130.615 159.034 130.79 158.71 130.932C158.391 131.068 158.031 131.137 157.63 131.137C157.129 131.137 156.689 131.039 156.311 130.843C155.937 130.647 155.645 130.385 155.436 130.057C155.23 129.724 155.128 129.353 155.128 128.942C155.128 128.546 155.205 128.197 155.36 127.896C155.515 127.591 155.739 127.338 156.03 127.138C156.322 126.933 156.673 126.778 157.083 126.673C157.493 126.568 157.951 126.516 158.457 126.516H159.927ZM163.071 131V123.604H164.336V129.961H167.74V123.604H169.012V131H163.071ZM169.887 129.961L169.764 133.194H168.636V131H167.672V129.961H169.887ZM172.628 128.997L176.039 123.604H177.311V131H176.039V125.606L172.628 131H171.37V123.604H172.628V128.997ZM180.708 128.997L184.119 123.604H185.391V131H184.119V125.606L180.708 131H179.45V123.604H180.708V128.997Z" fill="#95999F"/>
<defs>
<filter id="filter0_d_528_1751" x="24.8333" y="-7.16602" width="132.333" height="122.5" filterUnits="userSpaceOnUse" color-interpolation-filters="sRGB">
<feFlood flood-opacity="0" result="BackgroundImageFix"/>
<feColorMatrix in="SourceAlpha" type="matrix" values="0 0 0 0 0 0 0 0 0 0 0 0 0 0 0 0 0 0 127 0" result="hardAlpha"/>
<feOffset/>
<feGaussianBlur stdDeviation="8.5"/>
<feComposite in2="hardAlpha" operator="out"/>
<feColorMatrix type="matrix" values="0 0 0 0 0.733333 0 0 0 0 0.76 0 0 0 0 0.8 0 0 0 1 0"/>
<feBlend mode="normal" in2="BackgroundImageFix" result="effect1_dropShadow_528_1751"/>
<feBlend mode="normal" in="SourceGraphic" in2="effect1_dropShadow_528_1751" result="shape"/>
</filter>
<clipPath id="clip0_528_1751">
<rect width="118" height="118" fill="white" transform="translate(32)"/>
</clipPath>
</defs>
</svg>
