<svg width="267" height="267" viewBox="0 0 267 267" fill="none" xmlns="http://www.w3.org/2000/svg">
<path d="M255.181 143.585L266.219 132.547L255.181 121.509L244.143 132.547L255.181 143.585Z" fill="#BBC2CC"/>
<path d="M132.427 266.339L143.465 255.301L132.427 244.263L121.389 255.301L132.427 266.339Z" fill="#BBC2CC"/>
<path d="M133.891 22.2951L144.929 11.2571L133.891 0.219189L122.853 11.2571L133.891 22.2951Z" fill="#BBC2CC"/>
<path d="M11.137 145.049L22.1749 134.011L11.137 122.973L0.099022 134.011L11.137 145.049Z" fill="#BBC2CC"/>
<path d="M38.9475 172.407L58.8242 152.53L51.7532 145.459L38.9475 158.265L28.3197 147.637L35.3271 140.629L37.3989 138.558H87.1509L102.672 154.079L99.1364 157.614L94.915 153.393L90.6723 157.635L94.8938 161.857L90.7925 165.958L74.2675 149.433L58.4707 165.23L62.3244 169.083L58.3151 173.093L54.4614 169.239L54.4119 169.288L54.2563 169.133L50.247 173.142L54.2563 177.151L58.2373 173.17L61.4547 176.388L74.2675 163.575L83.7215 173.029L78.6303 178.12L74.4089 173.899L70.1662 178.141L74.3877 182.363L69.3531 187.397L76.4241 194.468L81.4587 189.434L85.6802 193.655L89.9228 189.413L85.7014 185.191L90.7925 180.1L100.204 189.512L87.3914 202.324L90.5663 205.499L86.5853 209.48L90.5946 213.49L94.6038 209.48L94.4907 209.367L94.5402 209.318L90.644 205.422L94.6533 201.412L98.5495 205.308L114.346 189.512L97.8636 173.029L101.965 168.928L106.186 173.149L110.429 168.907L106.207 164.685L109.743 161.15L127.421 178.827L127.421 228.834L118.469 237.786L107.841 227.158L120.647 214.352L113.576 207.281L93.6988 227.158L118.469 251.928L132.42 237.977L146.498 252.055L171.268 227.285L151.392 207.409L144.321 214.48L157.126 227.285L146.498 237.913L139.491 230.906L137.419 228.834L137.419 179.153L154.885 161.687L158.321 165.124L154.1 169.345L158.342 173.588L162.564 169.366L166.665 173.467L150.14 189.993L165.937 205.789L169.791 201.936L173.8 205.945L169.946 209.799L169.996 209.848L169.84 210.004L173.849 214.013L177.859 210.004L173.878 206.023L177.095 202.805L164.282 189.993L173.736 180.538L178.827 185.63L174.606 189.851L178.849 194.094L183.07 189.872L188.105 194.907L195.176 187.836L190.141 182.801L194.362 178.58L190.12 174.337L185.898 178.559L180.807 173.467L190.219 164.056L203.032 176.869L206.207 173.694L210.188 177.675L214.197 173.665L210.188 169.656L210.074 169.769L210.025 169.72L206.129 173.616L202.119 169.607L206.016 165.71L190.219 149.914L173.736 166.396L169.635 162.295L173.856 158.074L169.614 153.831L165.392 158.052L161.956 154.616L179.117 137.454L229.06 137.447L238.012 146.399L227.384 157.027L214.579 144.221L207.508 151.293L227.384 171.169L252.154 146.399L238.203 132.448L252.282 118.37L227.512 93.5997L207.635 113.476L214.706 120.548L227.512 107.742L238.139 118.37L231.132 125.377L229.06 127.449L179.308 127.449L161.291 109.432L164.791 105.932L169.013 110.153L173.255 105.91L169.034 101.689L173.135 97.5878L189.66 114.113L205.457 98.3161L201.603 94.4624L205.613 90.4531L209.466 94.3068L209.516 94.2573L209.671 94.4129L213.681 90.4036L209.671 86.3943L205.69 90.3753L202.473 87.158L189.66 99.9707L180.206 90.5167L185.297 85.4256L189.519 89.647L193.761 85.4043L189.54 81.1829L194.575 76.1483L187.504 69.0772L182.469 74.1118L178.248 69.8904L174.005 74.1331L178.226 78.3545L173.135 83.4457L163.724 74.0341L176.536 61.2213L173.361 58.0464L177.342 54.0654L173.333 50.0561L169.324 54.0654L169.437 54.1785L169.387 54.228L173.284 58.1242L169.274 62.1335L165.378 58.2373L149.581 74.0341L166.064 90.5167L161.963 94.6179L157.741 90.3965L153.499 94.6392L157.72 98.8606L154.22 102.361L139.046 87.1863L139.046 37.1797L147.997 28.2277L158.625 38.8555L145.82 51.6612L152.891 58.7323L172.767 38.8555L147.997 14.0855L134.046 28.0368L119.968 13.9583L95.1978 38.7282L115.075 58.605L122.146 51.5339L109.34 38.7282L119.968 28.1004L126.975 35.1078L129.047 37.1797L129.047 84.2588L110.245 103.061L106.646 99.4616L110.867 95.2402L106.625 90.9976L102.403 95.219L98.302 91.1178L114.82 74.5997L99.0233 58.803L95.1695 62.6567L91.1602 58.6474L95.014 54.7937L94.9645 54.7442L95.12 54.5886L91.1107 50.5793L87.1014 54.5886L91.0825 58.5696L87.8651 61.787L100.678 74.5997L91.2239 84.0538L86.1327 78.9626L90.3541 74.7412L86.1115 70.4985L81.8901 74.72L76.8555 69.6854L69.7844 76.7564L74.819 81.791L70.5976 86.0125L74.8402 90.2551L79.0616 86.0337L84.1528 91.1248L74.7412 100.536L61.9284 87.7237L58.7535 90.8986L54.7725 86.9175L50.7632 90.9268L54.7725 94.9361L54.8857 94.823L54.9352 94.8725L58.8313 90.9763L62.8406 94.9856L58.9444 98.8818L74.7412 114.679L91.2309 98.1888L95.3322 102.29L91.1107 106.511L95.3534 110.754L99.5748 106.533L103.174 110.132L84.7468 128.559H37.3989L28.4469 119.607L39.0747 108.979L51.8805 121.785L58.9515 114.714L39.0747 94.8371L14.3048 119.607L28.256 133.558L14.1775 147.637L38.9475 172.407ZM95.0917 132.356L132.583 94.8654L170.073 132.356L132.583 169.847L95.0917 132.356Z" fill="#BBC2CC"/>
<path d="M132.498 121.241L129.061 124.677L118.759 114.374L114.594 118.539L124.896 128.842L121.467 132.271L124.903 135.708L114.594 146.018L118.759 150.182L129.068 139.873L132.505 143.309L135.934 139.88L146.244 150.189L150.409 146.025L140.099 135.715L143.536 132.278L140.099 128.842L150.409 118.532L146.244 114.367L135.934 124.677L132.498 121.241Z" fill="#BBC2CC"/>
</svg>
