<svg width="1032" height="370" viewBox="0 0 1032 370" fill="none" xmlns="http://www.w3.org/2000/svg">
<path d="M865.434 0.383215C864.725 0.391542 864.125 0.682223 863.67 1.14852C863.214 1.61481 862.956 2.23836 862.946 2.92989L863.087 15.0901L850.927 15.2329C850.218 15.2412 849.619 15.5319 849.163 15.9982C848.708 16.4645 848.449 17.088 848.439 17.7796C848.455 19.1622 849.585 20.2659 850.968 20.2496L863.128 20.1068L863.269 32.267C863.285 33.6496 864.415 34.7533 865.798 34.737C867.18 34.7208 868.284 33.5909 868.268 32.2083L868.127 20.0481L880.287 19.9053C881.67 19.8891 882.773 18.7592 882.757 17.3766C882.741 15.9939 881.611 14.8903 880.229 14.9065L868.069 15.0493L867.927 2.88914C867.946 1.47063 866.816 0.366979 865.434 0.383215Z" fill="black"/>
<path d="M822.264 44.5736C821.555 44.5819 820.956 44.8726 820.5 45.3389C820.045 45.8052 819.786 46.4287 819.777 47.1203L819.918 59.2804L807.758 59.4232C807.049 59.4316 806.449 59.7223 805.994 60.1885C805.538 60.6548 805.28 61.2784 805.27 61.9699C805.286 63.3526 806.416 64.4562 807.798 64.44L819.959 64.2972L820.1 76.4573C820.116 77.84 821.246 78.9436 822.629 78.9274C824.011 78.9112 825.115 77.7813 825.099 76.3987L824.957 64.2385L837.118 64.0957C838.5 64.0794 839.604 62.9496 839.588 61.5669C839.572 60.1843 838.442 59.0806 837.059 59.0969L824.899 59.2397L824.758 47.0795C824.777 45.661 823.647 44.5573 822.264 44.5736Z" fill="black"/>
<path d="M779.113 88.746C778.404 88.7543 777.804 89.045 777.349 89.5113C776.893 89.9776 776.634 90.6011 776.625 91.2927L776.766 103.453L764.606 103.596C763.897 103.604 763.298 103.895 762.842 104.361C762.387 104.827 762.128 105.451 762.118 106.142C762.134 107.525 763.264 108.629 764.647 108.612L776.807 108.47L776.948 120.63C776.964 122.012 778.094 123.116 779.477 123.1C780.859 123.084 781.963 121.954 781.947 120.571L781.806 108.411L793.966 108.268C795.348 108.252 796.452 107.122 796.436 105.739C796.42 104.357 795.29 103.253 793.908 103.269L781.747 103.412L781.606 91.2519C781.625 89.8334 780.495 88.7297 779.113 88.746Z" fill="black"/>
<path d="M735.943 132.936C735.234 132.945 734.635 133.235 734.179 133.702C733.724 134.168 733.465 134.791 733.455 135.483L733.597 147.643L721.437 147.786C720.728 147.794 720.128 148.085 719.673 148.551C719.217 149.018 718.959 149.641 718.949 150.333C718.965 151.715 720.095 152.819 721.477 152.803L733.638 152.66L733.779 164.82C733.795 166.203 734.925 167.306 736.307 167.29C737.69 167.274 738.794 166.144 738.778 164.761L738.636 152.601L750.796 152.458C752.179 152.442 753.283 151.312 753.267 149.93C753.251 148.547 752.121 147.443 750.738 147.46L738.578 147.602L738.437 135.442C738.456 134.024 737.326 132.92 735.943 132.936Z" fill="black"/>
<path d="M953.99 0.531166C953.281 0.539493 952.681 0.830174 952.226 1.29647C951.77 1.76276 951.512 2.38632 951.502 3.07785L951.643 15.238L939.483 15.3808C938.774 15.3892 938.175 15.6798 937.719 16.1461C937.264 16.6124 937.005 17.236 936.995 17.9275C937.012 19.3102 938.141 20.4138 939.524 20.3976L951.684 20.2548L951.826 32.415C951.842 33.7976 952.971 34.9012 954.354 34.885C955.737 34.8688 956.84 33.7389 956.824 32.3563L956.683 20.1961L968.843 20.0533C970.226 20.037 971.329 18.9072 971.313 17.5245C971.297 16.1419 970.168 15.0382 968.785 15.0545L956.625 15.1973L956.483 3.03709C956.52 1.63609 955.373 0.51493 953.99 0.531166Z" fill="black"/>
<path d="M998.14 43.6606C997.43 43.669 996.831 43.9597 996.376 44.426C995.92 44.8922 995.661 45.5158 995.652 46.2073L995.793 58.3675L983.633 58.5103C982.924 58.5186 982.325 58.8093 981.869 59.2756C981.413 59.7419 981.155 60.3654 981.145 61.057C981.161 62.4396 982.291 63.5433 983.674 63.527L995.834 63.3842L995.975 75.5444C995.991 76.9271 997.121 78.0307 998.504 78.0145C999.886 77.9982 1000.99 76.8684 1000.97 75.4857L1000.83 63.3255L1012.99 63.1827C1014.38 63.1665 1015.48 62.0366 1015.46 60.654C1015.45 59.2714 1014.32 58.1677 1012.93 58.1839L1000.77 58.3267L1000.63 46.1665C1000.65 44.748 999.522 43.6444 998.14 43.6606Z" fill="black"/>
<path d="M1042.27 86.7726C1041.56 86.7809 1040.96 87.0716 1040.51 87.5379C1040.05 88.0042 1039.79 88.6277 1039.78 89.3193L1039.92 101.479L1027.76 101.622C1027.06 101.631 1026.46 101.921 1026 102.388C1025.55 102.854 1025.29 103.477 1025.28 104.169C1025.29 105.552 1026.42 106.655 1027.81 106.639L1039.97 106.496L1040.11 118.656C1040.12 120.039 1041.25 121.143 1042.64 121.126C1044.02 121.11 1045.12 119.98 1045.11 118.598L1044.96 106.437L1057.12 106.295C1058.51 106.278 1059.61 105.149 1059.59 103.766C1059.58 102.383 1058.45 101.28 1057.07 101.296L1044.91 101.439L1044.76 89.2785C1044.78 87.86 1043.65 86.7564 1042.27 86.7726Z" fill="black"/>
<path d="M692.774 177.127C692.065 177.135 691.466 177.426 691.01 177.892C690.554 178.358 690.296 178.982 690.286 179.673L690.428 191.833L678.267 191.976C677.558 191.985 676.959 192.275 676.503 192.742C676.048 193.208 675.789 193.831 675.78 194.523C675.796 195.906 676.925 197.009 678.308 196.993L690.468 196.85L690.61 209.01C690.626 210.393 691.755 211.497 693.138 211.48C694.521 211.464 695.624 210.334 695.608 208.952L695.467 196.792L707.627 196.649C709.01 196.632 710.114 195.503 710.097 194.12C710.081 192.737 708.952 191.634 707.569 191.65L695.409 191.793L695.267 179.633C695.304 178.196 694.174 177.092 692.774 177.127Z" fill="black"/>
<path d="M649.622 221.299C648.913 221.307 648.314 221.598 647.858 222.064C647.403 222.531 647.144 223.154 647.134 223.846L647.276 236.006L635.116 236.149C634.406 236.157 633.807 236.448 633.352 236.914C632.896 237.38 632.637 238.004 632.628 238.695C632.644 240.078 633.774 241.182 635.156 241.165L647.316 241.023L647.458 253.183C647.474 254.565 648.604 255.669 649.986 255.653C651.369 255.637 652.473 254.507 652.457 253.124L652.315 240.964L664.475 240.821C665.858 240.805 666.962 239.675 666.946 238.292C666.93 236.91 665.8 235.806 664.417 235.822L652.257 235.965L652.116 223.805C652.134 222.386 651.005 221.283 649.622 221.299Z" fill="black"/>
<path d="M606.453 265.489C605.744 265.498 605.144 265.788 604.689 266.255C604.233 266.721 603.975 267.344 603.965 268.036L604.106 280.196L591.946 280.339C591.237 280.347 590.638 280.638 590.182 281.104C589.727 281.571 589.468 282.194 589.458 282.886C589.474 284.268 590.604 285.372 591.987 285.356L604.147 285.213L604.288 297.373C604.305 298.756 605.434 299.859 606.817 299.843C608.2 299.827 609.303 298.697 609.287 297.314L609.146 285.154L621.306 285.011C622.689 284.995 623.792 283.865 623.776 282.483C623.76 281.1 622.63 279.996 621.248 280.013L609.088 280.155L608.946 267.995C608.965 266.577 607.835 265.473 606.453 265.489Z" fill="black"/>
<path d="M563.301 309.662C562.592 309.67 561.993 309.961 561.537 310.427C561.082 310.893 560.823 311.517 560.813 312.208L560.955 324.369L548.794 324.511C548.085 324.52 547.486 324.81 547.03 325.277C546.575 325.743 546.316 326.367 546.307 327.058C546.323 328.441 547.452 329.544 548.835 329.528L560.995 329.385L561.137 341.545C561.153 342.928 562.282 344.032 563.665 344.016C565.048 343.999 566.152 342.869 566.135 341.487L565.994 329.327L578.154 329.184C579.537 329.168 580.641 328.038 580.625 326.655C580.608 325.272 579.479 324.169 578.096 324.185L565.936 324.328L565.794 312.168C565.813 310.749 564.684 309.645 563.301 309.662Z" fill="black"/>
<path d="M520.132 353.852C519.423 353.86 518.823 354.151 518.368 354.617C517.912 355.084 517.653 355.707 517.644 356.399L517.785 368.559L505.625 368.702C504.916 368.71 504.317 369.001 503.861 369.467C503.406 369.933 503.147 370.557 503.137 371.248C503.153 372.631 504.283 373.735 505.666 373.719L517.826 373.576L517.967 385.736C517.983 387.119 519.113 388.222 520.496 388.206C521.878 388.19 522.982 387.06 522.966 385.677L522.825 373.517L534.985 373.374C536.367 373.358 537.471 372.228 537.455 370.845C537.439 369.463 536.309 368.359 534.927 368.375L522.767 368.518L522.625 356.358C522.644 354.939 521.514 353.836 520.132 353.852Z" fill="black"/>
<path d="M501.902 461.626L505.318 458.129L516.513 446.669L519.93 443.171L531.125 431.711L534.541 428.214L545.737 416.754L549.153 413.257L560.348 401.797L563.765 398.299L574.96 386.839L578.376 383.342L589.572 371.882L592.988 368.385L604.183 356.925L607.6 353.428L618.795 341.968L622.211 338.47L633.407 327.01L636.823 323.513L647.983 312.089L651.435 308.556L662.595 297.132L666.012 293.634L677.207 282.174L680.623 278.677L691.819 267.217L695.235 263.72L706.43 252.26L709.847 248.763L721.042 237.303L724.458 233.805L735.654 222.345L739.07 218.848L750.265 207.388L753.682 203.891L764.877 192.431L768.293 188.933L779.489 177.473L782.905 173.976L794.1 162.516L797.517 159.019L808.712 147.559L812.128 144.062L823.324 132.602L826.74 129.104L837.935 117.644L841.352 114.147L852.547 102.687L855.964 99.1899L867.159 87.7298L870.575 84.2326L881.771 72.7725L885.187 69.2753L896.382 57.8152L899.799 54.318L911.187 42.6607L922.538 53.7496L926.035 57.1656L937.493 68.3597L940.99 71.7757L952.449 82.9697L955.946 86.3858L967.405 97.5798L970.902 100.996L982.36 112.19L985.857 115.606L997.316 126.8L1000.81 130.216L1012.27 141.41L1015.77 144.826L1027.23 156.02L1030.72 159.436L1042.18 170.63L1045.68 174.046L1057.14 185.24L1060.64 188.656L1072.09 199.85L1075.59 203.266L1087.05 214.46L1090.55 217.876L1102.01 229.07L1105.5 232.486L1116.96 243.681L1120.46 247.097L1131.92 258.291L1135.41 261.707L1146.73 272.761L1150.23 276.177L1165.16 290.769L1182.89 272.619L1167.96 258.027L1164.46 254.611L1153 243.417L1149.5 240.001L1138.04 228.807L1134.55 225.391L1123.09 214.197L1119.59 210.781L1108.13 199.587L1104.64 196.171L1093.18 184.977L1089.68 181.561L1078.22 170.367L1074.73 166.95L1063.27 155.756L1059.77 152.34L1048.31 141.146L1044.81 137.73L1033.36 126.536L1029.86 123.12L1018.4 111.926L1014.9 108.51L1003.44 97.3162L999.947 93.9001L988.488 82.7061L984.992 79.2901L973.533 68.096L970.036 64.68L958.577 53.4859L955.08 50.0699L943.621 38.8759L940.125 35.4599L928.666 24.2658L925.169 20.8498L910.231 6.25723L892.221 24.6938L892.328 24.7989L880.94 36.4562L877.524 39.9534L866.329 51.4135L862.912 54.9107L851.717 66.3708L848.301 69.868L837.105 81.3281L833.689 84.8253L822.494 96.2854L819.077 99.7826L807.882 111.243L804.465 114.74L793.27 126.2L789.854 129.697L778.659 141.157L775.242 144.654L764.047 156.114L760.63 159.612L749.435 171.072L746.019 174.569L734.823 186.029L731.407 189.526L720.212 200.986L716.795 204.483L705.6 215.944L702.184 219.441L690.988 230.901L687.572 234.398L676.377 245.858L672.96 249.355L661.765 260.815L658.349 264.313L647.153 275.773L643.737 279.27L632.577 290.694L629.125 294.227L617.965 305.651L614.548 309.149L603.353 320.609L599.937 324.106L588.742 335.566L585.325 339.063L574.13 350.523L570.713 354.02L559.518 365.48L556.102 368.978L544.906 380.438L541.49 383.935L530.295 395.395L526.878 398.892L515.683 410.352L512.267 413.849L501.071 425.31L497.655 428.807L486.46 440.267L483.043 443.764L468.449 458.703L486.884 476.712L501.758 461.486L501.902 461.626ZM1175.8 272.703L1164.8 283.966L1153.54 272.964L1164.54 261.701L1175.8 272.703ZM1149.59 247.091L1160.85 258.093L1149.84 269.355L1138.58 258.354L1149.59 247.091ZM1134.65 232.499L1145.91 243.5L1134.91 254.763L1123.65 243.762L1134.65 232.499ZM1119.69 217.889L1130.95 228.89L1119.95 240.153L1108.69 229.152L1119.69 217.889ZM1104.75 203.296L1116.02 214.298L1105.01 225.56L1093.75 214.559L1104.75 203.296ZM1089.8 188.686L1101.06 199.687L1090.06 210.95L1078.8 199.949L1089.8 188.686ZM1074.86 174.094L1086.12 185.095L1075.12 196.358L1063.86 185.356L1074.86 174.094ZM1059.92 159.501L1071.19 170.502L1060.18 181.765L1048.92 170.764L1059.92 159.501ZM1044.97 144.891L1056.23 155.892L1045.23 167.155L1033.97 156.154L1044.97 144.891ZM1030.03 130.298L1041.29 141.3L1030.29 152.562L1019.03 141.561L1030.03 130.298ZM1015.07 115.688L1026.34 126.69L1015.33 137.952L1004.07 126.951L1015.07 115.688ZM1000.14 101.096L1011.4 112.097L1000.4 123.36L989.135 112.359L1000.14 101.096ZM985.182 86.4857L996.443 97.487L985.441 108.75L974.179 97.7485L985.182 86.4857ZM970.244 71.8931L981.505 82.8945L970.503 94.1573L959.241 83.1559L970.244 71.8931ZM955.306 57.3005L966.568 68.3019L955.565 79.5647L944.304 68.5633L955.306 57.3005ZM940.351 42.6905L951.612 53.6918L940.61 64.9546L929.348 53.9533L940.351 42.6905ZM925.672 50.3621L914.41 39.3607L925.413 28.0979L936.674 39.0993L925.672 50.3621ZM899.455 24.7507L910.457 13.4879L921.719 24.4892L910.716 35.752L899.455 24.7507ZM884.758 40.0103L895.76 28.7475L907.022 39.7489L896.019 51.0117L884.758 40.0103ZM870.164 54.9497L881.166 43.6869L892.428 54.6882L881.425 65.951L870.164 54.9497ZM855.552 69.9069L866.555 58.6442L877.816 69.6455L866.814 80.9083L855.552 69.9069ZM840.958 84.8463L851.96 73.5835L863.222 84.5848L852.219 95.8476L840.958 84.8463ZM826.346 99.8036L837.349 88.5408L848.61 99.5421L837.608 110.805L826.346 99.8036ZM811.752 114.743L822.755 103.48L834.016 114.481L823.014 125.744L811.752 114.743ZM797.14 129.7L808.143 118.437L819.404 129.439L808.402 140.702L797.14 129.7ZM782.546 144.64L793.549 133.377L804.81 144.378L793.808 155.641L782.546 144.64ZM767.952 159.579L778.955 148.316L790.216 159.317L779.213 170.58L767.952 159.579ZM753.34 174.536L764.343 163.273L775.604 174.275L764.602 185.537L753.34 174.536ZM738.746 189.475L749.749 178.213L761.01 189.214L750.008 200.477L738.746 189.475ZM724.134 204.433L735.137 193.17L746.398 204.171L735.396 215.434L724.134 204.433ZM709.54 219.372L720.543 208.109L731.804 219.111L720.802 230.373L709.54 219.372ZM694.946 234.311L705.949 223.049L717.21 234.05L706.208 245.313L694.946 234.311ZM680.334 249.269L691.337 238.006L702.598 249.007L691.596 260.27L680.334 249.269ZM665.74 264.208L676.743 252.945L688.004 263.947L677.002 275.209L665.74 264.208ZM651.128 279.165L662.131 267.903L673.393 278.904L662.39 290.167L651.128 279.165ZM636.534 294.105L647.537 282.842L658.798 293.843L647.796 305.106L636.534 294.105ZM621.958 309.026L632.96 297.763L644.222 308.765L633.219 320.027L621.958 309.026ZM607.363 323.965L618.366 312.703L629.628 323.704L618.625 334.967L607.363 323.965ZM592.769 338.905L603.772 327.642L615.033 338.643L604.031 349.906L592.769 338.905ZM578.158 353.862L589.16 342.599L600.422 353.601L589.419 364.863L578.158 353.862ZM563.563 368.801L574.566 357.539L585.828 368.54L574.825 379.803L563.563 368.801ZM548.952 383.759L559.954 372.496L571.216 383.497L560.213 394.76L548.952 383.759ZM534.358 398.698L545.36 387.435L556.622 398.437L545.619 409.699L534.358 398.698ZM519.746 413.655L530.748 402.393L542.01 413.394L531.007 424.657L519.746 413.655ZM505.152 428.595L516.154 417.332L527.416 428.333L516.413 439.596L505.152 428.595ZM490.557 443.534L501.56 432.271L512.822 443.273L501.819 454.535L490.557 443.534ZM475.946 458.491L486.948 447.228L498.21 458.23L487.207 469.493L475.946 458.491Z" fill="black"/>
<path d="M504.907 355.768L516.103 344.308L519.519 340.811L530.714 329.351L534.131 325.854L545.326 314.394L548.742 310.896L559.938 299.436L563.354 295.939L574.549 284.479L577.966 280.982L589.161 269.522L592.578 266.025L603.773 254.565L607.189 251.067L618.385 239.607L621.801 236.11L632.996 224.65L636.413 221.153L647.485 209.818L650.937 206.285L662.097 194.861L665.513 191.364L676.709 179.904L680.125 176.406L691.285 164.982L694.702 161.485L705.897 150.025L709.313 146.528L720.509 135.068L723.925 131.57L735.085 120.146L738.502 116.649L749.697 105.189L753.114 101.692L764.309 90.2317L767.725 86.7345L778.885 75.3103L782.302 71.8131L793.497 60.3531L796.914 56.8558L808.109 45.3958L811.525 41.8986L822.721 30.4385L826.137 26.9413L837.332 15.4812L840.749 11.984L851.944 0.523949L855.36 -2.97327L866.556 -14.4333L869.972 -17.9305L881.167 -29.3906L884.584 -32.8878L895.779 -44.3479L899.195 -47.8451L910.478 -59.3948L921.937 -48.2008L925.434 -44.7848L936.893 -33.5907L940.39 -30.1747L951.848 -18.9807L955.345 -15.5646L966.804 -4.3706L970.301 -0.954547L981.76 10.2395L985.256 13.6555L996.715 24.8496L1000.21 28.2656L1011.67 39.4596L1015.17 42.8756L1026.63 54.0697L1030.12 57.4857L1041.58 68.6798L1045.08 72.0958L1056.54 83.2898L1060.03 86.7059L1071.49 97.8999L1074.99 101.316L1086.45 112.51L1089.95 115.926L1101.4 127.12L1104.9 130.536L1116.36 141.73L1119.86 145.146L1131.32 156.34L1134.81 159.756L1146.27 170.95L1149.77 174.366L1164.71 188.959L1182.65 170.594L1167.71 156.001L1164.21 152.585L1152.75 141.391L1149.26 137.975L1137.8 126.781L1134.3 123.365L1122.84 112.171L1119.34 108.755L1107.89 97.5612L1104.39 94.1452L1092.93 82.9511L1089.43 79.5351L1077.97 68.3411L1074.48 64.925L1063.02 53.731L1059.52 50.315L1048.06 39.1209L1044.57 35.7049L1033.11 24.5108L1029.61 21.0948L1018.15 9.90077L1014.66 6.48475L1003.2 -4.7093L999.7 -8.12532L988.241 -19.3194L984.744 -22.7354L973.286 -33.9295L969.789 -37.3455L958.33 -48.5395L954.833 -51.9555L943.374 -63.1496L939.878 -66.5656L928.419 -77.7596L924.922 -81.1757L909.984 -95.7682L895.285 -80.7212L891.974 -77.3316L880.691 -65.7819L877.274 -62.2847L866.079 -50.8246L862.663 -47.3274L851.467 -35.8674L848.051 -32.3702L836.856 -20.9101L833.439 -17.4129L822.244 -5.9528L818.828 -2.45559L807.632 9.00447L804.216 12.5017L793.021 23.9618L789.604 27.459L778.409 38.919L774.993 42.4162L763.797 53.8763L760.451 57.3018L749.256 68.7618L745.839 72.259L734.644 83.7191L731.228 87.2163L720.032 98.6764L716.651 102.138L705.456 113.598L702.039 117.095L690.844 128.555L687.428 132.052L676.232 143.512L672.851 146.974L661.656 158.434L658.239 161.931L647.044 173.391L643.628 176.888L632.467 188.312L629.051 191.81L617.891 203.234L614.474 206.731L603.279 218.191L599.862 221.688L588.667 233.148L585.251 236.646L574.056 248.106L570.639 251.603L559.444 263.063L556.027 266.56L544.832 278.02L541.416 281.517L530.22 292.978L526.804 296.475L515.609 307.935L512.192 311.432L500.997 322.892L497.581 326.389L486.385 337.849L482.969 341.347L468.375 356.286L486.809 374.294L501.403 359.355L504.907 355.768ZM1175.39 170.52L1164.39 181.782L1153.13 170.781L1164.13 159.518L1175.39 170.52ZM1149.18 144.908L1160.44 155.91L1149.44 167.172L1138.17 156.171L1149.18 144.908ZM1134.24 130.316L1145.5 141.317L1134.5 152.58L1123.24 141.578L1134.24 130.316ZM1119.28 115.706L1130.55 126.707L1119.54 137.97L1108.28 126.968L1119.28 115.706ZM1104.35 101.113L1115.61 112.114L1104.61 123.377L1093.34 112.376L1104.35 101.113ZM1089.39 86.503L1100.65 97.5043L1089.65 108.767L1078.39 97.7658L1089.39 86.503ZM1074.45 71.9104L1085.71 82.9118L1074.71 94.1746L1063.45 83.1732L1074.45 71.9104ZM1059.5 57.3003L1070.76 68.3017L1059.76 79.5645L1048.49 68.5631L1059.5 57.3003ZM1044.56 42.7078L1055.82 53.7091L1044.82 64.9719L1033.56 53.9706L1044.56 42.7078ZM1029.62 28.1152L1040.88 39.1166L1029.88 50.3794L1018.62 39.378L1029.62 28.1152ZM1014.67 13.5052L1025.93 24.5065L1014.93 35.7693L1003.66 24.7679L1014.67 13.5052ZM999.729 -1.08738L1010.99 9.91396L999.988 21.1768L988.726 10.1754L999.729 -1.08738ZM984.773 -15.6975L996.035 -4.69612L985.032 6.56667L973.771 -4.43467L984.773 -15.6975ZM969.835 -30.29L981.097 -19.2887L970.094 -8.02589L958.833 -19.0272L969.835 -30.29ZM954.898 -44.8826L966.159 -33.8812L955.157 -22.6184L943.895 -33.6198L954.898 -44.8826ZM939.942 -59.4927L951.204 -48.4913L940.201 -37.2285L928.94 -48.2299L939.942 -59.4927ZM925.263 -51.821L914.002 -62.8224L925.004 -74.0852L936.266 -63.0838L925.263 -51.821ZM899.046 -77.4325L910.049 -88.6953L921.31 -77.6939L910.308 -66.4311L899.046 -77.4325ZM884.347 -62.3855L895.35 -73.6483L906.611 -62.647L895.609 -51.3842L884.347 -62.3855ZM869.735 -47.4282L880.738 -58.691L891.999 -47.6897L880.997 -36.4269L869.735 -47.4282ZM855.141 -32.4889L866.144 -43.7517L877.405 -32.7503L866.403 -21.4875L855.141 -32.4889ZM840.547 -17.5496L851.55 -28.8123L862.811 -17.811L851.808 -6.54821L840.547 -17.5496ZM825.935 -2.59227L836.938 -13.8551L848.199 -2.85372L837.197 8.40908L825.935 -2.59227ZM811.341 12.3471L822.344 1.08427L833.605 12.0856L822.603 23.3484L811.341 12.3471ZM796.729 27.3043L807.732 16.0415L818.993 27.0429L807.991 38.3057L796.729 27.3043ZM782.135 42.2437L793.138 30.9809L804.399 41.9822L793.397 53.245L782.135 42.2437ZM767.523 57.201L778.526 45.9382L789.788 56.9395L778.785 68.2023L767.523 57.201ZM752.929 72.1403L763.932 60.8775L775.193 71.8789L764.191 83.1417L752.929 72.1403ZM738.335 87.0797L749.338 75.8168L760.599 86.8182L749.597 98.081L738.335 87.0797ZM723.723 102.037L734.726 90.7741L745.988 101.775L734.985 113.038L723.723 102.037ZM709.129 116.976L720.132 105.713L731.393 116.715L720.391 127.978L709.129 116.976ZM694.518 131.934L705.52 120.671L716.782 131.672L705.779 142.935L694.518 131.934ZM679.923 146.873L690.926 135.61L702.188 146.611L691.185 157.874L679.923 146.873ZM665.329 161.812L676.332 150.549L687.593 161.551L676.591 172.814L665.329 161.812ZM650.718 176.77L661.72 165.507L672.982 176.508L661.979 187.771L650.718 176.77ZM636.123 191.709L647.126 180.446L658.387 191.447L647.385 202.71L636.123 191.709ZM621.547 206.63L632.549 195.367L643.811 206.369L632.808 217.632L621.547 206.63ZM606.953 221.57L617.955 210.307L629.217 221.308L618.214 232.571L606.953 221.57ZM592.341 236.527L603.343 225.264L614.605 236.265L603.602 247.528L592.341 236.527ZM577.747 251.466L588.749 240.203L600.011 251.205L589.008 262.468L577.747 251.466ZM563.152 266.406L574.155 255.143L585.417 266.144L574.414 277.407L563.152 266.406ZM548.541 281.363L559.543 270.1L570.805 281.101L559.802 292.364L548.541 281.363ZM533.947 296.302L544.949 285.039L556.211 296.041L545.208 307.304L533.947 296.302ZM519.335 311.259L530.337 299.997L541.599 310.998L530.596 322.261L519.335 311.259ZM504.741 326.199L515.743 314.936L527.005 325.937L516.002 337.2L504.741 326.199ZM490.129 341.156L501.132 329.893L512.393 340.895L501.391 352.157L490.129 341.156ZM497.817 355.852L486.814 367.114L475.553 356.113L486.555 344.85L497.817 355.852Z" fill="black"/>
<path d="M504.635 603.653L508.051 600.156L519.247 588.696L522.663 585.199L533.858 573.739L537.275 570.242L548.47 558.782L551.887 555.284L563.082 543.824L566.498 540.327L577.694 528.867L581.11 525.37L592.305 513.91L595.722 510.412L606.917 498.952L610.333 495.455L621.529 483.995L624.945 480.498L636.14 469.038L639.557 465.541L650.717 454.116L654.168 450.583L665.329 439.159L668.745 435.662L679.94 424.202L683.357 420.705L694.552 409.245L697.968 405.747L709.164 394.287L712.58 390.79L723.775 379.33L727.192 375.833L738.387 364.373L738.51 364.247L754.147 379.523L768.688 364.637L783.841 379.44L798.383 364.555L813.536 379.357L828.077 364.472L843.23 379.275L857.772 364.389L872.925 379.192L887.466 364.306L902.619 379.109L916.986 364.403L931.852 378.925L946.393 364.04L961.546 378.843L976.088 363.957L991.241 378.76L1005.78 363.874L1020.88 378.625L1035.42 363.739L1050.58 378.542L1065.12 363.656L1080.27 378.459L1097.91 360.399L1079.48 342.391L1064.94 357.276L1049.78 342.473L1035.24 357.359L1020.09 342.556L1005.55 357.442L990.395 342.639L975.853 357.524L960.7 342.722L946.159 357.607L931.006 342.804L916.64 357.511L904.284 345.441L918.283 331.111L903.184 316.361L917.935 301.26L902.836 286.51L917.588 271.409L902.489 256.659L917.241 241.558L902.142 226.808L913.477 215.204L916.894 211.707L928.667 199.655L939.911 210.639L943.408 214.055L954.866 225.249L958.363 228.665L969.822 239.859L973.319 243.275L984.778 254.469L988.274 257.885L999.733 269.079L1003.23 272.495L1014.69 283.689L1018.15 287.07L1033.09 301.663L1051.12 283.209L1036.18 268.616L1032.68 265.2L1021.22 254.006L1017.73 250.59L1006.27 239.396L1002.77 235.98L991.311 224.786L987.814 221.37L976.355 210.176L972.859 206.76L961.4 195.566L957.903 192.15L946.444 180.956L942.947 177.54L931.489 166.346L927.992 162.929L913.054 148.337L895.044 166.773L895.151 166.879L883.763 178.536L880.347 182.033L869.151 193.493L865.735 196.99L854.54 208.45L851.123 211.948L839.928 223.408L836.512 226.905L825.316 238.365L821.9 241.862L810.705 253.322L807.288 256.82L796.093 268.28L792.677 271.777L781.481 283.237L778.065 286.734L766.87 298.194L763.453 301.691L752.258 313.151L748.842 316.649L737.646 328.109L734.23 331.606L723.035 343.066L719.618 346.563L708.423 358.023L705.006 361.52L693.811 372.981L690.395 376.478L679.199 387.938L675.783 391.435L664.588 402.895L661.171 406.392L649.976 417.852L646.56 421.35L635.399 432.774L631.948 436.307L620.788 447.731L617.371 451.228L606.176 462.688L602.76 466.186L591.564 477.646L588.148 481.143L576.953 492.603L573.536 496.1L562.341 507.56L558.925 511.057L547.729 522.517L544.313 526.015L533.118 537.475L529.701 540.972L518.506 552.432L515.089 555.929L503.894 567.389L500.478 570.886L489.282 582.347L485.866 585.844L471.272 600.783L489.706 618.792L504.563 603.583L504.635 603.653ZM1044.03 283.292L1033.02 294.555L1021.76 283.553L1032.76 272.29L1044.03 283.292ZM1017.83 257.698L1029.09 268.699L1018.08 279.962L1006.82 268.961L1017.83 257.698ZM1002.87 243.088L1014.13 254.089L1003.13 265.352L991.868 254.351L1002.87 243.088ZM987.933 228.495L999.194 239.497L988.192 250.759L976.93 239.758L987.933 228.495ZM972.995 213.903L984.256 224.904L973.254 236.167L961.992 225.166L972.995 213.903ZM958.039 199.293L969.301 210.294L958.298 221.557L947.037 210.555L958.039 199.293ZM764.717 361.528L753.907 372.594L742.645 361.593L753.455 350.527L764.717 361.528ZM794.411 361.446L783.601 372.511L772.34 361.51L783.149 350.444L794.411 361.446ZM824.088 361.345L813.278 372.411L802.016 361.41L812.826 350.344L824.088 361.345ZM853.782 361.263L842.972 372.328L831.711 361.327L842.521 350.261L853.782 361.263ZM883.477 361.18L872.667 372.245L861.405 361.244L872.215 350.178L883.477 361.18ZM913.154 361.115L902.344 372.181L891.082 361.179L901.892 350.114L913.154 361.115ZM1068.75 360.547L1079.56 349.481L1090.82 360.482L1080.01 371.548L1068.75 360.547ZM1039.06 360.629L1049.87 349.564L1061.13 360.565L1050.32 371.631L1039.06 360.629ZM1009.36 360.712L1020.17 349.647L1031.43 360.648L1020.62 371.713L1009.36 360.712ZM979.668 360.795L990.477 349.729L1001.74 360.731L990.929 371.796L979.668 360.795ZM950.009 360.877L960.818 349.812L972.08 360.813L961.27 371.879L950.009 360.877ZM920.314 360.96L931.124 349.894L942.385 360.896L931.576 371.961L920.314 360.96ZM911.21 331.212L900.208 342.475L888.946 331.473L899.949 320.211L911.21 331.212ZM910.863 301.361L899.86 312.624L888.599 301.622L899.601 290.36L910.863 301.361ZM910.516 271.51L899.513 282.773L888.252 271.771L899.254 260.509L910.516 271.51ZM910.168 241.659L899.166 252.922L887.904 241.92L898.907 230.658L910.168 241.659ZM909.821 211.808L898.819 223.071L887.557 212.069L898.56 200.807L909.821 211.808ZM924.433 196.851L913.43 208.113L902.169 197.112L913.171 185.849L924.433 196.851ZM943.343 206.982L932.082 195.981L943.084 184.718L954.346 195.719L943.343 206.982ZM928.405 192.39L917.144 181.388L928.146 170.125L939.408 181.127L928.405 192.39ZM902.188 166.778L913.191 155.515L924.452 166.517L913.45 177.78L902.188 166.778ZM887.491 182.002L898.494 170.74L909.755 181.741L898.753 193.004L887.491 182.002ZM872.879 196.96L883.882 185.697L895.143 196.698L884.141 207.961L872.879 196.96ZM858.285 211.899L869.288 200.636L880.549 211.638L869.547 222.9L858.285 211.899ZM843.673 226.856L854.676 215.594L865.938 226.595L854.935 237.858L843.673 226.856ZM829.079 241.796L840.082 230.533L851.343 241.534L840.341 252.797L829.079 241.796ZM814.468 256.753L825.47 245.49L836.732 256.492L825.729 267.754L814.468 256.753ZM799.873 271.692L810.876 260.429L822.138 271.431L811.135 282.694L799.873 271.692ZM785.279 286.632L796.282 275.369L807.543 286.37L796.541 297.633L785.279 286.632ZM770.668 301.589L781.67 290.326L792.932 301.327L781.929 312.59L770.668 301.589ZM756.073 316.528L767.076 305.265L778.338 316.267L767.335 327.53L756.073 316.528ZM741.462 331.486L752.464 320.223L763.726 331.224L752.723 342.487L741.462 331.486ZM767.435 334.638L770.852 331.14L782.047 319.68L785.463 316.183L796.659 304.723L800.075 301.226L811.27 289.766L814.687 286.269L825.882 274.809L829.299 271.311L840.494 259.851L843.91 256.354L855.105 244.894L858.522 241.397L869.717 229.937L873.134 226.439L883.943 215.374L895.653 226.813L880.901 241.914L896.001 256.664L881.249 271.765L896.348 286.515L881.596 301.616L896.695 316.366L881.943 331.467L897.885 347.04L887.373 357.801L872.22 342.998L857.678 357.884L842.526 343.081L827.984 357.967L812.831 343.164L798.29 358.049L783.137 343.247L768.595 358.132L756.24 346.062L756.31 345.99L767.417 334.62L767.435 334.638ZM726.868 346.425L737.87 335.162L749.132 346.163L738.129 357.426L726.868 346.425ZM712.273 361.364L723.276 350.101L734.537 361.103L723.535 372.366L712.273 361.364ZM697.662 376.321L708.664 365.059L719.926 376.06L708.923 387.323L697.662 376.321ZM683.067 391.261L694.07 379.998L705.332 390.999L694.329 402.262L683.067 391.261ZM668.456 406.218L679.458 394.955L690.72 405.957L679.717 417.219L668.456 406.218ZM653.862 421.157L664.864 409.895L676.126 420.896L665.123 432.159L653.862 421.157ZM639.25 436.115L650.252 424.852L661.514 435.853L650.511 447.116L639.25 436.115ZM624.691 451.018L635.693 439.755L646.955 450.757L635.952 462.02L624.691 451.018ZM610.097 465.958L621.099 454.695L632.361 465.696L621.358 476.959L610.097 465.958ZM595.485 480.915L606.487 469.652L617.749 480.653L606.746 491.916L595.485 480.915ZM580.891 495.854L591.893 484.591L603.155 495.593L592.152 506.856L580.891 495.854ZM566.279 510.811L577.282 499.549L588.543 510.55L577.541 521.813L566.279 510.811ZM551.685 525.751L562.687 514.488L573.949 525.489L562.946 536.752L551.685 525.751ZM537.073 540.708L548.076 529.445L559.337 540.447L548.335 551.709L537.073 540.708ZM522.479 555.647L533.482 544.385L544.743 555.386L533.741 566.649L522.479 555.647ZM507.885 570.587L518.887 559.324L530.149 570.325L519.146 581.588L507.885 570.587ZM493.273 585.544L504.276 574.281L515.537 585.283L504.535 596.545L493.273 585.544ZM478.679 600.483L489.682 589.221L500.943 600.222L489.94 611.485L478.679 600.483Z" fill="black"/>
<path d="M863.652 94.1532L952.987 91.1363L955.021 144.05L1009.8 141.173L1008.22 195.388L1062.38 192.536L1060.8 246.751L1114.94 243.881L1113.36 298.097L1167.52 295.244L1165.93 349.46L1210.58 347.127L1211.51 364.65L1147.85 367.968L1149.42 313.771L1095.28 316.605L1096.84 262.408L1042.72 265.259L1044.28 211.062L990.138 213.896L991.706 159.699L938.181 162.508L936.125 109.258L882.996 111.052L888.744 167.805L833.509 165.369L837.213 220.195L782.298 217.791L786.002 272.617L731.104 270.195L734.791 325.04L679.893 322.617L683.598 377.444L628.682 375.04L632.387 429.866L577.489 427.444L581.176 482.288L526.278 479.866L529.301 524.914L511.817 526.095L507.449 461.472L562.347 463.894L558.66 409.05L613.558 411.472L609.853 356.646L664.769 359.05L661.064 304.223L715.962 306.646L712.275 251.801L767.173 254.224L763.469 199.397L818.384 201.801L814.68 146.975L869.241 149.383L863.652 94.1532Z" fill="#ED2024"/>
<path d="M255.539 412.397L310.717 466.3L247.593 530.917L260.145 543.18L910.26 -122.311L1338.84 296.371L1351.11 283.817L662.379 -389L650.115 -376.446L830.372 -200.354L775.692 -144.381L752.2 -167.33L763.921 -179.328L768.01 -175.334L762.929 -170.133L775.482 -157.87L792.826 -175.625L763.633 -204.145L727.384 -167.038L755.735 -139.342L689.97 -138.57L689.599 -170.548L704.949 -170.728L705.019 -164.772L699.311 -164.705L699.515 -147.156L722.772 -147.429L722.294 -188.483L671.863 -187.873L672.44 -138.346L624.082 -137.779L624.669 -87.3297L665.705 -87.8293L665.435 -111.086L647.886 -110.88L647.952 -105.172L641.996 -105.102L641.818 -120.453L672.626 -120.815L673.384 -55.6179L645.714 -82.6482L609.465 -45.542L638.659 -17.0226L656.004 -34.7777L643.452 -47.0403L638.371 -41.8393L634.282 -45.8334L646.003 -57.8315L669.1 -35.2683L612.685 22.4804C612.002 23.1799 611.121 23.6512 610.706 24.507L606.413 28.901L612.08 34.4366C612.566 35.0514 613.104 35.577 613.73 36.0483L665.249 86.3777L393.471 89.5692L396.828 378.152L386.071 389.164L325.764 330.251C325.242 329.565 324.632 328.97 323.917 328.446L318.34 322.998L314.065 327.374C313.219 327.81 312.769 328.701 312.068 329.419L255.268 387.562L231.777 364.613L243.498 352.615L247.586 356.609L242.488 361.828L255.04 374.091L272.403 356.318L243.209 327.798L206.96 364.905L243.004 400.116L208.174 435.77L245.276 472.014L273.799 442.817L256.028 425.457L243.764 438.011L248.982 443.109L244.988 447.198L232.991 435.478L255.539 412.397ZM412.339 204.247L491.398 203.319L491.78 236.148L475.011 236.345L474.944 230.637L482.212 230.551L482.008 213.002L457.191 213.294L457.666 254.1L509.533 253.49L509.075 214.174L533.607 238.138L506.749 265.632L413.083 266.732L412.339 204.247ZM570.991 105.054L572.063 198.772L545.853 225.602L522.667 202.951L558.757 202.528L558.154 150.661L517.348 151.14L517.637 175.957L535.186 175.751L535.101 168.483L540.809 168.416L541.004 185.185L508.707 185.564L507.779 105.796L570.991 105.054ZM730.129 36.9684L692.478 75.5094L692.034 37.2917L730.129 36.9684ZM691.83 19.7427L691.444 -13.4407L725.121 19.4582L691.83 19.7427ZM674.878 71.284L640.537 37.7368L674.467 37.4448L674.878 71.284ZM588.522 104.83L664.692 103.953L589.426 180.999L588.522 104.83ZM491.016 172.032L424.218 106.777L490.266 106.002L491.016 172.032ZM480.097 185.9L412.135 186.698L411.344 118.736L480.097 185.9ZM798.304 -122.291L831.169 -122.677L831.444 -89.9174L798.304 -122.291ZM848.718 -122.883L886.723 -123.329L849.055 -84.7702L848.718 -122.883ZM891.198 -140.933L848.549 -140.432L848.197 -182.941L891.198 -140.933ZM830.713 -175.591L831.018 -140.244L795.778 -139.83L830.713 -175.591ZM753.599 -121.766L728.615 -96.1914L765.718 -59.9465L794.223 -89.1257L776.452 -106.486L764.188 -93.9321L769.406 -88.8343L765.411 -84.7452L753.415 -96.4649L775.98 -119.564L830.764 -66.0467L748.7 17.958L693.935 -35.5422L716.886 -59.0363L728.883 -47.3166L724.888 -43.2276L719.67 -48.3254L707.406 -35.7713L725.177 -18.4109L753.699 -47.6081L716.597 -83.853L690.93 -57.5791L690.193 -121.003L753.599 -121.766ZM673.856 -15.0248L674.262 19.8958L639.447 20.1983L673.856 -15.0248ZM413.27 284.299L489.386 283.405L414.155 360.415L413.27 284.299ZM328.588 448.007L327.793 356.837L373.772 401.754L328.588 448.007ZM267.803 399.843L310.254 356.388L311.002 442.044L267.803 399.843Z" fill="#ED2024"/>
<path d="M1025.22 302.074L947.686 302.985L946.816 226.638C946.816 226.638 1026.4 303.231 1025.22 302.074Z" fill="#EC2326"/>
<path d="M861.662 244.675L862.564 322.21L786.235 323.106C786.217 323.088 862.819 243.491 861.662 244.675Z" fill="#EC2326"/>
</svg>
