<svg width="316" height="164" viewBox="0 0 316 164" fill="none" xmlns="http://www.w3.org/2000/svg">
<path d="M173.658 -50.7697L182.644 -41.892L174.562 -33.9073C173.499 -32.8566 173.499 -31.2282 174.562 -30.1776L189.822 -15.1012C190.354 -14.5759 191.045 -14.3132 191.683 -14.3132C192.321 -14.3132 193.066 -14.5759 193.544 -15.1012C194.608 -16.1518 194.608 -17.7803 193.544 -18.8309L180.145 -32.0687L186.366 -38.2148L195.405 -29.2845C195.512 -28.9168 195.724 -28.6016 195.99 -28.2865C196.256 -27.9713 196.628 -27.8137 197 -27.7086L204.604 -20.1967L199.499 -15.1537C199.021 -15.0487 198.596 -14.8386 198.276 -14.5234C197.957 -14.2082 197.745 -13.7354 197.638 -13.3152L188.918 -4.70009L173.871 -19.5663C172.807 -20.6169 171.159 -20.6169 170.096 -19.5663C169.032 -18.5157 169.032 -16.8873 170.096 -15.8366L185.143 -0.970398L176.955 7.11936C175.891 8.16998 175.891 9.79843 176.955 10.849L189.875 23.614C190.407 24.1394 191.098 24.402 191.736 24.402C192.374 24.402 193.119 24.1394 193.597 23.614C194.661 22.5634 194.661 20.935 193.597 19.8843L182.538 8.95793L188.865 2.70676L199.925 13.6332C200.457 14.1585 201.148 14.4212 201.786 14.4212C202.424 14.4212 203.168 14.1585 203.647 13.6332C204.71 12.5826 204.71 10.9541 203.647 9.90349L192.587 -1.02293L200.35 -8.69244L210.984 1.81374C211.516 2.33905 212.207 2.6017 212.845 2.6017C213.484 2.6017 214.228 2.33905 214.706 1.81374C215.77 0.763123 215.77 -0.865334 214.706 -1.91595L204.072 -12.4221L208.22 -16.5195L218.003 -6.85386C218.535 -6.32855 219.226 -6.06589 219.864 -6.06589C220.502 -6.06589 221.247 -6.32855 221.725 -6.85386C222.789 -7.90448 222.789 -9.53293 221.725 -10.5835L211.942 -20.2492L224.437 -32.594C225.5 -33.6446 225.5 -35.2731 224.437 -36.3237C223.373 -37.3743 221.725 -37.3743 220.662 -36.3237L208.166 -23.9789L201.626 -30.4402L215.398 -44.0457C216.461 -45.0963 216.461 -46.7248 215.398 -47.7754C214.334 -48.826 212.686 -48.826 211.623 -47.7754L198.117 -34.0123L190.141 -41.892L203.913 -55.4974C204.976 -56.5481 204.976 -58.1765 203.913 -59.2271C202.849 -60.2778 201.201 -60.2778 200.138 -59.2271L186.366 -45.6216L179.241 -52.6608L190.779 -64.06C191.843 -65.1106 191.843 -66.7391 190.779 -67.7897C189.716 -68.8403 188.068 -68.8403 187.004 -67.7897L173.605 -54.5519C172.595 -53.4487 172.595 -51.7678 173.658 -50.7697Z" fill="#ED2024"/>
<path d="M275.375 145.538C274.312 144.54 272.663 144.54 271.6 145.538L263.093 153.943L256.18 147.114C255.117 146.064 253.469 146.064 252.405 147.114C251.342 148.165 251.342 149.793 252.405 150.844L259.317 157.673L251.448 165.447L239.75 153.891L251.235 142.491C252.299 141.441 252.299 139.812 251.235 138.762C250.172 137.711 248.524 137.711 247.46 138.762L235.922 150.161L228.691 143.069L241.186 130.725C242.249 129.674 242.249 128.045 241.186 126.995C240.122 125.944 238.474 125.944 237.411 126.995L224.915 139.34L217.259 131.775V91.3789H225.075C226.564 91.3789 227.734 90.2232 227.734 88.7523V78.5088C227.734 77.0379 226.564 75.8823 225.075 75.8823H217.259V37.167L225.553 28.9722L236.985 40.2663C237.517 40.7916 238.208 41.0543 238.846 41.0543C239.484 41.0543 240.229 40.7916 240.707 40.2663C241.771 39.2157 241.771 37.5872 240.707 36.5366L229.275 25.2425L236.454 18.1508L247.407 28.9722C247.939 29.4975 248.63 29.7602 249.268 29.7602C249.906 29.7602 250.65 29.4975 251.129 28.9722C252.192 27.9216 252.192 26.2931 251.129 25.2425L240.176 14.4211L251.873 2.86435L258.998 9.90348L252.086 16.7325C251.023 17.7831 251.023 19.4116 252.086 20.4622C252.618 20.9875 253.309 21.2501 253.947 21.2501C254.585 21.2501 255.329 20.9875 255.808 20.4622L262.72 13.6332L271.813 22.616C272.291 23.0887 272.982 23.4039 273.674 23.4039C274.365 23.4039 275.056 23.1413 275.535 22.616L284.521 13.7382C285.584 12.6876 285.584 11.0592 284.521 10.0085C283.457 8.95792 281.809 8.95792 280.745 10.0085L273.621 17.0477L266.442 9.95601L280.639 -4.0172C281.703 -5.06782 281.703 -6.69627 280.639 -7.74689C279.576 -8.79751 277.927 -8.79751 276.864 -7.74689L262.72 6.22632L255.595 -0.812813L269.101 -14.1557C270.164 -15.2063 270.164 -16.8347 269.101 -17.8853C268.037 -18.936 266.389 -18.936 265.326 -17.8853L251.82 -4.54251L243.951 -12.3171L258.094 -26.2903C259.158 -27.3409 259.158 -28.9694 258.094 -30.02C257.031 -31.0706 255.383 -31.0706 254.319 -30.02L240.176 -16.0468L233.582 -22.5606L240.92 -29.8099C241.983 -30.8605 241.983 -32.4889 240.92 -33.5396C239.857 -34.5902 238.208 -34.5902 237.145 -33.5396L227.946 -24.4517C226.883 -23.4011 226.883 -21.7726 227.946 -20.722L236.454 -12.3171L229.541 -5.48806C228.478 -4.43744 228.478 -2.80899 229.541 -1.75837C230.073 -1.23306 230.764 -0.970409 231.402 -0.970409C232.04 -0.970409 232.785 -1.23306 233.263 -1.75837L240.176 -8.58739L248.045 -0.812813L236.347 10.744L224.809 -0.65522C223.746 -1.70584 222.097 -1.70584 221.034 -0.65522C219.97 0.395397 219.97 2.02385 221.034 3.07447L232.572 14.4737L225.394 21.5653L212.899 9.22058C211.835 8.16996 210.187 8.16996 209.123 9.22058C208.06 10.2712 208.06 11.8997 209.123 12.9503L221.619 25.295L213.909 32.912H173.445V25.0849C173.445 24.402 173.18 23.7191 172.648 23.2463C172.116 22.7735 171.478 22.4584 170.787 22.4584H160.418C158.93 22.4584 157.76 23.614 157.76 25.0849V32.912H118.094L110.49 25.4001L121.922 14.106C122.986 13.0553 122.986 11.4269 121.922 10.3763C120.859 9.32564 119.21 9.32564 118.147 10.3763L106.715 21.6704L99.537 14.5787L110.49 3.75737C111.554 2.70676 111.554 1.0783 110.49 0.0276794C109.427 -1.02294 107.779 -1.02294 106.715 0.0276794L95.7619 10.849L84.0641 -0.707752L91.1891 -7.74689L98.1014 -0.917877C98.6331 -0.392567 99.3243 -0.129917 99.9624 -0.129917C100.6 -0.129917 101.345 -0.392567 101.823 -0.917877C102.887 -1.96849 102.887 -3.59695 101.823 -4.64757L94.9111 -11.4766L104.003 -20.4594C104.482 -20.9321 104.801 -21.615 104.801 -22.2979C104.801 -22.9808 104.535 -23.6637 104.003 -24.1365L95.2301 -33.0142C94.1667 -34.0649 92.5184 -34.0649 91.455 -33.0142C90.3915 -31.9636 90.3915 -30.3352 91.455 -29.2845L98.5799 -22.2454L91.4018 -15.1537L77.205 -29.127C76.1416 -30.1776 74.4933 -30.1776 73.4298 -29.127C72.3664 -28.0763 72.3664 -26.4479 73.4298 -25.3973L87.5734 -11.4241L80.4485 -4.38491L67.0493 -17.7278C65.9858 -18.7784 64.3375 -18.7784 63.2741 -17.7278C62.2106 -16.6771 62.2106 -15.0487 63.2741 -13.9981L76.7796 -0.65522L68.9103 7.11935L54.7666 -6.9064C53.7032 -7.95702 52.0549 -7.95702 50.9915 -6.9064C49.928 -5.85578 49.928 -4.22732 50.9915 -3.17671L65.1351 10.849L58.5418 17.3629L51.151 10.1136C50.0875 9.06299 48.4392 9.06299 47.3758 10.1136C46.3124 11.1642 46.3124 12.7927 47.3758 13.8433L56.5745 22.9311C57.053 23.4039 57.7442 23.7191 58.4355 23.7191C59.1267 23.7191 59.8179 23.4565 60.2965 22.9311L68.8039 14.5262L75.7162 21.3552C76.2479 21.8805 76.9391 22.1432 77.5772 22.1432C78.2153 22.1432 78.9597 21.8805 79.4382 21.3552C80.5016 20.3046 80.5016 18.6761 79.4382 17.6255L72.5259 10.7965L80.3953 3.02194L92.093 14.5787L80.5548 25.9779C79.4914 27.0285 79.4914 28.657 80.5548 29.7076C81.0865 30.2329 81.7778 30.4956 82.4158 30.4956C83.0539 30.4956 83.7983 30.2329 84.2768 29.7076L95.815 18.3084L102.993 25.4001L90.4979 37.7449C89.4344 38.7955 89.4344 40.4239 90.4979 41.4745C91.0296 41.9998 91.7208 42.2625 92.3589 42.2625C92.9969 42.2625 93.7413 41.9998 94.2199 41.4745L106.715 29.1298L114.106 36.4316V75.9348H106.29C105.599 75.9348 104.907 76.1975 104.429 76.7228C103.95 77.2481 103.631 77.8784 103.631 78.5613V88.8049C103.631 90.2757 104.801 91.4314 106.29 91.4314H114.053V130.987L106.024 138.919L94.5921 127.625C93.5287 126.575 91.8803 126.575 90.8169 127.625C89.7535 128.676 89.7535 130.304 90.8169 131.355L102.249 142.649L95.0706 149.741L84.1173 138.919C83.0539 137.869 81.4056 137.869 80.3421 138.919C79.2787 139.97 79.2787 141.598 80.3421 142.649L91.2954 153.47L79.5977 165.027L72.4727 157.988L79.385 151.159C80.4485 150.108 80.4485 148.48 79.385 147.429C78.3216 146.379 76.6733 146.379 75.6099 147.429L68.6976 154.258L59.6052 145.276C58.5418 144.225 56.8935 144.225 55.8301 145.276L46.8441 154.153C45.7807 155.204 45.7807 156.832 46.8441 157.883C47.9075 158.934 49.5558 158.934 50.6193 157.883L57.7442 150.844L64.9224 157.936L50.7788 171.961C49.7153 173.012 49.7153 174.64 50.7788 175.691C51.3105 176.216 52.0017 176.479 52.6398 176.479C53.2778 176.479 54.0222 176.216 54.5008 175.691L68.6976 161.665L75.8225 168.704L62.317 182.047C61.2536 183.098 61.2536 184.726 62.317 185.777C62.8487 186.302 63.5399 186.565 64.178 186.565C64.816 186.565 65.5604 186.302 66.039 185.777L79.5446 172.434L87.4139 180.209L73.2703 194.234C72.2069 195.285 72.2069 196.913 73.2703 197.964C73.802 198.489 74.4933 198.752 75.1313 198.752C75.7694 198.752 76.5138 198.489 76.9923 197.964L91.1359 183.938L97.7292 190.452L90.3915 197.701C89.3281 198.752 89.3281 200.38 90.3915 201.431C90.9232 201.956 91.6145 202.219 92.2525 202.219C92.8906 202.219 93.635 201.956 94.1135 201.431L103.312 192.343C104.376 191.293 104.376 189.664 103.312 188.614L94.8048 180.209L101.717 173.38C102.78 172.329 102.78 170.701 101.717 169.65C100.654 168.599 99.0053 168.599 97.9419 169.65L91.0296 176.479L83.1602 168.704L94.8579 157.148L106.396 168.547C106.928 169.072 107.619 169.335 108.257 169.335C108.895 169.335 109.64 169.072 110.118 168.547C111.182 167.496 111.182 165.868 110.118 164.817L98.5799 153.418L105.758 146.326L118.253 158.671C118.785 159.196 119.476 159.459 120.114 159.459C120.752 159.459 121.497 159.196 121.975 158.671C123.039 157.62 123.039 155.992 121.975 154.941L109.48 142.596L117.509 134.664H157.388V142.229C157.388 142.912 157.653 143.595 158.185 144.067C158.717 144.54 159.355 144.855 160.046 144.855H170.415C171.903 144.855 173.073 143.7 173.073 142.229V134.664H212.101L220.662 143.069L209.23 154.363C208.166 155.414 208.166 157.042 209.23 158.093C209.762 158.618 210.453 158.881 211.091 158.881C211.729 158.881 212.473 158.618 212.952 158.093L224.384 146.799L231.615 153.891L220.715 164.712C219.651 165.763 219.651 167.391 220.715 168.442C221.247 168.967 221.938 169.23 222.576 169.23C223.214 169.23 223.958 168.967 224.437 168.442L235.39 157.62L247.088 169.177L240.016 176.216L233.104 169.387C232.04 168.337 230.392 168.337 229.329 169.387C228.265 170.438 228.265 172.066 229.329 173.117L236.294 179.946L227.202 188.929C226.138 189.979 226.138 191.608 227.202 192.658L236.241 201.536C236.773 202.061 237.464 202.324 238.102 202.324C238.74 202.324 239.484 202.061 239.963 201.536C241.026 200.486 241.026 198.857 239.963 197.806L232.838 190.767L240.016 183.623L254.213 197.596C254.745 198.122 255.436 198.384 256.074 198.384C256.712 198.384 257.456 198.122 257.935 197.596C258.998 196.546 258.998 194.917 257.935 193.867L243.738 179.893L250.81 172.854L264.315 186.145C264.847 186.67 265.538 186.933 266.176 186.933C266.815 186.933 267.559 186.67 268.038 186.145C269.101 185.094 269.101 183.465 268.038 182.415L254.532 169.125L262.401 161.35L276.598 175.323C277.13 175.849 277.821 176.111 278.459 176.111C279.097 176.111 279.842 175.849 280.32 175.323C281.384 174.273 281.384 172.644 280.32 171.594L266.123 157.62L272.717 151.106L280.054 158.356C281.118 159.354 282.766 159.354 283.829 158.356C284.84 157.305 284.84 155.677 283.829 154.626L275.375 145.538ZM222.47 81.1879V86.1783H217.418V81.1879H222.47ZM163.343 27.764H168.394V32.7544H163.343V27.764ZM114.266 86.1783H109.214V81.1879H114.266V86.1783ZM168.394 139.602H163.343V134.664H168.394V139.602ZM171.265 129.411C171.159 129.411 171.106 129.359 171 129.359H160.631C160.525 129.359 160.472 129.411 160.418 129.411H123.411L138.831 114.177L146.647 121.899C147.179 122.425 147.87 122.687 148.508 122.687C149.146 122.687 149.89 122.425 150.369 121.899C151.432 120.849 151.432 119.22 150.369 118.17L142.553 110.448L150.954 102.148C152.017 101.097 152.017 99.4686 150.954 98.418C149.89 97.3674 148.242 97.3674 147.179 98.418L138.831 106.77L133.088 101.097C132.025 100.046 130.376 100.046 129.313 101.097C128.25 102.148 128.25 103.776 129.313 104.827L135.056 110.5L119.636 125.734V41.7372L135.64 57.549L127.824 65.271C126.761 66.3216 126.761 67.9501 127.824 69.0007C128.356 69.526 129.047 69.7887 129.685 69.7887C130.323 69.7887 131.068 69.526 131.546 69.0007L139.362 61.2787L147.764 69.5786C148.295 70.1039 148.987 70.3665 149.625 70.3665C150.263 70.3665 151.007 70.1039 151.486 69.5786C152.549 68.5279 152.549 66.8995 151.486 65.8489L143.084 57.549L148.933 51.8231C149.997 50.7725 149.997 49.144 148.933 48.0934C147.87 47.0428 146.222 47.0428 145.158 48.0934L139.416 53.7668L123.624 38.1651H208.858L193.172 53.6617L185.356 45.9397C184.292 44.889 182.644 44.889 181.581 45.9397C180.517 46.9903 180.517 48.6187 181.581 49.6693L189.397 57.3914L180.996 65.6913C179.932 66.7419 179.932 68.3703 180.996 69.421C181.527 69.9463 182.219 70.2089 182.857 70.2089C183.495 70.2089 184.239 69.9463 184.718 69.421L193.119 61.1211L198.861 66.7944C199.393 67.3197 200.084 67.5824 200.722 67.5824C201.36 67.5824 202.105 67.3197 202.583 66.7944C203.647 65.7438 203.647 64.1153 202.583 63.0647L196.841 57.3914L211.942 42.4726V126.575L196.15 111.025L203.966 103.303C205.029 102.253 205.029 100.624 203.966 99.5737C202.902 98.5231 201.254 98.5231 200.191 99.5737L192.374 107.296L183.973 98.9958C182.91 97.9452 181.262 97.9452 180.198 98.9958C179.135 100.046 179.135 101.675 180.198 102.726L188.599 111.025L182.857 116.699C181.793 117.749 181.793 119.378 182.857 120.428C183.388 120.954 184.08 121.216 184.718 121.216C185.356 121.216 186.1 120.954 186.579 120.428L192.321 114.755L207.209 129.411H171.265Z" fill="#ED2024"/>
<path d="M305.736 91.6417C305.258 91.1689 304.566 90.8537 303.875 90.8537C303.184 90.8537 302.493 91.1164 302.014 91.6417L293.028 100.519L284.893 92.5347C284.414 92.0619 283.723 91.7467 283.032 91.7467C282.341 91.7467 281.649 92.0094 281.171 92.5347L265.911 107.664C264.847 108.714 264.847 110.343 265.911 111.393C266.974 112.444 268.622 112.444 269.686 111.393L283.085 98.1555L289.306 104.302L280.267 113.284C279.895 113.389 279.576 113.6 279.257 113.862C278.991 114.125 278.778 114.493 278.672 114.86L271.068 122.372L265.911 117.277C265.804 116.857 265.592 116.384 265.273 116.069C264.9 115.701 264.475 115.543 264.05 115.438L255.276 106.823L270.324 91.9569C271.387 90.9063 271.387 89.2778 270.324 88.2272C269.26 87.1766 267.612 87.1766 266.549 88.2272L251.501 103.093L243.313 95.0036C242.834 94.5309 242.143 94.2157 241.452 94.2157C240.76 94.2157 240.069 94.4783 239.591 95.0036L226.67 107.769C225.607 108.819 225.607 110.448 226.67 111.498C227.733 112.549 229.382 112.549 230.445 111.498L241.452 100.572L247.779 106.823L236.773 117.75C235.709 118.8 235.709 120.429 236.773 121.479C237.304 122.005 237.996 122.267 238.634 122.267C239.272 122.267 240.016 122.005 240.495 121.479L251.501 110.553L259.317 118.222L248.683 128.728C247.62 129.779 247.62 131.408 248.683 132.458C249.215 132.983 249.906 133.246 250.544 133.246C251.182 133.246 251.926 132.983 252.405 132.458L263.039 121.899L267.187 125.997L257.456 135.663C256.393 136.713 256.393 138.342 257.456 139.392C257.988 139.918 258.679 140.18 259.317 140.18C259.955 140.18 260.7 139.918 261.178 139.392L270.909 129.727L283.404 142.071C283.936 142.597 284.627 142.859 285.265 142.859C285.903 142.859 286.647 142.597 287.126 142.071C288.189 141.021 288.189 139.392 287.126 138.342L274.578 125.997L281.064 119.536L294.836 133.141C295.368 133.666 296.059 133.929 296.697 133.929C297.335 133.929 298.079 133.666 298.558 133.141C299.621 132.09 299.621 130.462 298.558 129.411L284.733 115.806L292.709 107.926L306.48 121.532C307.012 122.057 307.703 122.32 308.341 122.32C308.979 122.32 309.724 122.057 310.202 121.532C311.213 120.481 311.213 118.853 310.202 117.802L296.431 104.197L303.503 97.1574L315.041 108.557C316.104 109.607 317.753 109.607 318.816 108.557C319.88 107.506 319.88 105.878 318.816 104.827L305.736 91.6417Z" fill="#ED2024"/>
<path d="M159.142 220.5C159.142 219.817 158.876 219.134 158.345 218.661L149.359 209.783L157.441 201.799C158.504 200.748 158.504 199.12 157.441 198.069L142.181 182.993C141.117 181.942 139.469 181.942 138.405 182.993C137.342 184.043 137.342 185.672 138.405 186.722L151.805 199.96L145.584 206.106L136.544 197.176C136.438 196.808 136.225 196.493 135.96 196.178C135.694 195.863 135.321 195.705 134.949 195.6L127.346 188.088L132.45 183.045C132.876 182.94 133.354 182.73 133.673 182.415C134.045 182.047 134.205 181.627 134.311 181.207L143.031 172.592L158.079 187.458C158.611 187.983 159.302 188.246 159.94 188.246C160.578 188.246 161.322 187.983 161.801 187.458C162.864 186.407 162.864 184.779 161.801 183.728L146.753 168.862L154.942 160.772C156.005 159.722 156.005 158.093 154.942 157.042L142.021 144.277C140.958 143.227 139.309 143.227 138.246 144.277C137.182 145.328 137.182 146.957 138.246 148.007L149.306 158.934L142.978 165.185L131.918 154.258C130.855 153.208 129.207 153.208 128.143 154.258C127.08 155.309 127.08 156.937 128.143 157.988L139.203 168.914L131.44 176.584L120.806 166.078C119.742 165.027 118.094 165.027 117.03 166.078C115.967 167.128 115.967 168.757 117.03 169.807L127.665 180.314L123.517 184.411L113.734 174.745C112.67 173.695 111.022 173.695 109.959 174.745C108.895 175.796 108.895 177.424 109.959 178.475L119.742 188.141L107.247 200.486C106.183 201.536 106.183 203.165 107.247 204.215C107.779 204.741 108.47 205.003 109.108 205.003C109.746 205.003 110.49 204.741 110.969 204.215L123.464 191.87L130.004 198.332L116.233 211.937C115.169 212.988 115.169 214.616 116.233 215.667C116.765 216.192 117.456 216.455 118.094 216.455C118.732 216.455 119.476 216.192 119.955 215.667L133.726 202.061L141.702 209.941L127.931 223.547C126.867 224.597 126.867 226.226 127.931 227.276C128.462 227.802 129.154 228.064 129.792 228.064C130.43 228.064 131.174 227.802 131.653 227.276L145.424 213.671L152.549 220.71L141.011 232.109C139.947 233.16 139.947 234.788 141.011 235.839C141.543 236.364 142.234 236.627 142.872 236.627C143.51 236.627 144.254 236.364 144.733 235.839L158.132 222.601C158.876 221.866 159.142 221.235 159.142 220.5Z" fill="#ED2024"/>
<path d="M26.1604 76.7753C26.6389 77.2481 27.3302 77.5633 28.0214 77.5633C28.7126 77.5633 29.4038 77.3007 29.8824 76.7753L38.8684 67.8976L46.9504 75.8823C47.4822 76.4076 48.1734 76.6703 48.8114 76.6703C49.4495 76.6703 50.1939 76.4076 50.6724 75.8823L65.9327 60.806C66.9961 59.7553 66.9961 58.1269 65.9327 57.0763C64.8692 56.0257 63.2209 56.0257 62.1575 57.0763L48.7583 70.314L42.5372 64.1679L51.5764 55.2377C51.9486 55.1326 52.2676 54.9225 52.5866 54.6598C52.9056 54.3972 53.0652 54.0295 53.1715 53.6618L60.775 46.1498L65.8795 51.1928C65.9858 51.6131 66.1985 52.0858 66.5175 52.401C66.8366 52.7162 67.3151 52.9263 67.7405 53.0314L76.4606 61.6464L61.4131 76.5127C60.3497 77.5633 60.3497 79.1918 61.4131 80.2424C61.9448 80.7677 62.636 81.0303 63.2741 81.0303C63.9121 81.0303 64.6565 80.7677 65.1351 80.2424L80.1826 65.3761L88.371 73.4659C88.9028 73.9912 89.594 74.2539 90.232 74.2539C90.8701 74.2539 91.6145 73.9912 92.093 73.4659L105.014 60.7009C106.077 59.6503 106.077 58.0218 105.014 56.9712C103.95 55.9206 102.302 55.9206 101.239 56.9712L90.1789 67.8976L83.8515 61.6464L94.9111 50.72C95.9746 49.6694 95.9746 48.041 94.9111 46.9903C93.8477 45.9397 92.1994 45.9397 91.1359 46.9903L80.0763 57.9168L72.3132 50.2472L82.9475 39.7411C84.011 38.6905 84.011 37.062 82.9475 36.0114C81.8841 34.9608 80.2358 34.9608 79.1724 36.0114L68.5381 46.5176L64.3907 42.4201L74.1742 32.7545C75.2377 31.7038 75.2377 30.0754 74.1742 29.0248C73.1108 27.9742 71.4625 27.9742 70.3991 29.0248L60.6155 38.6905L48.4392 26.3457C47.3758 25.2951 45.7275 25.2951 44.6641 26.3457C43.6006 27.3963 43.6006 29.0248 44.6641 30.0754L57.1594 42.4201L50.6193 48.8814L36.8479 35.2759C35.7844 34.2253 34.1361 34.2253 33.0727 35.2759C32.0092 36.3266 32.0092 37.955 33.0727 39.0056L46.8441 52.6111L38.8684 60.4908L25.097 46.8853C24.0335 45.8347 22.3852 45.8347 21.3218 46.8853C20.2583 47.9359 20.2583 49.5643 21.3218 50.615L35.0932 64.2205L27.9682 71.2596L16.5363 59.8079C15.4729 58.7572 13.8246 58.7572 12.7612 59.8079C11.6977 60.8585 11.6977 62.4869 12.7612 63.5376L26.1604 76.7753Z" fill="#ED2024"/>
<path d="M48.4392 140.023L60.9345 127.678L70.7181 137.343C71.2498 137.869 71.941 138.131 72.5791 138.131C73.2171 138.131 73.9615 137.869 74.4401 137.343C75.5035 136.293 75.5035 134.664 74.4401 133.614L64.6565 123.948L68.8039 119.851L79.4382 130.357C79.9699 130.882 80.6612 131.145 81.2992 131.145C81.9373 131.145 82.6817 130.882 83.1602 130.357C84.2236 129.306 84.2236 127.678 83.1602 126.627L72.5259 116.121L80.289 108.451L91.3486 119.378C91.8803 119.903 92.5716 120.166 93.2096 120.166C93.8477 120.166 94.5921 119.903 95.0706 119.378C96.1341 118.327 96.1341 116.699 95.0706 115.648L84.011 104.722L90.3384 98.4706L101.398 109.397C102.461 110.448 104.11 110.448 105.173 109.397C106.237 108.346 106.237 106.718 105.173 105.667L92.2525 92.9023C91.1891 91.8517 89.5408 91.8517 88.4774 92.9023L80.289 100.992L65.2414 86.1259C64.178 85.0752 62.5297 85.0752 61.4662 86.1259C60.4028 87.1765 60.4028 88.8049 61.4662 89.8556L76.5138 104.722L67.7937 113.337C67.3683 113.442 66.8897 113.652 66.5707 113.967C66.2517 114.282 66.039 114.755 65.9327 115.175L60.8282 120.218L53.2247 112.706C53.2247 112.339 53.012 112.024 52.7461 111.708C52.4803 111.393 52.1081 111.236 51.7359 111.131L42.6967 102.2L48.9178 96.0542L62.317 109.292C63.3804 110.343 65.0287 110.343 66.0922 109.292C67.1556 108.241 67.1556 106.613 66.0922 105.562L50.8319 90.4859C49.7685 89.4353 48.1202 89.4353 47.0568 90.4859L38.9747 98.4706L29.9887 89.5929C28.9785 88.5948 27.2238 88.5948 26.2135 89.5929L12.8143 102.831C11.7509 103.881 11.7509 105.51 12.8143 106.56C13.8778 107.611 15.5261 107.611 16.5895 106.56L28.1277 95.1612L35.2527 102.2L21.4813 115.806C20.4179 116.856 20.4179 118.485 21.4813 119.535C22.013 120.061 22.7042 120.323 23.3423 120.323C23.9803 120.323 24.7247 120.061 25.2033 119.535L38.9747 105.93L46.9504 113.81L33.179 127.415C32.1156 128.466 32.1156 130.094 33.179 131.145C33.7107 131.67 34.402 131.933 35.04 131.933C35.6781 131.933 36.4225 131.67 36.901 131.145L50.6724 117.539L57.2125 124.001L44.7172 136.345C43.6538 137.396 43.6538 139.024 44.7172 140.075C45.2489 140.6 45.9402 140.863 46.5782 140.863C47.2163 140.863 47.9075 140.495 48.4392 140.023Z" fill="#ED2024"/>
<path d="M120.38 -20.2492L110.597 -10.5835C109.533 -9.53286 109.533 -7.9044 110.597 -6.85378C111.128 -6.32848 111.82 -6.06582 112.458 -6.06582C113.096 -6.06582 113.84 -6.32848 114.319 -6.85378L124.102 -16.5195L128.25 -12.4221L117.615 -1.91588C116.552 -0.865265 116.552 0.763199 117.615 1.81381C118.147 2.33912 118.838 2.60178 119.476 2.60178C120.114 2.60178 120.859 2.33912 121.337 1.81381L131.972 -8.69236L139.735 -1.02286L128.675 9.90356C127.612 10.9542 127.612 12.5826 128.675 13.6333C129.207 14.1586 129.898 14.4212 130.536 14.4212C131.174 14.4212 131.918 14.1586 132.397 13.6333L143.616 2.70683L149.944 8.95801L138.884 19.8844C137.821 20.9351 137.821 22.5635 138.884 23.6141C139.416 24.1394 140.107 24.4021 140.745 24.4021C141.383 24.4021 142.127 24.1394 142.606 23.6141L155.527 10.8491C156.59 9.7985 156.59 8.17005 155.527 7.11943L147.338 -0.970329L162.386 -15.8366C163.449 -16.8872 163.449 -18.5156 162.386 -19.5663C161.322 -20.6169 159.674 -20.6169 158.611 -19.5663L143.616 -4.70002L134.896 -13.3151C134.79 -13.7879 134.577 -14.2081 134.258 -14.5233C133.939 -14.8385 133.46 -15.0486 133.035 -15.1537L127.931 -20.1966L135.534 -27.7085C135.906 -27.8136 136.225 -28.0237 136.544 -28.2864C136.863 -28.549 137.023 -28.9167 137.129 -29.2845L146.168 -38.2147L152.389 -32.0686L138.99 -18.8308C137.927 -17.7802 137.927 -16.1517 138.99 -15.1011C139.522 -14.5758 140.213 -14.3132 140.851 -14.3132C141.489 -14.3132 142.234 -14.5758 142.712 -15.1011L157.973 -30.1775C159.036 -31.2281 159.036 -32.8566 157.973 -33.9072L149.89 -41.8919L158.876 -50.7696C159.94 -51.8202 159.94 -53.4487 158.876 -54.4993L145.477 -67.7371C144.414 -68.7877 142.765 -68.7877 141.702 -67.7371C140.639 -66.6864 140.639 -65.058 141.702 -64.0074L153.24 -52.6082L146.115 -45.569L132.344 -59.1745C131.28 -60.2251 129.632 -60.2251 128.569 -59.1745C127.505 -58.1239 127.505 -56.4955 128.569 -55.4448L142.34 -41.8393L134.364 -33.9597L120.593 -47.5652C119.53 -48.6158 117.881 -48.6158 116.818 -47.5652C115.754 -46.5146 115.754 -44.8861 116.818 -43.8355L130.589 -30.23L124.049 -23.7687L111.554 -36.1135C110.49 -37.1641 108.842 -37.1641 107.779 -36.1135C106.715 -35.0629 106.715 -33.4344 107.779 -32.3838L120.38 -20.2492Z" fill="#ED2024"/>
<path d="M272.823 38.5854L263.039 28.9197C261.976 27.8691 260.328 27.8691 259.264 28.9197C258.201 29.9703 258.201 31.5988 259.264 32.6494L269.048 42.3151L264.9 46.4125L254.266 35.9063C253.203 34.8557 251.554 34.8557 250.491 35.9063C249.427 36.9569 249.427 38.5854 250.491 39.636L261.125 50.1422L253.362 57.8117L242.302 46.8853C241.239 45.8347 239.591 45.8347 238.527 46.8853C237.464 47.9359 237.464 49.5643 238.527 50.615L249.587 61.5414L243.26 67.7926L232.2 56.8661C231.136 55.8155 229.488 55.8155 228.425 56.8661C227.361 57.9168 227.361 59.5452 228.425 60.5958L241.345 73.3608C241.824 73.8336 242.515 74.1488 243.206 74.1488C243.898 74.1488 244.589 73.8861 245.067 73.3608L253.256 65.2711L268.303 80.1373C268.835 80.6626 269.526 80.9253 270.164 80.9253C270.802 80.9253 271.547 80.6626 272.025 80.1373C273.089 79.0867 273.089 77.4582 272.025 76.4076L256.978 61.5414L265.698 52.9263C266.123 52.8213 266.602 52.6111 266.921 52.296C267.24 51.9808 267.453 51.508 267.559 51.0877L272.663 46.0448L280.267 53.5567C280.373 53.9244 280.586 54.2396 280.852 54.5548C281.118 54.87 281.49 55.0276 281.862 55.1326L290.901 64.0629L284.68 70.209L271.281 56.9712C270.218 55.9206 268.569 55.9206 267.506 56.9712C266.442 58.0218 266.442 59.6503 267.506 60.7009L282.766 75.7773C283.298 76.3026 283.989 76.5652 284.627 76.5652C285.265 76.5652 286.009 76.3026 286.488 75.7773L294.57 67.7926L303.556 76.6703C304.088 77.1956 304.779 77.4582 305.417 77.4582C306.055 77.4582 306.799 77.1956 307.278 76.6703L320.677 63.4325C321.741 62.3819 321.741 60.7534 320.677 59.7028C319.614 58.6522 317.966 58.6522 316.902 59.7028L305.364 71.102L298.239 64.0629L312.01 50.4574C313.074 49.4068 313.074 47.7783 312.01 46.7277C310.947 45.6771 309.299 45.6771 308.235 46.7277L294.464 60.3332L286.488 52.4535L300.259 38.8481C301.323 37.7974 301.323 36.169 300.259 35.1184C299.196 34.0677 297.548 34.0677 296.484 35.1184L282.713 48.7239L276.545 42.2626L289.04 29.9178C290.104 28.8672 290.104 27.2387 289.04 26.1881C287.977 25.1375 286.328 25.1375 285.265 26.1881L272.823 38.5854Z" fill="#ED2024"/>
<path d="M212.739 189.454L222.523 179.788C223.586 178.738 223.586 177.109 222.523 176.059C221.459 175.008 219.811 175.008 218.748 176.059L208.964 185.724L204.817 181.627L215.451 171.121C216.514 170.07 216.514 168.442 215.451 167.391C214.387 166.341 212.739 166.341 211.676 167.391L201.041 177.897L193.278 170.228L204.338 159.301C205.401 158.251 205.401 156.622 204.338 155.572C203.275 154.521 201.626 154.521 200.563 155.572L189.503 166.498L183.176 160.247L194.235 149.321C195.299 148.27 195.299 146.641 194.235 145.591C193.172 144.54 191.524 144.54 190.46 145.591L177.54 158.356C177.061 158.829 176.742 159.511 176.742 160.194C176.742 160.877 177.008 161.56 177.54 162.033L185.728 170.123L170.68 184.989C169.617 186.04 169.617 187.668 170.68 188.719C171.212 189.244 171.903 189.507 172.541 189.507C173.18 189.507 173.924 189.244 174.403 188.719L189.45 173.852L198.17 182.467C198.276 182.94 198.489 183.361 198.808 183.676C199.127 183.991 199.606 184.201 200.031 184.306L205.136 189.349L197.532 196.861C197.16 196.966 196.841 197.176 196.522 197.439C196.203 197.701 196.043 198.069 195.937 198.437L186.898 207.367L180.677 201.221L194.076 187.983C195.139 186.933 195.139 185.304 194.076 184.254C193.013 183.203 191.364 183.203 190.301 184.254L175.041 199.33C173.977 200.381 173.977 202.009 175.041 203.06L183.123 211.044L174.137 219.922C173.073 220.973 173.073 222.601 174.137 223.652L187.536 236.889C188.068 237.415 188.759 237.677 189.397 237.677C190.035 237.677 190.779 237.415 191.258 236.889C192.321 235.839 192.321 234.21 191.258 233.16L179.72 221.761L186.845 214.721L200.616 228.327C201.148 228.852 201.839 229.115 202.477 229.115C203.115 229.115 203.859 228.852 204.338 228.327C205.401 227.276 205.401 225.648 204.338 224.597L190.567 210.992L198.542 203.112L212.314 216.718C212.845 217.243 213.537 217.506 214.175 217.506C214.813 217.506 215.557 217.243 216.036 216.718C217.099 215.667 217.099 214.039 216.036 212.988L202.264 199.382L208.804 192.921L221.3 205.266C221.831 205.791 222.523 206.054 223.161 206.054C223.799 206.054 224.543 205.791 225.022 205.266C226.085 204.215 226.085 202.587 225.022 201.536L212.739 189.454Z" fill="#ED2024"/>
<path d="M163.077 65.6388C163.609 66.1641 164.3 66.4268 164.938 66.4268C165.576 66.4268 166.32 66.1641 166.799 65.6388L175.998 56.551C177.061 55.5004 177.061 53.8719 175.998 52.8213C174.934 51.7707 173.286 51.7707 172.222 52.8213L164.885 60.0706L157.76 53.0314C156.696 51.9808 155.048 51.9808 153.985 53.0314C152.921 54.082 152.921 55.7105 153.985 56.7611L163.077 65.6388Z" fill="#ED2024"/>
<path d="M167.065 101.78C166.055 100.782 164.3 100.782 163.29 101.78L154.091 110.868C153.028 111.919 153.028 113.547 154.091 114.598C154.623 115.123 155.314 115.386 155.952 115.386C156.59 115.386 157.334 115.123 157.813 114.598L165.151 107.348L172.276 114.387C173.339 115.438 174.987 115.438 176.051 114.387C177.114 113.337 177.114 111.708 176.051 110.658L167.065 101.78Z" fill="#ED2024"/>
<path d="M192.534 94.5308C193.066 95.0562 193.757 95.3188 194.395 95.3188C195.033 95.3188 195.777 95.0562 196.256 94.5308C197.319 93.4802 197.319 91.8518 196.256 90.8012L188.918 83.5519L196.043 76.5128C197.107 75.4621 197.107 73.8337 196.043 72.7831C194.98 71.7325 193.332 71.7325 192.268 72.7831L183.282 81.6608C182.219 82.7114 182.219 84.3399 183.282 85.3905L192.534 94.5308Z" fill="#ED2024"/>
<path d="M137.608 72.8356C136.544 71.785 134.896 71.785 133.833 72.8356C132.769 73.8862 132.769 75.5146 133.833 76.5653L141.17 83.8145L134.045 90.8537C132.982 91.9043 132.982 93.5327 134.045 94.5833C134.577 95.1087 135.268 95.3713 135.906 95.3713C136.544 95.3713 137.289 95.1087 137.767 94.5833L146.753 85.7056C147.232 85.2329 147.551 84.5499 147.551 83.867C147.551 83.1841 147.285 82.5013 146.753 82.0285L137.608 72.8356Z" fill="#ED2024"/>
<path d="M165.576 100.624C166.267 100.624 166.959 100.362 167.437 99.8363L180.73 86.7036C181.793 85.653 181.793 84.0245 180.73 82.9739L167.437 69.8412C166.959 69.3684 166.267 69.0532 165.576 69.0532C164.885 69.0532 164.194 69.3159 163.715 69.8412L150.422 82.9739C149.359 84.0245 149.359 85.653 150.422 86.7036L163.715 99.8363C164.194 100.362 164.832 100.624 165.576 100.624ZM165.576 75.462L175.094 84.865L165.576 94.268L156.058 84.865L165.576 75.462Z" fill="#ED2024"/>
<path d="M329.291 93.06L321.953 85.8107L329.078 78.7716C330.142 77.7209 330.142 76.0925 329.078 75.0419C328.015 73.9913 326.367 73.9913 325.303 75.0419L316.317 83.9196C315.254 84.9702 315.254 86.5987 316.317 87.6493L325.516 96.7371C326.048 97.2624 326.739 97.5251 327.377 97.5251C328.015 97.5251 328.759 97.2624 329.238 96.7371C330.354 95.739 330.354 94.1106 329.291 93.06Z" fill="#ED2024"/>
<path d="M13.7714 84.1822L4.57275 75.0944C3.50932 74.0437 1.861 74.0437 0.797572 75.0944C-0.265857 76.145 -0.265857 77.7734 0.797572 78.8241L8.13524 86.0733L1.01026 93.1125C-0.0531714 94.1631 -0.0531714 95.7915 1.01026 96.8421C1.54197 97.3675 2.2332 97.6301 2.87126 97.6301C3.50932 97.6301 4.25372 97.3675 4.73226 96.8421L13.7182 87.9644C14.8348 86.8613 14.8348 85.1803 13.7714 84.1822Z" fill="#ED2024"/>
<path d="M163.981 -10.3734L156.643 -3.12415C155.58 -2.07354 155.58 -0.445078 156.643 0.605539L163.981 7.8548C164.513 8.38011 165.204 8.64276 165.842 8.64276C166.48 8.64276 167.224 8.38011 167.703 7.8548L175.041 0.605539C176.104 -0.445078 176.104 -2.07354 175.041 -3.12415L167.703 -10.3734C166.693 -11.424 164.991 -11.424 163.981 -10.3734ZM165.842 2.234L162.279 -1.28557L165.842 -4.80514L169.404 -1.28557L165.842 2.234Z" fill="#ED2024"/>
<path d="M165.842 176.689C166.533 176.689 167.224 176.426 167.703 175.901L175.041 168.652C176.104 167.601 176.104 165.973 175.041 164.922L167.703 157.673C166.639 156.622 164.991 156.622 163.928 157.673L156.59 164.922C155.527 165.973 155.527 167.601 156.59 168.652L163.928 175.901C164.459 176.479 165.151 176.689 165.842 176.689ZM165.842 163.294L169.404 166.813L165.842 170.333L162.279 166.813L165.842 163.294Z" fill="#ED2024"/>
<path d="M249.055 73.676L241.718 80.9253C241.239 81.3981 240.92 82.081 240.92 82.7639C240.92 83.4468 241.186 84.1297 241.718 84.6024L249.055 91.8517C249.587 92.377 250.278 92.6397 250.916 92.6397C251.554 92.6397 252.299 92.377 252.777 91.8517L260.115 84.6024C260.593 84.1297 260.913 83.4468 260.913 82.7639C260.913 82.081 260.647 81.3981 260.115 80.9253L252.777 73.676C251.767 72.6254 250.066 72.6254 249.055 73.676ZM250.916 86.336L247.354 82.8164L250.916 79.2968L254.479 82.8164L250.916 86.336Z" fill="#ED2024"/>
<path d="M82.6285 73.676C81.5651 72.6254 79.9167 72.6254 78.8533 73.676L71.5157 80.9253C70.4522 81.9759 70.4522 83.6044 71.5157 84.655L78.8533 91.9042C79.385 92.4295 80.0763 92.6922 80.7143 92.6922C81.3524 92.6922 82.0968 92.4295 82.5753 91.9042L89.913 84.655C90.9764 83.6044 90.9764 81.9759 89.913 80.9253L82.6285 73.676ZM80.7675 86.336L77.205 82.8164L80.7675 79.2968L84.33 82.8164L80.7675 86.336Z" fill="#ED2024"/>
</svg>
