<svg width="180" height="66" viewBox="0 0 180 66" fill="none" xmlns="http://www.w3.org/2000/svg">
<path d="M21.6533 17.9543C22.3639 17.2438 23.5169 17.2438 24.2274 17.9543C24.9385 18.6643 24.9385 19.8176 24.2274 20.5276L17.4832 27.2734C16.7714 27.9835 15.6196 27.9835 14.9083 27.2734C14.1976 26.5621 14.1976 25.4086 14.9083 24.6988L21.6533 17.9543L21.6533 17.9543Z" fill="#E9B138"/>
<path d="M23.5008 20.5276C22.7893 19.8176 22.7893 18.6643 23.5008 17.9542C24.2114 17.2434 25.364 17.2434 26.0744 17.9542L32.82 24.6985C33.5308 25.4085 33.5308 26.5618 32.82 27.2733C32.1091 27.9834 30.9564 27.9834 30.2458 27.2733L23.5008 20.5276Z" fill="#E9B138"/>
<path d="M22.2928 8.53695C22.2928 7.53131 23.1078 6.7168 24.1137 6.7168C25.1183 6.7168 25.9335 7.53131 25.9335 8.53695V53.2344C25.9335 54.2387 25.1183 55.0546 24.1137 55.0546C23.1078 55.0546 22.2928 54.2387 22.2928 53.2344V8.53695Z" fill="#AA3127"/>
<path d="M8.9153 34.8637C7.91071 34.8637 7.09512 34.0479 7.09512 33.0431C7.09512 32.0379 7.91074 31.2229 8.9153 31.2229H39.1247C40.1301 31.2229 40.9451 32.0379 40.9451 33.0431C40.9451 34.0479 40.1301 34.8637 39.1247 34.8637H8.9153Z" fill="#AA3127"/>
<path d="M45.0285 24.4424C45.7392 23.7318 46.8921 23.7318 47.6028 24.4424C48.3136 25.1531 48.3136 26.3064 47.6028 27.0164L41.53 33.0908L47.5867 39.1283C48.2973 39.8351 48.3 40.9845 47.5935 41.6953C46.8862 42.4066 45.737 42.4099 45.0262 41.7032L36.3838 33.0883L45.0285 24.4423V24.4424Z" fill="#AA3127"/>
<path d="M0.53287 27.0166C-0.177623 26.3066 -0.177623 25.1533 0.53287 24.4425C1.24364 23.7317 2.39619 23.7317 3.10752 24.4425L11.7524 33.0884L3.10923 41.7033C2.39845 42.4098 1.25 42.4068 0.542461 41.6952C-0.16403 40.9847 -0.161537 39.8352 0.549313 39.1282L6.60721 33.0908L0.53287 27.0166V27.0166Z" fill="#AA3127"/>
<path d="M25.4003 51.3659C24.6898 52.0772 23.5368 52.0772 22.8263 51.3659C22.1152 50.6558 22.1152 49.5039 22.8263 48.7925L35.3353 36.2834L45.648 46.5958C46.3587 47.307 46.3587 48.4594 45.648 49.1702C44.9372 49.8809 43.7847 49.8809 43.0734 49.1702L35.3353 41.4321L25.4003 51.3659V51.3659Z" fill="#AA3127"/>
<path d="M25.405 48.7922C26.1156 49.5036 26.1156 50.6559 25.405 51.3656C24.6942 52.0772 23.5415 52.0772 22.8306 51.3656L12.8961 41.4319L5.1574 49.1699C4.44683 49.881 3.29429 49.881 2.58301 49.1699C1.87223 48.4593 1.87223 47.3068 2.58301 46.5955L12.8961 36.2832L25.405 48.7923V48.7922Z" fill="#AA3127"/>
<path d="M9.72702 25.5442C9.01645 26.2555 7.86319 26.2555 7.15341 25.5442C6.44256 24.8336 6.44256 23.6809 7.15341 22.9703L24.1229 6L41.1091 22.9872C41.8199 23.698 41.8199 24.8505 41.1091 25.5614C40.3986 26.2729 39.2465 26.2729 38.535 25.5614L24.1229 11.1493L9.72702 25.5442Z" fill="#AA3127"/>
<path d="M29.5701 0.533171C30.2809 -0.177398 31.4332 -0.177398 32.1439 0.533171C32.8557 1.24443 32.8557 2.39649 32.1439 3.10774L25.3992 9.85224C24.6886 10.5628 23.5357 10.5628 22.8256 9.85224C22.114 9.14147 22.114 7.9887 22.8256 7.27787L29.5701 0.533171Z" fill="#AA3127"/>
<path d="M16.1258 3.10773C15.4153 2.39639 15.4153 1.24441 16.1258 0.53308C16.8369 -0.177693 17.9891 -0.177693 18.7007 0.53308L25.4455 7.27783C26.1555 7.98861 26.1555 9.14115 25.4455 9.85223C24.7341 10.5627 23.5814 10.5627 22.8708 9.85223L16.1258 3.10773H16.1258Z" fill="#AA3127"/>
<path d="M10.592 8.49605C9.88141 7.78477 9.88141 6.63202 10.592 5.92196C11.3025 5.21091 12.455 5.21091 13.1659 5.92196L19.911 12.6657C20.6221 13.3762 20.6221 14.5293 19.911 15.2403C19.2003 15.9509 18.0475 15.9509 17.3368 15.2403L10.592 8.49605Z" fill="#AA3127"/>
<path d="M35.1042 5.922C35.8148 5.21122 36.9673 5.21122 37.6778 5.922C38.3886 6.63206 38.3886 7.78483 37.6778 8.49608L30.9335 15.2404C30.2226 15.9509 29.0695 15.9509 28.3587 15.2404C27.6479 14.5296 27.6479 13.3763 28.3587 12.6658L35.1042 5.922H35.1042Z" fill="#AA3127"/>
<path d="M5.49469 13.7383C4.7844 13.0283 4.7844 11.8748 5.49469 11.1639C6.20524 10.4532 7.35849 10.4532 8.06855 11.1639L14.8138 17.909C15.5243 18.6198 15.5243 19.7725 14.8138 20.4833C14.103 21.1939 12.9502 21.1939 12.2397 20.4833L5.49469 13.7383Z" fill="#AA3127"/>
<path d="M40.2013 11.164C40.9121 10.4535 42.0636 10.4535 42.7752 11.164C43.485 11.8748 43.485 13.0284 42.7752 13.7383L36.0306 20.4834C35.3196 21.1939 34.1668 21.1939 33.4561 20.4834C32.745 19.7726 32.745 18.6198 33.4561 17.9092L40.2013 11.164Z" fill="#AA3127"/>
<path d="M0.543453 18.8361C-0.167805 18.1246 -0.167805 16.9721 0.543453 16.2616C1.2543 15.5505 2.40657 15.5505 3.11734 16.2616L9.86288 23.0058C10.5727 23.7171 10.5727 24.8689 9.86288 25.5804C9.15131 26.2912 7.99929 26.2912 7.28823 25.5804L0.543453 18.8361Z" fill="#AA3127"/>
<path d="M45.1527 16.2616C45.8628 15.5508 47.0163 15.5508 47.7271 16.2616C48.4378 16.9722 48.4378 18.1247 47.7271 18.8362L40.9818 25.5805C40.271 26.2912 39.1185 26.2912 38.4077 25.5805C37.6971 24.8692 37.6971 23.7171 38.4077 23.0059L45.1527 16.2616Z" fill="#AA3127"/>
<path d="M57.5934 33.4993C56.8463 33.4993 56.2401 33.0702 56.2401 32.5409C56.2401 32.0114 56.8463 31.5823 57.5934 31.5823H178.647C179.395 31.5823 180 32.0114 180 32.5409C180 33.0702 179.395 33.4993 178.647 33.4993H57.5934Z" fill="#AA3127"/>
<path d="M56.324 17.6586H59.0988V16.8978L58.3827 16.6293V14.9286H60.7816V16.6293L60.0655 16.8978V17.6586H62.8404V16.8978L62.169 16.6293V12.4223L62.8404 12.1537V11.3481L60.0655 11.3929V12.1537L60.7816 12.4222V13.8544H58.3827V12.4222L59.0988 12.1537V11.3481L56.324 11.3929V12.1537L56.9953 12.4222V16.6292L56.324 16.8977V17.6586V17.6586ZM63.1984 16.8978V17.6586H65.9017V16.8978L65.2035 16.6472L65.4273 16.0027H67.4144L67.6292 16.6561L66.9579 16.8978V17.6586H69.8043V16.8978L69.1778 16.6471L67.2532 11.3481L65.8211 11.375L63.8519 16.6471L63.1984 16.8978V16.8978ZM67.119 15.0449H65.7405L66.4476 12.9235L67.119 15.0449ZM75.6494 17.6586L76.1596 19.4041H77.0099L76.9652 16.7635L75.9358 16.6292V12.4222L76.6071 12.1537V11.3481L73.8323 11.3929V12.1537L74.5484 12.4222V16.5845H72.2211V12.4222L72.9372 12.1537V11.3481L70.1624 11.3928V12.1537L70.8337 12.4222V16.6292L70.1624 16.8977V17.6586H75.6494V17.6586ZM84.144 12.1358V11.3481L81.3691 11.3929V12.1358L82.0852 12.4044V12.6281L79.561 15.215V12.4044L80.2771 12.1358V11.3481L77.5023 11.3929V12.1358L78.1736 12.4044V16.6561L77.5023 16.8799V17.6586H80.2771V16.8978L79.561 16.6561V16.4234L82.0852 13.8365V16.6561L81.3691 16.8799V17.6586H84.144V16.8799L83.4726 16.6561V12.4044L84.144 12.1358ZM87.9034 11.2407C87.4484 11.2422 87.0382 11.3183 86.6756 11.469C86.3117 11.6196 86.0013 11.8375 85.7447 12.1239C85.4881 12.4103 85.2912 12.7579 85.1555 13.1667C85.0197 13.574 84.9511 14.0364 84.9496 14.5527C84.9511 15.2553 85.0585 15.8446 85.2718 16.3235C85.4851 16.8009 85.7969 17.1619 86.2086 17.4066C86.6219 17.6512 87.1262 17.7736 87.7244 17.775C88.1734 17.7735 88.5822 17.693 88.9477 17.5334C89.3147 17.3752 89.631 17.147 89.8951 16.8516C90.1591 16.5562 90.3635 16.2026 90.5067 15.7924C90.6499 15.3821 90.7215 14.9241 90.723 14.4184C90.7215 13.7501 90.6111 13.1802 90.3903 12.7072C90.1695 12.2343 89.8503 11.8718 89.4296 11.6212C89.0104 11.369 88.5016 11.2423 87.9034 11.2407L87.9034 11.2407ZM87.8587 12.3596C88.1571 12.3581 88.4062 12.4297 88.6046 12.5759C88.803 12.7221 88.9523 12.9504 89.0522 13.2607C89.1521 13.571 89.2014 13.9723 89.2014 14.4631C89.2014 14.8644 89.1686 15.206 89.1044 15.4851C89.0388 15.7655 88.9448 15.9923 88.8209 16.1638C88.6971 16.3354 88.5479 16.4622 88.3704 16.5398C88.1944 16.6188 87.9929 16.6576 87.7692 16.6561C87.4708 16.6576 87.2262 16.58 87.0352 16.4279C86.8428 16.2742 86.7011 16.0385 86.6086 15.7208C86.5161 15.4045 86.4713 14.9987 86.4713 14.5079C86.4713 14.1111 86.5011 13.7754 86.5623 13.4994C86.622 13.2249 86.7115 13.0041 86.8293 12.8355C86.9472 12.6684 87.0919 12.5461 87.2649 12.4715C87.4365 12.3954 87.6349 12.3581 87.8587 12.3596V12.3596ZM91.5286 17.6586H94.3035V16.8978L93.5874 16.6293V14.9286H95.9863V16.6293L95.2702 16.8978V17.6586H98.045V16.8978L97.3737 16.6293V12.4223L98.045 12.1537V11.3481L95.2702 11.3929V12.1537L95.9863 12.4222V13.8544H93.5874V12.4222L94.3035 12.1537V11.3481L91.5286 11.3929V12.1537L92.2 12.4222V16.6292L91.5286 16.8977V17.6586V17.6586ZM98.4031 16.8978V17.6586H101.106V16.8978L100.408 16.6472L100.632 16.0027H102.619L102.834 16.6561L102.163 16.8978V17.6586H105.009V16.8978L104.382 16.6471L102.458 11.3481L101.026 11.375L99.0565 16.6471L98.4031 16.8978V16.8978ZM102.324 15.0449H100.945L101.652 12.9235L102.324 15.0449ZM111.472 12.1537V11.3481H106.307V12.1537L107.068 12.4222C107.062 12.7072 107.051 12.9996 107.036 13.2994C107.023 13.5993 106.999 13.8932 106.968 14.1826C106.935 14.472 106.887 14.7435 106.825 14.9972C106.763 15.2522 106.68 15.476 106.578 15.6715C106.475 15.8654 106.347 16.0191 106.192 16.1295C106.038 16.2398 105.852 16.2966 105.635 16.2981C105.555 16.2981 105.465 16.2891 105.367 16.2712L105.143 17.6497C105.3 17.6989 105.446 17.7347 105.583 17.7586C105.721 17.7809 105.85 17.7929 105.976 17.7929C106.258 17.7914 106.501 17.7332 106.707 17.6198C106.913 17.5065 107.087 17.3483 107.23 17.1439C107.373 16.941 107.491 16.7023 107.585 16.4293C107.678 16.1548 107.752 15.858 107.809 15.5357C107.866 15.2135 107.911 14.8778 107.945 14.5287C107.978 14.1781 108.005 13.8261 108.027 13.4695C108.049 13.113 108.073 12.7639 108.097 12.4222H109.413V16.6292L108.652 16.8977V17.6586H111.472V16.8977L110.8 16.6292V12.4222L111.472 12.1537L111.472 12.1537ZM115.007 13.756H114.157V12.4223L114.963 12.1537V11.3481L112.098 11.3929V12.1537L112.77 12.4222V16.6292L112.098 16.8978V17.6586H114.631C115.213 17.6601 115.697 17.587 116.08 17.4378C116.465 17.2902 116.751 17.0574 116.942 16.7426C117.133 16.4264 117.227 16.0191 117.227 15.5193C117.226 15.112 117.141 14.7779 116.971 14.5168C116.799 14.2572 116.55 14.0647 116.22 13.9409C115.889 13.8171 115.486 13.7545 115.007 13.7559V13.756ZM114.631 16.6114H114.157V14.7853H114.819C115.148 14.7838 115.4 14.8584 115.574 15.0061C115.75 15.1553 115.838 15.3866 115.84 15.6983C115.84 15.9355 115.795 16.1205 115.706 16.2533C115.616 16.3861 115.482 16.48 115.303 16.5338C115.124 16.5875 114.9 16.6128 114.631 16.6113V16.6114ZM117.899 17.6586H120.673V16.8978L119.957 16.6293V14.9286H122.356V16.6293L121.64 16.8978V17.6586H124.415V16.8978L123.744 16.6293V12.4223L124.415 12.1537V11.3481L121.64 11.3929V12.1537L122.356 12.4222V13.8544H119.957V12.4222L120.673 12.1537V11.3481L117.899 11.3929V12.1537L118.57 12.4222V16.6292L117.899 16.8977V17.6586V17.6586ZM124.773 16.8978V17.6586H127.476V16.8978L126.778 16.6472L127.002 16.0027H128.989L129.204 16.6561L128.532 16.8978V17.6586H131.379V16.8978L130.752 16.6471L128.828 11.3481L127.396 11.375L125.426 16.6471L124.773 16.8978V16.8978ZM128.694 15.0449H127.315L128.022 12.9235L128.694 15.0449ZM131.379 16.8978V17.6586H132.99L133.661 16.1101C133.751 15.9087 133.842 15.7535 133.936 15.6446C134.03 15.5357 134.131 15.4597 134.237 15.4179C134.343 15.3761 134.458 15.3567 134.583 15.3582H134.986V16.6293L134.342 16.8978V17.6586H137.045V16.8978L136.374 16.6293V12.4223L137.045 12.1537V11.3481H134.306C133.812 11.3466 133.393 11.4138 133.047 11.548C132.701 11.6823 132.437 11.8942 132.255 12.1836C132.071 12.473 131.98 12.8474 131.979 13.3084C131.98 13.5545 132.02 13.7724 132.096 13.9618C132.173 14.1513 132.275 14.3139 132.402 14.4512C132.531 14.5884 132.672 14.7018 132.829 14.7913C132.984 14.8793 133.142 14.9465 133.303 14.9912C133.126 15.0673 132.974 15.1672 132.848 15.2926C132.723 15.4179 132.617 15.5686 132.534 15.7431L132.077 16.674L131.379 16.8978V16.8978ZM134.986 14.4184H134.61C134.187 14.4184 133.87 14.3318 133.664 14.1587C133.458 13.9842 133.356 13.7187 133.357 13.3621C133.357 13.1667 133.391 12.9996 133.46 12.8594C133.529 12.7191 133.629 12.6117 133.761 12.5371C133.894 12.461 134.058 12.4222 134.252 12.4222H134.986V14.4183V14.4184ZM139.82 16.8978V17.6586H148.905V16.8978L148.234 16.6293V12.4223L148.905 12.1537V11.3481L146.175 11.3929V12.1537L146.846 12.4222V16.5845H145.056V12.4222L145.683 12.1537V11.3481L143.042 11.3929V12.1537L143.669 12.4222V16.5845H141.879V12.4222L142.505 12.1537V11.3481L139.82 11.3928V12.1537L140.491 12.4222V16.6292L139.82 16.8977L139.82 16.8978ZM154.983 16.6293L153.372 14.3557L154.688 12.3865L155.493 12.1359V11.3482L152.888 11.3929V12.1359L153.381 12.3328L152.387 13.944H151.59V12.4044L152.128 12.1359V11.3482L149.532 11.3929V12.1359L150.203 12.4044V16.6293L149.532 16.8978V17.6586H152.128V16.8978L151.59 16.6293V14.9286H152.298L153.461 16.6293L152.924 16.8978V17.6586H155.744V16.8978L154.983 16.6293H154.983ZM159.1 11.2407C158.645 11.2422 158.235 11.3183 157.873 11.469C157.509 11.6196 157.198 11.8375 156.942 12.1239C156.685 12.4103 156.488 12.7579 156.352 13.1667C156.217 13.574 156.148 14.0364 156.147 14.5527C156.148 15.2553 156.255 15.8446 156.469 16.3235C156.682 16.8009 156.994 17.1619 157.406 17.4066C157.819 17.6512 158.323 17.7736 158.921 17.775C159.37 17.7735 159.779 17.693 160.145 17.5334C160.512 17.3752 160.828 17.147 161.092 16.8516C161.356 16.5562 161.561 16.2026 161.704 15.7924C161.847 15.3821 161.919 14.9241 161.92 14.4184C161.919 13.7501 161.808 13.1802 161.587 12.7072C161.367 12.2343 161.047 11.8718 160.627 11.6212C160.207 11.369 159.699 11.2423 159.1 11.2407L159.1 11.2407ZM159.056 12.3596C159.354 12.3581 159.603 12.4297 159.802 12.5759C160 12.7221 160.149 12.9504 160.249 13.2607C160.349 13.571 160.398 13.9723 160.398 14.4631C160.398 14.8644 160.366 15.206 160.301 15.4851C160.236 15.7655 160.142 15.9923 160.018 16.1638C159.894 16.3354 159.745 16.4622 159.567 16.5398C159.391 16.6188 159.19 16.6576 158.966 16.6561C158.668 16.6576 158.423 16.58 158.232 16.4279C158.04 16.2742 157.898 16.0385 157.806 15.7208C157.713 15.4045 157.668 14.9987 157.668 14.5079C157.668 14.1111 157.698 13.7754 157.759 13.4994C157.819 13.2249 157.908 13.0041 158.026 12.8355C158.144 12.6684 158.289 12.5461 158.462 12.4715C158.633 12.3954 158.832 12.3581 159.056 12.3596V12.3596ZM168.83 12.1537V11.3481H163.665V12.1537L164.426 12.4222C164.42 12.7072 164.41 12.9996 164.395 13.2994C164.382 13.5993 164.358 13.8932 164.326 14.1826C164.294 14.472 164.246 14.7435 164.183 14.9972C164.122 15.2522 164.038 15.476 163.937 15.6715C163.834 15.8654 163.706 16.0191 163.551 16.1295C163.397 16.2398 163.21 16.2966 162.994 16.2981C162.914 16.2981 162.824 16.2891 162.726 16.2712L162.502 17.6497C162.658 17.6989 162.805 17.7347 162.942 17.7586C163.079 17.7809 163.209 17.7929 163.334 17.7929C163.616 17.7914 163.859 17.7332 164.065 17.6198C164.271 17.5065 164.446 17.3483 164.589 17.1439C164.732 16.941 164.85 16.7023 164.944 16.4293C165.036 16.1548 165.111 15.858 165.168 15.5357C165.224 15.2135 165.269 14.8778 165.304 14.5287C165.336 14.1781 165.363 13.8261 165.386 13.4695C165.408 13.113 165.432 12.7639 165.456 12.4222H166.771V16.6292L166.011 16.8977V17.6586H168.83V16.8977L168.159 16.6292V12.4222L168.83 12.1537L168.83 12.1537ZM169.188 16.8978V17.6586H171.892V16.8978L171.193 16.6471L171.417 16.0027H173.404L173.619 16.6561L172.948 16.8977V17.6586H175.794V16.8977L175.168 16.6471L173.243 11.3481L171.811 11.3749L169.842 16.6471L169.188 16.8977V16.8978ZM173.109 15.0449H171.73L172.438 12.9235L173.109 15.0449Z" fill="#AA3127"/>
<path d="M65.1663 41.0955V40.0036L61.5267 40.0643V41.0955L62.3759 41.4594V44.0557C62.2667 44.0901 62.1292 44.1265 61.9675 44.1649C61.8057 44.2033 61.6197 44.2377 61.4134 44.266C61.2072 44.2943 60.9807 44.3084 60.7381 44.3105C60.4712 44.3125 60.2467 44.27 60.0668 44.181C59.8868 44.0941 59.7533 43.9445 59.6624 43.7362C59.5714 43.5259 59.5248 43.2408 59.5248 42.8789V41.4594L60.3741 41.0955V40.0036L56.7952 40.0643V41.0955L57.6444 41.4594V43.1579C57.6464 43.6129 57.7151 44.0072 57.8466 44.3428C57.98 44.6785 58.1661 44.9555 58.4026 45.1739C58.6392 45.3943 58.9162 45.558 59.2317 45.6652C59.5451 45.7724 59.8868 45.8269 60.2528 45.8269C60.639 45.8229 60.9726 45.7926 61.2516 45.736C61.5286 45.6794 61.7612 45.6167 61.9452 45.5439C62.1292 45.4731 62.2727 45.4144 62.3759 45.366V47.1615L61.1627 47.5254V48.5567H65.1662V47.5254L64.2563 47.1615V41.4594L65.1662 41.0955H65.1663ZM70.2375 39.2999C70.4942 39.2999 70.743 39.2534 70.9836 39.1644C71.2242 39.0735 71.4426 38.938 71.6367 38.76C71.8288 38.5801 71.9845 38.3577 72.0997 38.0908C72.217 37.8259 72.2797 37.5165 72.2878 37.1647L71.2323 37.2496C71.206 37.4275 71.1474 37.5752 71.0584 37.6904C70.9695 37.8077 70.8603 37.8947 70.7308 37.9512C70.6014 38.0099 70.4659 38.0382 70.3224 38.0382C70.1869 38.0382 70.0555 38.0078 69.9281 37.9451C69.8027 37.8824 69.6895 37.7854 69.5925 37.654C69.4954 37.5205 69.4226 37.3507 69.3761 37.1404L68.3206 37.2496C68.3226 37.5954 68.3772 37.8966 68.4844 38.1534C68.5895 38.4102 68.7331 38.6225 68.9151 38.7924C69.0971 38.9622 69.3013 39.0896 69.5278 39.1745C69.7562 39.2574 69.9928 39.2999 70.2375 39.2999L70.2375 39.2999ZM65.6516 47.5254V48.5567H69.3154V47.5254L68.3691 47.1857L68.6724 46.3122H71.3657L71.6569 47.1979L70.747 47.5254V48.5567H74.605V47.5254L73.7558 47.1857L71.1474 40.0036L69.2062 40.04L66.5372 47.1857L65.6516 47.5254ZM70.9654 45.0141H69.097L70.0554 42.1388L70.9653 45.0141H70.9654ZM75.0903 47.5254V48.5567H78.9483C79.6054 48.5587 80.1696 48.4738 80.6407 48.3019C81.1098 48.13 81.4697 47.8591 81.7225 47.489C81.9732 47.1191 82.1006 46.6378 82.1026 46.0453C82.1026 45.5762 81.955 45.1759 81.6639 44.8463C81.3707 44.5167 80.94 44.27 80.3677 44.1042C80.847 43.9546 81.2109 43.714 81.4556 43.3844C81.7002 43.0568 81.8236 42.6281 81.8236 42.1024C81.8216 41.7445 81.7569 41.4331 81.6274 41.1703C81.5 40.9074 81.3181 40.689 81.0815 40.5152C80.8449 40.3433 80.5619 40.2139 80.2363 40.131C79.9108 40.046 79.5508 40.0036 79.1545 40.0036H77.8807L75.0903 40.0642V41.0954L76.0002 41.4594V47.1615L75.0903 47.5254H75.0903ZM78.5843 43.4976H77.8807V41.4594H78.9119C79.108 41.4594 79.2839 41.4898 79.4376 41.5545C79.5933 41.6192 79.7146 41.7183 79.8056 41.8537C79.8946 41.9872 79.9411 42.159 79.9431 42.3693C79.9431 42.7454 79.8258 43.0265 79.5953 43.2145C79.3648 43.4026 79.0292 43.4976 78.5843 43.4976ZM78.8876 47.1008H77.8806V44.7715H78.5843C79.1282 44.7695 79.5326 44.8705 79.7955 45.0768C80.0563 45.281 80.1877 45.6045 80.1857 46.0453C80.1857 46.381 80.0745 46.6398 79.8561 46.8238C79.6357 47.0058 79.3142 47.0988 78.8876 47.1009L78.8876 47.1008ZM82.7092 47.5254V48.5567H86.3731V47.5254L85.4268 47.1858L85.7301 46.3123H88.4234L88.7145 47.1979L87.8046 47.5254V48.5567H91.6626V47.5254L90.8134 47.1858L88.205 40.0036L86.2639 40.04L83.5948 47.1858L82.7092 47.5254ZM88.023 45.0141H86.1547L87.1131 42.1388L88.023 45.0141H88.023ZM92.1479 47.5254V48.5567H104.462V47.5254L103.552 47.1615V41.4594L104.462 41.0955V40.0036L100.762 40.0643V41.0955L101.672 41.4594V47.1008H99.2452V41.4594L100.094 41.0955V40.0036L96.5154 40.0643V41.0955L97.3647 41.4594V47.1008H94.9383V41.4594L95.7875 41.0955V40.0036L92.1479 40.0643V41.0955L93.0578 41.4594V47.1615L92.1479 47.5254H92.1479ZM109.339 47.5254V48.5567H113.525V47.5254L112.372 47.1615V41.4594H113.646L113.949 42.612H115.077V40.0036H107.798V42.612H108.914L109.218 41.4594H110.492V47.1615L109.339 47.5254H109.339ZM119.008 39.3C119.265 39.3 119.514 39.2535 119.754 39.1645C119.995 39.0735 120.213 38.938 120.407 38.7601C120.6 38.5801 120.755 38.3577 120.873 38.0908C120.988 37.8259 121.05 37.5165 121.059 37.1647L120.003 37.2496C119.977 37.4276 119.918 37.5752 119.829 37.6904C119.74 37.8077 119.631 37.8947 119.502 37.9513C119.372 38.0099 119.237 38.0382 119.093 38.0382C118.958 38.0382 118.826 38.0079 118.699 37.9452C118.571 37.8825 118.46 37.7854 118.363 37.654C118.264 37.5206 118.193 37.3507 118.147 37.1404L117.091 37.2496C117.093 37.5954 117.148 37.8966 117.255 38.1535C117.36 38.4102 117.504 38.6226 117.686 38.7924C117.868 38.9623 118.072 39.0896 118.299 39.1746C118.527 39.2575 118.764 39.2999 119.008 39.2999L119.008 39.3ZM115.684 47.5254V48.5567H122.017V46.106H120.925L120.646 47.1008H118.474V44.7957H120.925V43.4612H118.474V41.4594H120.476L120.779 42.3451H121.871V40.0036H118.474L115.684 40.0642V41.0954L116.594 41.4594V47.1615L115.684 47.5254L115.684 47.5254ZM123.109 47.5254V48.5567H126.809V47.5254L125.899 47.1615V45.5843H126.542C127.28 45.5843 127.907 45.4731 128.421 45.2507C128.934 45.0283 129.326 44.6926 129.593 44.2437C129.862 43.7948 129.998 43.2307 130 42.5513C129.998 42.0236 129.881 41.5686 129.648 41.1905C129.415 40.8103 129.08 40.5171 128.641 40.3129C128.202 40.1087 127.672 40.0056 127.052 40.0036H125.899L123.109 40.0642V41.0954L124.019 41.4594V47.1615L123.109 47.5254L123.109 47.5254ZM126.542 44.1649H125.899V41.4594H126.87C127.145 41.4614 127.375 41.5181 127.561 41.6293C127.745 41.7425 127.885 41.8982 127.98 42.0964C128.073 42.2966 128.119 42.5291 128.119 42.7939C128.117 43.2428 127.98 43.5846 127.709 43.815C127.438 44.0476 127.048 44.1629 126.542 44.1649H126.542ZM130.667 47.5254V48.5567H134.367V47.5254L133.457 47.1615V45.5843H134.1C134.838 45.5843 135.465 45.4731 135.979 45.2507C136.492 45.0283 136.885 44.6926 137.152 44.2437C137.421 43.7948 137.556 43.2307 137.558 42.5513C137.556 42.0236 137.439 41.5686 137.206 41.1905C136.974 40.8103 136.638 40.5171 136.199 40.3129C135.761 40.1087 135.231 40.0056 134.61 40.0036H133.457L130.667 40.0642V41.0954L131.577 41.4594V47.1615L130.667 47.5254L130.667 47.5254ZM134.1 44.1649H133.457V41.4594H134.428C134.703 41.4614 134.933 41.5181 135.12 41.6293C135.304 41.7425 135.443 41.8982 135.538 42.0964C135.631 42.2966 135.678 42.5291 135.678 42.7939C135.676 43.2428 135.538 43.5846 135.267 43.815C134.996 44.0476 134.606 44.1629 134.1 44.1649H134.1ZM147.227 41.0712V40.0036L143.466 40.0643V41.0712L144.437 41.4352V41.7385L141.016 45.2446V41.4352L141.986 41.0712V40.0036L138.225 40.0643V41.0712L139.135 41.4352V47.1979L138.225 47.5012V48.5567H141.986V47.5254L141.016 47.1979V46.8824L144.437 43.3763V47.1979L143.466 47.5012V48.5566H147.227V47.5012L146.317 47.1979V41.4352L147.227 41.0712V41.0712ZM148.077 48.5567H151.837V47.5254L150.867 47.1615V44.8564H154.118V47.1615L153.148 47.5254V48.5567H156.909V47.5254L155.999 47.1615V41.4594L156.909 41.0955V40.0036L153.148 40.0643V41.0955L154.118 41.4594V43.4006H150.867V41.4594L151.837 41.0955V40.0036L148.077 40.0643V41.0955L148.986 41.4594V47.1615L148.077 47.5254V48.5567ZM57.0985 62.6757H60.8594V61.6445L59.8889 61.2805V58.9754H63.1402V61.2805L62.1697 61.6445V62.6757H65.9306V61.6445L65.0207 61.2805V55.5784L65.9306 55.2145V54.1226L62.1697 54.1833V55.2145L63.1402 55.5784V57.5196H59.8889V55.5784L60.8594 55.2145V54.1226L57.0985 54.1833V55.2145L58.0084 55.5784V61.2805L57.0985 61.6445V62.6757ZM66.4159 61.6445V62.6757H70.0797V61.6445L69.1334 61.3048L69.4368 60.4313H72.13L72.4212 61.3169L71.5113 61.6445V62.6757H75.3693V61.6445L74.5201 61.3048L71.9117 54.1226L69.9705 54.159L67.3015 61.3048L66.4159 61.6445ZM71.7297 59.1332H69.8614L70.8198 56.2579L71.7297 59.1332H71.7297ZM83.2915 62.6757L83.983 65.0414H85.1356L85.0749 61.4625L83.6797 61.2805V55.5784L84.5896 55.2145V54.1226L80.8287 54.1833V55.2145L81.7992 55.5784V61.2198H78.6449V55.5784L79.6155 55.2145V54.1226L75.8546 54.1833V55.2145L76.7645 55.5784V61.2805L75.8546 61.6445V62.6757H83.2915L83.2915 62.6757ZM94.8048 55.1902V54.1226L91.0439 54.1833V55.1903L92.0144 55.5542V55.8575L88.5932 59.3637V55.5542L89.5637 55.1903V54.1227L85.8028 54.1833V55.1903L86.7127 55.5542V61.317L85.8028 61.6202V62.6757H89.5637V61.6445L88.5932 61.317V61.0015L92.0144 57.4954V61.317L91.0439 61.6202V62.6757H94.8048V61.6202L93.8949 61.317V55.5542L94.8048 55.1903V55.1902ZM98.5051 61.6445V62.6757H110.819V61.6445L109.909 61.2805V55.5784L110.819 55.2145V54.1226L107.119 54.1833V55.2145L108.029 55.5784V61.2198H105.602V55.5784L106.452 55.2145V54.1226L102.873 54.1833V55.2145L103.722 55.5784V61.2198H101.295V55.5784L102.145 55.2145V54.1226L98.505 54.1833V55.2145L99.4149 55.5784V61.2805L98.505 61.6445H98.5051ZM119.057 61.2805L116.873 58.199L118.656 55.5299L119.748 55.1902V54.1226L116.218 54.1833V55.1903L116.885 55.4572L115.538 57.6409H114.459V55.5542L115.187 55.1902V54.1226L111.668 54.1833V55.1903L112.578 55.5542V61.2805L111.668 61.6445V62.6757H115.187V61.6445L114.459 61.2805V58.9754H115.417L116.994 61.2805L116.266 61.6445V62.6757H120.088V61.6445L119.057 61.2805V61.2805ZM125.074 54.1833V55.2145L126.105 55.5784L124.65 59.0603L122.939 55.5784L123.91 55.2145V54.1226L120.161 54.1833V55.2145L121.071 55.5784L123.8 60.7952C123.62 61.0197 123.418 61.1794 123.198 61.2744C122.977 61.3695 122.727 61.4099 122.45 61.3957C122.173 61.3816 121.857 61.323 121.507 61.2198L121.119 62.6028C121.695 62.8536 122.213 62.9749 122.666 62.9628C123.121 62.9507 123.529 62.8252 123.889 62.5826C124.249 62.342 124.575 62.0023 124.87 61.5636C125.163 61.1268 125.438 60.6072 125.693 60.0066L127.598 55.5784L128.568 55.2145V54.1226L125.074 54.1833L125.074 54.1833ZM137.388 55.2145V54.1226H130.388V55.2145L131.419 55.5784C131.411 55.9646 131.397 56.3609 131.377 56.7674C131.359 57.1738 131.326 57.5721 131.284 57.9644C131.239 58.3567 131.175 58.7247 131.09 59.0685C131.007 59.4142 130.894 59.7175 130.756 59.9824C130.617 60.2452 130.443 60.4535 130.232 60.6031C130.024 60.7528 129.771 60.8296 129.478 60.8316C129.369 60.8316 129.248 60.8195 129.114 60.7952L128.811 62.6635C129.023 62.7303 129.221 62.7788 129.407 62.8112C129.593 62.8415 129.769 62.8577 129.939 62.8577C130.321 62.8556 130.651 62.7768 130.93 62.6231C131.209 62.4695 131.446 62.2551 131.64 61.9781C131.834 61.7031 131.994 61.3796 132.121 61.0095C132.246 60.6375 132.347 60.2351 132.424 59.7984C132.501 59.3616 132.562 58.9067 132.608 58.4335C132.653 57.9584 132.689 57.4812 132.719 56.9979C132.75 56.5146 132.782 56.0415 132.814 55.5784H134.598V61.2805L133.567 61.6445V62.6757H137.388V61.6445L136.478 61.2805V55.5784L137.388 55.2145H137.388ZM141.683 53.4189C141.94 53.4189 142.188 53.3724 142.429 53.2834C142.67 53.1924 142.888 53.057 143.082 52.8791C143.274 52.6991 143.43 52.4767 143.547 52.2098C143.662 51.9449 143.725 51.6355 143.733 51.2837L142.678 51.3686C142.651 51.5466 142.593 51.6942 142.504 51.8094C142.415 51.9267 142.306 52.0136 142.176 52.0702C142.047 52.1289 141.911 52.1572 141.768 52.1572C141.632 52.1572 141.501 52.1268 141.374 52.0642C141.246 52.0015 141.135 51.9044 141.038 51.773C140.939 51.6395 140.868 51.4697 140.822 51.2594L139.766 51.3686C139.768 51.7144 139.823 52.0156 139.93 52.2724C140.035 52.5292 140.179 52.7415 140.361 52.9114C140.543 53.0813 140.747 53.2086 140.973 53.2936C141.202 53.3765 141.438 53.4189 141.683 53.4189L141.683 53.4189ZM138.359 61.6444V62.6756H144.692V60.225H143.6L143.321 61.2198H141.149V58.9147H143.6V57.5802H141.149V55.5784H143.151L143.454 56.464H144.546V54.1225H141.149L138.359 54.1832V55.2144L139.269 55.5784V61.2804L138.359 61.6444L138.359 61.6444Z" fill="#AA3127"/>
<path d="M62.2765 22.0495V21.2439L59.5912 21.2886V22.0494L60.2177 22.318V24.2335C60.1372 24.2589 60.0357 24.2857 59.9164 24.3141C59.7971 24.3424 59.6598 24.3678 59.5077 24.3886C59.3555 24.4096 59.1884 24.42 59.0094 24.4214C58.8125 24.423 58.6469 24.3916 58.5141 24.326C58.3813 24.2618 58.2828 24.1514 58.2157 23.9978C58.1486 23.8426 58.1142 23.6323 58.1142 23.3653V22.318L58.7408 22.0494V21.2438L56.1003 21.2886V22.0494L56.7268 22.3179V23.5711C56.7283 23.9068 56.779 24.1977 56.876 24.4453C56.9745 24.693 57.1117 24.8974 57.2862 25.0585C57.4608 25.2211 57.6652 25.3419 57.8979 25.421C58.1291 25.5001 58.3812 25.5403 58.6513 25.5403C58.9362 25.5373 59.1824 25.515 59.3883 25.4732C59.5927 25.4314 59.7642 25.3852 59.9 25.3314C60.0357 25.2793 60.1416 25.236 60.2177 25.2002V26.5249L59.3226 26.7935V27.5543H62.2765V26.7935L61.6051 26.5249V22.3179L62.2765 22.0494L62.2765 22.0495ZM66.3582 21.2886V22.0495L67.119 22.318L66.0449 24.887L64.7828 22.318L65.4989 22.0495V21.2439L62.733 21.2886V22.0494L63.4043 22.318L65.4183 26.167C65.2856 26.3325 65.1364 26.4504 64.9738 26.5205C64.8112 26.5907 64.6262 26.6205 64.4218 26.61C64.2174 26.5996 63.9847 26.5563 63.7266 26.4802L63.4402 27.5007C63.8653 27.6857 64.2472 27.7751 64.5814 27.7662C64.9171 27.7573 65.2184 27.6648 65.484 27.4858C65.7496 27.3082 65.9897 27.0576 66.2075 26.7339C66.4238 26.4117 66.6268 26.0282 66.8147 25.5852L68.22 22.318L68.9361 22.0495V21.2439L66.3582 21.2886L66.3582 21.2886ZM69.3389 26.7936V27.5544H72.1854C72.6702 27.5559 73.0864 27.4932 73.434 27.3665C73.7802 27.2396 74.0457 27.0397 74.2322 26.7667C74.4172 26.4937 74.5111 26.1387 74.5126 25.7015C74.5126 25.3554 74.4037 25.06 74.1889 24.8169C73.9726 24.5737 73.6548 24.3917 73.2326 24.2694C73.5862 24.1589 73.8547 23.9814 74.0352 23.7383C74.2157 23.4966 74.3068 23.1803 74.3068 22.7924C74.3053 22.5284 74.2575 22.2986 74.1621 22.1047C74.0681 21.9108 73.9338 21.7497 73.7593 21.6213C73.5847 21.4945 73.3758 21.3991 73.1357 21.3379C72.8955 21.2752 72.6299 21.2439 72.3375 21.2439H71.3976L69.3389 21.2887V22.0495L70.0103 22.318V26.525L69.3389 26.7936H69.3389ZM71.9168 23.8218H71.3977V22.318H72.1585C72.3032 22.318 72.433 22.3404 72.5464 22.3882C72.6613 22.4359 72.7508 22.509 72.8179 22.6089C72.8836 22.7074 72.9179 22.8342 72.9194 22.9894C72.9194 23.2668 72.8328 23.4742 72.6627 23.613C72.4927 23.7517 72.2451 23.8218 71.9169 23.8218L71.9168 23.8218ZM72.1406 26.4803H71.3977V24.7617H71.9168C72.3182 24.7602 72.6165 24.8348 72.8105 24.9869C73.0029 25.1376 73.0999 25.3763 73.0984 25.7015C73.0984 25.9492 73.0163 26.1401 72.8552 26.2759C72.6926 26.4102 72.4554 26.4788 72.1406 26.4803V26.4803ZM74.9602 26.7936V27.5544H77.6635V26.7936L76.9652 26.5429L77.1891 25.8984H79.1762L79.391 26.5519L78.7196 26.7935V27.5544H81.5661V26.7935L80.9396 26.5429L79.015 21.2439L77.5829 21.2707L75.6136 26.5429L74.9602 26.7935V26.7936ZM78.8808 24.9407H77.5023L78.2094 22.8193L78.8808 24.9407ZM81.9242 26.7936V27.5544H91.0095V26.7936L90.3381 26.525V22.318L91.0095 22.0495V21.2439L88.2794 21.2886V22.0495L88.9508 22.318V26.4802H87.1605V22.318L87.7871 22.0495V21.2439L85.1465 21.2886V22.0494L85.7731 22.318V26.4802H83.9829V22.318L84.6094 22.0494V21.2438L81.9241 21.2886V22.0494L82.5955 22.3179V26.525L81.9241 26.7935L81.9242 26.7936ZM95.7894 22.3986L95.9953 23.2579H96.8725L96.9172 21.5572C96.9142 21.5542 96.8575 21.5333 96.7442 21.4915C96.6308 21.4498 96.4757 21.402 96.2802 21.3468C96.0848 21.2916 95.864 21.2439 95.6149 21.2021C95.3657 21.1603 95.1046 21.138 94.8316 21.1365C94.3722 21.138 93.9559 21.2141 93.586 21.3647C93.216 21.5169 92.8997 21.7362 92.6357 22.0256C92.3716 22.315 92.1687 22.6671 92.0285 23.0804C91.8883 23.4951 91.8166 23.9665 91.8152 24.4932C91.8167 25.1854 91.93 25.7672 92.1538 26.2371C92.3776 26.7071 92.7028 27.0621 93.1294 27.3023C93.5561 27.541 94.0723 27.6603 94.6795 27.6618C94.9137 27.6603 95.1345 27.6365 95.3419 27.5903C95.5477 27.5425 95.7387 27.4828 95.9118 27.4082C96.0863 27.3351 96.2415 27.2561 96.3787 27.174C96.516 27.0905 96.6323 27.0129 96.7293 26.9398C96.8248 26.8652 96.8979 26.8055 96.9486 26.7578C96.9993 26.7116 97.0247 26.6877 97.0247 26.6862L96.5324 25.8806C96.5309 25.8821 96.5011 25.9045 96.4414 25.9462C96.3817 25.988 96.2981 26.0387 96.1922 26.1014C96.0848 26.1625 95.9595 26.2252 95.8178 26.2864C95.6745 26.3491 95.5194 26.3998 95.3523 26.4415C95.1853 26.4833 95.0122 26.5057 94.8317 26.5072C94.5169 26.5087 94.2469 26.4386 94.0201 26.2953C93.7933 26.1536 93.6173 25.9298 93.495 25.627C93.3727 25.3227 93.3115 24.9303 93.31 24.4484C93.3115 23.9502 93.3681 23.5399 93.4845 23.2147C93.5994 22.891 93.7665 22.6493 93.9858 22.4911C94.2066 22.333 94.4736 22.2539 94.7869 22.2554C94.9823 22.2569 95.1553 22.2688 95.3061 22.2927C95.4552 22.3151 95.5731 22.3389 95.6596 22.3613C95.7447 22.3837 95.7879 22.3971 95.7894 22.3986L95.7894 22.3986ZM103.058 26.525L101.446 24.2515L102.762 22.2822L103.568 22.0316V21.2439L100.963 21.2887V22.0316L101.455 22.2285L100.462 23.8397H99.6652V22.3001L100.202 22.0316V21.2439L97.6064 21.2887V22.0316L98.2778 22.3001V26.525L97.6064 26.7936V27.5544H100.202V26.7936L99.6652 26.525V24.8243H100.372L101.536 26.525L100.999 26.7936V27.5544H103.819V26.7936L103.058 26.525H103.058ZM107.175 21.1365C106.72 21.138 106.31 21.2141 105.947 21.3647C105.583 21.5154 105.273 21.7332 105.016 22.0197C104.76 22.3061 104.563 22.6537 104.427 23.0625C104.291 23.4698 104.223 23.9322 104.221 24.4484C104.223 25.1511 104.33 25.7404 104.544 26.2192C104.757 26.6966 105.069 27.0576 105.48 27.3023C105.894 27.547 106.398 27.6693 106.996 27.6708C107.445 27.6693 107.854 27.5887 108.219 27.4291C108.586 27.271 108.903 27.0428 109.167 26.7474C109.431 26.452 109.635 26.0984 109.778 25.6881C109.922 25.2779 109.993 24.8199 109.995 24.3142C109.993 23.6458 109.883 23.0759 109.662 22.603C109.441 22.1301 109.122 21.7676 108.701 21.5169C108.282 21.2648 107.773 21.138 107.175 21.1365L107.175 21.1365ZM107.13 22.2554C107.429 22.2539 107.678 22.3255 107.876 22.4717C108.075 22.6179 108.224 22.8462 108.324 23.1564C108.424 23.4667 108.473 23.8681 108.473 24.3589C108.473 24.7602 108.44 25.1018 108.376 25.3808C108.31 25.6613 108.217 25.888 108.093 26.0596C107.969 26.2312 107.82 26.358 107.642 26.4355C107.466 26.5146 107.265 26.5534 107.041 26.5519C106.743 26.5534 106.498 26.4758 106.307 26.3237C106.115 26.17 105.973 25.9343 105.88 25.6165C105.788 25.3003 105.743 24.8945 105.743 24.4037C105.743 24.0068 105.773 23.6712 105.834 23.3951C105.894 23.1207 105.983 22.8999 106.101 22.7313C106.219 22.5642 106.364 22.4418 106.537 22.3673C106.708 22.2912 106.907 22.2539 107.13 22.2554V22.2554ZM114.112 20.7068C114.373 20.7068 114.616 20.674 114.842 20.6084C115.066 20.5427 115.264 20.4428 115.433 20.31C115.603 20.1757 115.734 20.0071 115.829 19.8043C115.925 19.6014 115.973 19.3612 115.974 19.0867L115.088 19.1493C115.092 19.3463 115.057 19.5074 114.981 19.6327C114.904 19.758 114.798 19.8505 114.666 19.9102C114.531 19.9698 114.379 19.9997 114.211 19.9997C113.932 19.9967 113.709 19.9162 113.545 19.758C113.381 19.5984 113.286 19.3746 113.262 19.0867L112.268 19.1493C112.274 19.4194 112.327 19.6536 112.424 19.849C112.52 20.0459 112.653 20.2071 112.822 20.3339C112.989 20.4606 113.184 20.5546 113.404 20.6158C113.624 20.6769 113.86 20.7068 114.112 20.7068ZM117.442 22.0316V21.2439L114.667 21.2886V22.0316L115.383 22.3001V22.5239L112.859 25.1108V22.3001L113.575 22.0316V21.2439L110.8 21.2886V22.0316L111.472 22.3001V26.5519L110.8 26.7757V27.5544H113.575V26.7936L112.859 26.5519V26.3192L115.383 23.7323V26.5519L114.667 26.7757V27.5544H117.442V26.7757L116.771 26.5519V22.3001L117.442 22.0316ZM120.172 26.7936V27.5544H123.019C123.503 27.5559 123.92 27.4932 124.267 27.3665C124.613 27.2396 124.879 27.0397 125.065 26.7667C125.25 26.4937 125.344 26.1387 125.346 25.7015C125.346 25.3554 125.237 25.06 125.022 24.8169C124.806 24.5737 124.488 24.3917 124.066 24.2694C124.419 24.1589 124.688 23.9814 124.869 23.7383C125.049 23.4966 125.14 23.1803 125.14 22.7924C125.139 22.5284 125.091 22.2986 124.995 22.1047C124.901 21.9108 124.767 21.7497 124.593 21.6213C124.418 21.4945 124.209 21.3991 123.969 21.3379C123.729 21.2752 123.463 21.2439 123.171 21.2439H122.231L120.172 21.2887V22.0495L120.844 22.318V26.525L120.172 26.7936H120.172ZM122.75 23.8218H122.231V22.318H122.992C123.137 22.318 123.266 22.3404 123.38 22.3882C123.495 22.4359 123.584 22.509 123.651 22.6089C123.717 22.7074 123.751 22.8342 123.753 22.9894C123.753 23.2668 123.666 23.4742 123.496 23.613C123.326 23.7517 123.078 23.8218 122.75 23.8218V23.8218ZM122.974 26.4803H122.231V24.7617H122.75C123.151 24.7602 123.45 24.8348 123.644 24.9869C123.836 25.1376 123.933 25.3763 123.932 25.7015C123.932 25.9492 123.85 26.1401 123.688 26.2759C123.526 26.4102 123.289 26.4788 122.974 26.4803V26.4803ZM128.971 23.598H128.121V22.318L128.926 22.0495V21.2439L126.062 21.2886V22.0495L126.733 22.318V26.525L126.062 26.7935V27.5544H128.595C129.162 27.5559 129.635 27.4828 130.012 27.3336C130.39 27.1829 130.673 26.9487 130.863 26.6294C131.052 26.3102 131.146 25.8969 131.146 25.3882C131.145 24.966 131.06 24.6229 130.891 24.3589C130.721 24.0948 130.475 23.9023 130.151 23.78C129.829 23.6577 129.435 23.5965 128.971 23.598L128.971 23.598ZM134.073 22.0495V21.2439L131.343 21.2886V22.0494L132.014 22.318V26.525L131.343 26.7935V27.5544H134.073V26.7935L133.402 26.525V22.318L134.073 22.0494V22.0495ZM128.595 26.5071H128.121V24.6274H128.783C128.988 24.6274 129.162 24.6602 129.307 24.7258C129.451 24.7915 129.563 24.8944 129.641 25.0331C129.719 25.1719 129.759 25.3494 129.759 25.5672C129.759 25.8134 129.714 26.0043 129.626 26.1416C129.538 26.2789 129.408 26.3743 129.235 26.428C129.062 26.4832 128.849 26.5086 128.595 26.5071L128.595 26.5071ZM134.789 26.7936V27.5544H143.875V26.7936L143.203 26.525V22.318L143.875 22.0495V21.2439L141.145 21.2886V22.0495L141.816 22.318V26.4802H140.026V22.318L140.652 22.0495V21.2439L138.012 21.2886V22.0494L138.638 22.318V26.4802H136.848V22.318L137.475 22.0494V21.2438L134.789 21.2886V22.0494L135.461 22.3179V26.525L134.789 26.7935L134.789 26.7936ZM151.143 22.0316V21.2439L148.368 21.2886V22.0316L149.084 22.3001V22.5239L146.56 25.1108V22.3001L147.276 22.0316V21.2439L144.501 21.2886V22.0316L145.173 22.3001V26.5519L144.501 26.7757V27.5544H147.276V26.7936L146.56 26.5519V26.3192L149.084 23.7323V26.5519L148.368 26.7757V27.5544H151.143V26.7757L150.472 26.5519V22.3001L151.143 22.0316ZM151.77 26.7936V27.5544H154.616C155.101 27.5559 155.517 27.4932 155.865 27.3665C156.211 27.2396 156.476 27.0397 156.663 26.7667C156.848 26.4937 156.942 26.1387 156.943 25.7015C156.943 25.3554 156.834 25.06 156.62 24.8169C156.403 24.5737 156.085 24.3917 155.663 24.2694C156.017 24.1589 156.285 23.9814 156.466 23.7383C156.646 23.4966 156.737 23.1803 156.737 22.7924C156.736 22.5284 156.688 22.2986 156.593 22.1047C156.499 21.9108 156.364 21.7497 156.19 21.6213C156.015 21.4945 155.806 21.3991 155.566 21.3379C155.326 21.2752 155.061 21.2439 154.768 21.2439H153.828L151.77 21.2887V22.0495L152.441 22.318V26.525L151.77 26.7936H151.77ZM154.347 23.8218H153.828V22.318H154.589C154.734 22.318 154.864 22.3404 154.977 22.3882C155.092 22.4359 155.181 22.509 155.249 22.6089C155.314 22.7074 155.349 22.8342 155.35 22.9894C155.35 23.2668 155.264 23.4742 155.093 23.613C154.923 23.7517 154.676 23.8218 154.347 23.8218V23.8218ZM154.571 26.4803H153.828V24.7617H154.347C154.749 24.7602 155.047 24.8348 155.241 24.9869C155.434 25.1376 155.531 25.3763 155.529 25.7015C155.529 25.9492 155.447 26.1401 155.286 26.2759C155.123 26.4102 154.886 26.4788 154.571 26.4803V26.4803ZM163.111 26.525L161.499 24.2514L162.815 22.2822L163.621 22.0316V21.2439L161.016 21.2886V22.0316L161.508 22.2285L160.515 23.8397H159.718V22.3001L160.255 22.0316V21.2439L157.659 21.2886V22.0316L158.331 22.3001V26.525L157.659 26.7935V27.5544H160.255V26.7935L159.718 26.525V24.8243H160.425L161.589 26.525L161.052 26.7935V27.5544H163.871V26.7935L163.111 26.525H163.111ZM170.737 22.0316V21.2439L167.962 21.2886V22.0316L168.678 22.3001V22.5239L166.154 25.1108V22.3001L166.87 22.0316V21.2439L164.095 21.2886V22.0316L164.767 22.3001V26.5519L164.095 26.7757V27.5544H166.87V26.7936L166.154 26.5519V26.3192L168.678 23.7323V26.5519L167.962 26.7757V27.5544H170.737V26.7757L170.066 26.5519V22.3001L170.737 22.0316Z" fill="#AA3127"/>
</svg>
