<svg width="179" height="45" viewBox="0 0 179 45" fill="none" xmlns="http://www.w3.org/2000/svg">
<g clip-path="url(#clip0_358_38)">
<path fill-rule="evenodd" clip-rule="evenodd" d="M0 27.2501C0 36.0877 4.91182 45 15.9109 45C26.9002 45 31.8217 36.0877 31.8217 27.2501C31.8217 21.2136 29.8035 14.262 26.4348 8.64716C23.1587 3.22508 19.2225 0 15.9109 0C12.5899 0 8.65195 3.22508 5.40436 8.64716C2.01974 14.262 0 21.2136 0 27.2501Z" fill="#E30611"/>
<path fill-rule="evenodd" clip-rule="evenodd" d="M112.965 13.2594H101.827V2.4115H136.036V13.2594H124.898V42.5899H112.965V13.2594Z" fill="#E30611"/>
<path fill-rule="evenodd" clip-rule="evenodd" d="M161.492 13.2599H178.995V2.4115H161.494C145.412 2.4115 136.826 10.4874 136.826 22.5009C136.826 34.5144 145.412 42.5903 161.494 42.5903H178.995V31.7419H161.492C154.051 31.7419 149.157 29.055 149.157 22.5009C149.157 15.9468 154.051 13.2599 161.492 13.2599Z" fill="#E30611"/>
<path fill-rule="evenodd" clip-rule="evenodd" d="M71.1975 26.3936L77.5592 2.4115H98.6465V42.5903H86.7128V9.88836L78.0384 42.5903H64.3561L55.6873 9.90916L55.6867 42.5903H43.754V2.4115H64.8353L71.1975 26.3936Z" fill="#E30611"/>
</g>
<defs>
<clipPath id="clip0_358_38">
<rect width="179" height="45" fill="white"/>
</clipPath>
</defs>
</svg>
