<svg width="83" height="24" viewBox="0 0 83 24" fill="none" xmlns="http://www.w3.org/2000/svg">
<path d="M21.7114 17.0461C21.7114 16.646 21.7028 16.3213 21.6797 15.9996H22.2916L22.3234 16.6228H22.3479C22.4632 16.4026 22.6376 16.2192 22.8514 16.0934C23.0651 15.9676 23.3097 15.9045 23.5573 15.9111C23.7971 15.9089 24.0314 15.9827 24.227 16.1219C24.4226 16.2611 24.5696 16.4587 24.647 16.6866H24.6628C24.7702 16.4897 24.9177 16.3178 25.0958 16.1822C25.3396 15.9951 25.6407 15.8993 25.9473 15.9111C26.4568 15.9111 27.2116 16.2474 27.2116 17.5882V19.8652H26.5246V17.6838C26.5246 16.9417 26.2533 16.4938 25.689 16.4938C25.5022 16.5017 25.3223 16.5673 25.174 16.6818C25.0258 16.7962 24.9163 16.9538 24.8606 17.133C24.8251 17.2466 24.8066 17.3648 24.8057 17.4838V19.8725H24.1216V17.5534C24.1216 16.9388 23.8503 16.4909 23.3178 16.4909C22.8848 16.4909 22.5629 16.8417 22.4518 17.1939C22.4134 17.3042 22.3949 17.4206 22.397 17.5374V19.8696H21.7129L21.7114 17.0461Z" fill="#FCC51B"/>
<path d="M30.4816 19.8645L30.4253 19.3775H30.4022C30.266 19.5613 30.0881 19.7098 29.8833 19.8106C29.6785 19.9115 29.4526 19.9618 29.2245 19.9573C28.4452 19.9573 28.0469 19.4065 28.0469 18.847C28.0469 17.9121 28.8753 17.3976 30.356 17.4092V17.3294C30.356 17.0091 30.2694 16.4337 29.4814 16.4337C29.1272 16.4349 28.7804 16.5353 28.4798 16.7236L28.3196 16.2597C28.7015 16.0293 29.1399 15.9103 29.5854 15.9162C30.763 15.9162 31.0488 16.7236 31.0488 17.4976V18.947C31.0437 19.257 31.0649 19.5669 31.1123 19.8732L30.4816 19.8645ZM30.3777 17.8918C29.6142 17.8759 28.7468 18.0121 28.7468 18.7615C28.7398 18.8508 28.752 18.9406 28.7826 19.0247C28.8132 19.1089 28.8616 19.1854 28.9243 19.2491C28.987 19.3128 29.0627 19.3622 29.1461 19.3938C29.2296 19.4255 29.3188 19.4387 29.4078 19.4326C29.6114 19.4379 29.8114 19.378 29.9788 19.2615C30.1462 19.145 30.2722 18.978 30.3387 18.7847C30.363 18.7127 30.3761 18.6374 30.3777 18.5615V17.8918Z" fill="#FCC51B"/>
<path d="M32.1841 17.2047C32.1841 16.7495 32.1754 16.3582 32.1523 15.9987H32.7614L32.7859 16.7568H32.8177C32.9923 16.2379 33.4137 15.9103 33.8828 15.9103C33.95 15.9089 34.0171 15.9172 34.0819 15.9349V16.5973C34.0037 16.5806 33.9238 16.5728 33.8438 16.5742C33.3502 16.5742 33.001 16.9496 32.9043 17.4757C32.8847 17.5838 32.8741 17.6934 32.8725 17.8033V19.8644H32.1841V17.2047Z" fill="#FCC51B"/>
<path d="M35.5053 17.7721H35.5211C35.6164 17.6373 35.752 17.4691 35.8632 17.3372L36.9918 16.0037H37.8361L36.3481 17.5981L38.0424 19.8752H37.1909L35.8632 18.0228L35.5053 18.4084V19.8578H34.8125V14.1934H35.5053V17.7721Z" fill="#FCC51B"/>
<path d="M38.9338 18.0597C38.9497 19.0105 39.5544 19.4019 40.2544 19.4019C40.6201 19.4133 40.984 19.3451 41.3209 19.2019L41.4407 19.7048C41.0354 19.8754 40.5985 19.9575 40.1591 19.9454C38.9743 19.9454 38.2656 19.1613 38.2656 17.9959C38.2656 16.8306 38.9497 15.9102 40.0711 15.9102C41.3282 15.9102 41.6587 17.0204 41.6587 17.7321C41.6576 17.8417 41.6494 17.9512 41.6341 18.0597H38.9338ZM40.9861 17.5567C40.9948 17.1089 40.8043 16.4131 40.0163 16.4131C39.3076 16.4131 38.9973 17.0683 38.9425 17.5567H40.9861Z" fill="#FCC51B"/>
<path d="M43.3739 14.8887V15.999H44.3769V16.5338H43.3739V18.6196C43.3739 19.0979 43.5096 19.3704 43.8992 19.3704C44.0359 19.372 44.1722 19.356 44.3048 19.3225L44.3365 19.8487C44.1375 19.9195 43.927 19.9524 43.7159 19.9458C43.5762 19.9543 43.4363 19.9321 43.3059 19.8808C43.1756 19.8295 43.0579 19.7503 42.9611 19.6487C42.762 19.4414 42.6898 19.0979 42.6898 18.6427V16.5338H42.0938V15.999H42.6898V15.0742L43.3739 14.8887Z" fill="#FCC51B"/>
<path d="M45.9441 14.9118C45.9441 15.0271 45.8984 15.1377 45.8172 15.2193C45.736 15.3008 45.6259 15.3466 45.5111 15.3466C45.3963 15.3466 45.2861 15.3008 45.2049 15.2193C45.1237 15.1377 45.0781 15.0271 45.0781 14.9118C45.0781 14.7965 45.1237 14.6858 45.2049 14.6043C45.2861 14.5228 45.3963 14.4769 45.5111 14.4769C45.5686 14.4745 45.626 14.484 45.6796 14.505C45.7333 14.526 45.782 14.5579 45.8227 14.5988C45.8634 14.6397 45.8952 14.6886 45.9161 14.7425C45.937 14.7964 45.9465 14.854 45.9441 14.9118V14.9118ZM45.1633 19.8645V15.9989H45.8632V19.8645H45.1633Z" fill="#FCC51B"/>
<path d="M47.0278 17.0451C47.0278 16.6451 47.0278 16.3204 46.9961 15.9986H47.6167L47.6571 16.6364H47.6715C47.7983 16.4107 47.984 16.224 48.2085 16.0963C48.433 15.9686 48.688 15.9048 48.9459 15.9116C49.4785 15.9116 50.3054 16.232 50.3054 17.5582V19.8657H49.6055V17.6365C49.6055 17.0132 49.3745 16.4929 48.715 16.4929C48.5017 16.4967 48.2954 16.5692 48.1262 16.6997C47.9571 16.8301 47.8341 17.0117 47.7754 17.2176C47.7418 17.3239 47.7257 17.4351 47.7278 17.5466V19.8657H47.0278V17.0451Z" fill="#FCC51B"/>
<path d="M54.7606 15.999C54.7447 16.2773 54.7288 16.5904 54.7288 17.0615V19.3067C54.7288 20.1938 54.5542 20.7359 54.179 21.0721C53.8037 21.4084 53.2654 21.5345 52.779 21.5345C52.3186 21.5345 51.8092 21.4229 51.4989 21.2156L51.6735 20.6808C52.0157 20.8833 52.4064 20.9881 52.8036 20.9837C53.5252 20.9837 54.0447 20.6083 54.0447 19.6343V19.1994H54.0289C53.8998 19.4063 53.7183 19.5752 53.5031 19.6887C53.2878 19.8023 53.0465 19.8565 52.8036 19.8459C51.8482 19.8459 51.1641 19.0313 51.1641 17.9616C51.1641 16.6571 52.0156 15.9092 52.8959 15.9092C53.5642 15.9092 53.9293 16.2599 54.0967 16.5803H54.1227L54.1544 16.0005L54.7606 15.999ZM54.039 17.5253C54.044 17.3884 54.0217 17.2518 53.9733 17.1237C53.9249 16.9956 53.8515 16.8785 53.7573 16.7793C53.6631 16.6802 53.5502 16.601 53.425 16.5464C53.2999 16.4918 53.1651 16.4629 53.0287 16.4614C52.3605 16.4614 51.8828 17.0296 51.8828 17.9239C51.8828 18.6834 52.2638 19.3139 53.0201 19.3139C53.2376 19.3126 53.4491 19.2415 53.6238 19.1112C53.7985 18.9809 53.9272 18.798 53.9913 18.5892C54.0286 18.4676 54.0471 18.341 54.0462 18.2138L54.039 17.5253Z" fill="#FCC51B"/>
<path d="M0 13.4625V5.14844H1.50529V13.4625H0Z" fill="#1D1E1C"/>
<path d="M4.00143 7.39951C4.00143 6.53998 3.98411 5.83555 3.93359 5.14851H5.24982L5.31909 6.48925H5.36961C5.83144 5.69785 6.60068 4.96008 7.96742 4.96008C8.483 4.95498 8.98707 5.11314 9.40807 5.4121C9.82906 5.71106 10.1456 6.13562 10.3127 6.6255H10.3473C10.5755 6.20387 10.8897 5.8354 11.2695 5.54421C11.7935 5.14238 12.4409 4.93728 13.0995 4.96443C14.195 4.96443 15.82 5.68915 15.82 8.57066V13.4626H14.3494V8.75619C14.3494 7.1618 13.7721 6.19646 12.5526 6.19646C11.6982 6.19646 11.0314 6.83277 10.7745 7.57054C10.6957 7.81447 10.6553 8.06926 10.6547 8.3257V13.4626H9.18406V8.48079C9.18406 7.1589 8.60677 6.19646 7.45219 6.19646C6.5112 6.19646 5.82711 6.95163 5.58753 7.70824C5.50382 7.94494 5.46324 8.19486 5.46775 8.44601V13.4626H4.00143V7.39951Z" fill="#1D1E1C"/>
<path d="M18.2671 7.86321C18.2671 6.79786 18.2324 5.93834 18.1992 5.14839H19.5501L19.6179 6.57465H19.6525C20.2674 5.56003 21.2401 4.95996 22.5939 4.95996C24.5956 4.95996 26.0995 6.66017 26.0995 9.18511C26.0995 12.1739 24.2868 13.6509 22.337 13.6509C21.243 13.6509 20.2847 13.1696 19.7897 12.3464H19.755V16.8643H18.2671V7.86321ZM19.755 10.078C19.7594 10.2859 19.7821 10.493 19.8229 10.6969C19.9483 11.2025 20.2387 11.6514 20.6479 11.9719C21.057 12.2924 21.5612 12.4661 22.0801 12.4652C23.6676 12.4652 24.5942 11.1607 24.5942 9.25323C24.5942 7.58781 23.721 6.163 22.1306 6.163C21.1044 6.163 20.1476 6.90077 19.856 8.03424C19.796 8.23539 19.7616 8.44334 19.7536 8.65316L19.755 10.078Z" fill="#1D1E1C"/>
<path d="M34.9252 11.1941C34.9252 12.0536 34.9425 12.8088 34.993 13.4625H33.6595L33.5743 12.1044H33.5397C33.2604 12.5833 32.8592 12.979 32.3773 13.2508C31.8954 13.5226 31.3502 13.6607 30.7976 13.6509C29.4987 13.6509 27.9414 12.9262 27.9414 10.0099V5.14844H29.4467V9.75189C29.4467 11.3318 29.9258 12.3971 31.294 12.3971C31.574 12.3973 31.8512 12.3418 32.1096 12.2338C32.3681 12.1258 32.6026 11.9674 32.7998 11.7678C32.9969 11.5682 33.1527 11.3313 33.2581 11.0709C33.3636 10.8105 33.4166 10.5316 33.4141 10.2505V5.14844H34.9252V11.1941Z" fill="#1D1E1C"/>
<path d="M37.4258 1.2666H38.9296V13.4623H37.4258V1.2666Z" fill="#1D1E1C"/>
<path d="M41.2581 11.9161C41.8545 12.2902 42.5395 12.4979 43.2425 12.5176C44.3365 12.5176 44.8503 11.9683 44.8503 11.2812C44.8503 10.5565 44.4173 10.1637 43.3103 9.75205C41.8224 9.2201 41.1224 8.39536 41.1224 7.39959C41.1224 6.05885 42.199 4.96016 43.9771 4.96016C44.6882 4.95309 45.3891 5.13031 46.0121 5.47472L45.6368 6.57485C45.1288 6.25718 44.5424 6.08849 43.9439 6.08784C43.0549 6.08784 42.5584 6.60239 42.5584 7.22131C42.5584 7.90835 43.0549 8.21853 44.1315 8.63017C45.5748 9.17952 46.3036 9.90134 46.3036 11.1377C46.3036 12.5973 45.175 13.6279 43.2079 13.6279C42.3972 13.6427 41.5965 13.4476 40.8828 13.0611L41.2581 11.9161Z" fill="#1D1E1C"/>
<path d="M49.0684 9.57936C49.1074 11.6245 50.4077 12.4652 51.913 12.4652C52.9897 12.4652 53.6449 12.2768 54.2049 12.0304L54.4603 13.1131C53.9306 13.3523 53.0243 13.6277 51.7081 13.6277C49.1593 13.6277 47.6367 11.9449 47.6367 9.43731C47.6367 6.92976 49.1074 4.95996 51.5219 4.95996C54.2251 4.95996 54.9423 7.34721 54.9423 8.87348C54.9393 9.1086 54.9225 9.34334 54.8918 9.57646L49.0684 9.57936ZM53.4804 8.49807C53.4977 7.53563 53.0863 6.034 51.3934 6.034C49.8723 6.034 49.2041 7.44287 49.0843 8.49807H53.4804Z" fill="#1D1E1C"/>
<path d="M58.543 0V24L64.0561 18.4631H82.2206V0H58.543Z" fill="#FCC51B"/>
<path d="M63.9443 4.30176V13.9551H62.7031V4.30176H63.9443Z" fill="#1D1E1C"/>
<path d="M69.0914 8.89987C69.0914 8.18384 69.077 7.59536 69.0352 7.02428H70.1392L70.1955 8.14036H70.2388C70.6227 7.4823 71.2649 6.86629 72.4037 6.86629C72.8337 6.86253 73.254 6.99554 73.6042 7.24626C73.9544 7.49699 74.2167 7.85257 74.3535 8.26211H74.3823C74.5734 7.91059 74.8359 7.60341 75.153 7.36055C75.5892 7.02422 76.129 6.85192 76.6785 6.87354C77.5906 6.87354 78.9458 7.47506 78.9458 9.88115V13.9556H77.7191V10.0319C77.7191 8.69984 77.2341 7.89685 76.2224 7.89685C75.5095 7.89685 74.9524 8.42735 74.7388 9.04336C74.6731 9.24704 74.6395 9.45978 74.6392 9.67387V13.9556H73.4125V9.80287C73.4125 8.69984 72.9275 7.89685 71.9692 7.89685C71.1856 7.89685 70.614 8.52736 70.4149 9.15787C70.3452 9.35555 70.3115 9.56421 70.3153 9.77389V13.9556H69.0886L69.0914 8.89987Z" fill="#1D1E1C"/>
<path d="M68.2014 3.19922L65.7031 5.70822V3.19922H68.2014Z" fill="#1D1E1C"/>
<path d="M1.49426 2.49414L0.0351562 3.95954V2.49414H1.49426Z" fill="#FCC51B"/>
</svg>
