<svg width="243" height="180" viewBox="0 0 243 180" fill="none" xmlns="http://www.w3.org/2000/svg">
<path d="M244.203 99.6913C243.969 99.6941 243.771 99.7897 243.62 99.943C243.47 100.096 243.384 100.302 243.381 100.529L243.427 104.529L239.407 104.576C239.173 104.578 238.974 104.674 238.824 104.827C238.673 104.981 238.588 105.186 238.585 105.413C238.59 105.868 238.963 106.231 239.42 106.226L243.441 106.179L243.487 110.178C243.493 110.633 243.866 110.996 244.323 110.99C244.78 110.985 245.145 110.613 245.14 110.159L245.093 106.159L249.114 106.112C249.571 106.107 249.936 105.735 249.93 105.28C249.925 104.825 249.552 104.462 249.095 104.468L245.074 104.515L245.028 100.515C245.034 100.049 244.661 99.6859 244.203 99.6913Z" fill="black"/>
<path d="M229.931 114.226C229.697 114.228 229.498 114.324 229.348 114.477C229.197 114.631 229.112 114.836 229.108 115.063L229.155 119.063L225.135 119.11C224.9 119.113 224.702 119.208 224.551 119.362C224.401 119.515 224.315 119.72 224.312 119.948C224.317 120.403 224.691 120.766 225.148 120.76L229.168 120.713L229.215 124.712C229.22 125.167 229.594 125.53 230.051 125.525C230.508 125.519 230.873 125.148 230.867 124.693L230.821 120.694L234.841 120.646C235.298 120.641 235.663 120.269 235.658 119.815C235.653 119.36 235.279 118.997 234.822 119.002L230.802 119.049L230.755 115.05C230.767 114.577 230.394 114.214 229.931 114.226Z" fill="black"/>
<path d="M215.665 128.754C215.43 128.757 215.232 128.853 215.081 129.006C214.931 129.159 214.845 129.364 214.842 129.592L214.889 133.591L210.868 133.639C210.634 133.641 210.436 133.737 210.285 133.89C210.134 134.044 210.049 134.249 210.046 134.476C210.051 134.931 210.424 135.294 210.882 135.289L214.902 135.241L214.948 139.241C214.954 139.696 215.327 140.059 215.784 140.053C216.241 140.048 216.606 139.676 216.601 139.222L216.555 135.222L220.575 135.175C221.032 135.169 221.397 134.798 221.392 134.343C221.386 133.888 221.013 133.525 220.556 133.531L216.535 133.578L216.489 129.578C216.495 129.112 216.122 128.749 215.665 128.754Z" fill="black"/>
<path d="M201.392 143.289C201.158 143.291 200.96 143.387 200.809 143.54C200.658 143.694 200.573 143.899 200.57 144.126L200.616 148.126L196.596 148.173C196.361 148.176 196.163 148.271 196.013 148.425C195.862 148.578 195.776 148.783 195.773 149.011C195.779 149.466 196.152 149.828 196.609 149.823L200.629 149.776L200.676 153.775C200.681 154.23 201.055 154.593 201.512 154.588C201.969 154.582 202.334 154.211 202.329 153.756L202.282 149.756L206.302 149.709C206.76 149.704 207.124 149.332 207.119 148.878C207.114 148.423 206.74 148.06 206.283 148.065L202.263 148.112L202.216 144.113C202.223 143.646 201.849 143.283 201.392 143.289Z" fill="black"/>
<path d="M187.126 157.817C186.891 157.82 186.693 157.916 186.543 158.069C186.392 158.222 186.306 158.427 186.303 158.655L186.35 162.654L182.329 162.702C182.095 162.704 181.897 162.8 181.746 162.953C181.596 163.107 181.51 163.312 181.507 163.539C181.512 163.994 181.886 164.357 182.343 164.352L186.363 164.304L186.41 168.304C186.415 168.759 186.788 169.122 187.245 169.116C187.703 169.111 188.068 168.739 188.062 168.285L188.016 164.285L192.036 164.238C192.493 164.232 192.858 163.861 192.853 163.406C192.848 162.951 192.474 162.588 192.017 162.594L187.997 162.641L187.95 158.641C187.956 158.175 187.583 157.812 187.126 157.817Z" fill="black"/>
<path d="M172.854 172.352C172.619 172.354 172.421 172.45 172.27 172.603C172.12 172.757 172.034 172.962 172.031 173.189L172.078 177.189L168.057 177.236C167.823 177.239 167.625 177.334 167.474 177.488C167.323 177.641 167.238 177.846 167.235 178.074C167.24 178.528 167.613 178.891 168.071 178.886L172.091 178.839L172.137 182.838C172.143 183.293 172.516 183.656 172.973 183.651C173.43 183.645 173.795 183.274 173.79 182.819L173.744 178.819L177.764 178.772C178.221 178.767 178.586 178.395 178.581 177.94C178.575 177.486 178.202 177.123 177.745 177.128L173.724 177.175L173.678 173.176C173.684 172.709 173.311 172.346 172.854 172.352Z" fill="black"/>
<path d="M166.826 207.805L167.955 206.655L171.657 202.885L172.786 201.735L176.488 197.965L177.617 196.815L181.319 193.046L182.448 191.895L186.15 188.126L187.279 186.976L190.981 183.206L192.11 182.056L195.812 178.286L196.941 177.136L200.643 173.367L201.772 172.216L205.474 168.447L206.603 167.297L210.305 163.527L211.434 162.377L215.124 158.619L216.266 157.457L219.955 153.7L221.085 152.549L224.786 148.78L225.916 147.629L229.617 143.86L230.747 142.71L234.448 138.94L235.578 137.79L239.279 134.021L240.409 132.87L244.111 129.101L245.24 127.95L248.942 124.181L250.071 123.031L253.773 119.261L254.902 118.111L258.604 114.342L259.733 113.191L263.435 109.422L264.564 108.272L268.266 104.502L269.395 103.352L273.097 99.5823L274.226 98.432L277.928 94.6626L279.057 93.5123L282.759 89.7428L283.888 88.5925L287.59 84.8231L288.719 83.6728L292.421 79.9033L293.55 78.753L297.252 74.9836L298.381 73.8333L302.147 69.999L305.899 73.6459L307.055 74.7693L310.843 78.4508L311.999 79.5743L315.787 83.2558L316.943 84.3793L320.731 88.0608L321.887 89.1842L325.676 92.8657L326.832 93.9892L330.62 97.6707L331.776 98.7941L335.564 102.476L336.72 103.599L340.508 107.281L341.664 108.404L345.452 112.086L346.608 113.209L350.396 116.891L351.552 118.014L355.34 121.695L356.496 122.819L360.285 126.5L361.441 127.624L365.229 131.305L366.385 132.429L370.173 136.11L371.329 137.234L375.117 140.915L376.273 142.039L380.014 145.674L381.17 146.798L386.108 151.597L391.97 145.627L387.032 140.828L385.876 139.704L382.088 136.023L380.932 134.899L377.143 131.218L375.987 130.095L372.199 126.413L371.043 125.29L367.255 121.608L366.099 120.485L362.311 116.803L361.155 115.68L357.367 111.998L356.211 110.875L352.423 107.193L351.267 106.07L347.479 102.388L346.323 101.265L342.535 97.5833L341.379 96.4598L337.59 92.7783L336.434 91.6548L332.646 87.9733L331.49 86.8499L327.702 83.1684L326.546 82.0449L322.758 78.3634L321.602 77.2399L317.814 73.5584L316.658 72.435L312.87 68.7535L311.714 67.63L307.926 63.9485L306.77 62.8251L301.831 58.0259L295.877 64.09L295.912 64.1246L292.147 67.9589L291.017 69.1092L287.316 72.8787L286.186 74.029L282.485 77.7984L281.355 78.9487L277.654 82.7182L276.524 83.8685L272.823 87.6379L271.693 88.7882L267.992 92.5576L266.862 93.7079L263.161 97.4774L262.031 98.6277L258.33 102.397L257.2 103.547L253.499 107.317L252.369 108.467L248.668 112.237L247.538 113.387L243.837 117.156L242.707 118.307L239.006 122.076L237.876 123.226L234.175 126.996L233.045 128.146L229.344 131.916L228.214 133.066L224.513 136.835L223.383 137.986L219.682 141.755L218.552 142.905L214.851 146.675L213.721 147.825L210.031 151.583L208.89 152.745L205.2 156.503L204.071 157.653L200.369 161.422L199.24 162.573L195.538 166.342L194.409 167.492L190.707 171.262L189.578 172.412L185.876 176.182L184.747 177.332L181.045 181.101L179.916 182.252L176.214 186.021L175.084 187.171L171.383 190.941L170.253 192.091L166.552 195.861L165.422 197.011L161.721 200.78L160.591 201.931L155.766 206.844L161.86 212.767L166.778 207.759L166.826 207.805ZM389.626 145.655L385.988 149.359L382.265 145.741L385.903 142.037L389.626 145.655ZM380.959 137.232L384.682 140.85L381.044 144.554L377.321 140.936L380.959 137.232ZM376.021 132.432L379.743 136.05L376.106 139.755L372.383 136.137L376.021 132.432ZM371.076 127.627L374.799 131.246L371.162 134.95L367.439 131.332L371.076 127.627ZM366.138 122.828L369.861 126.446L366.223 130.151L362.5 126.533L366.138 122.828ZM361.194 118.023L364.917 121.641L361.279 125.346L357.556 121.728L361.194 118.023ZM356.256 113.224L359.979 116.842L356.341 120.547L352.618 116.929L356.256 113.224ZM351.318 108.425L355.041 112.043L351.403 115.748L347.68 112.129L351.318 108.425ZM346.374 103.62L350.096 107.238L346.459 110.943L342.736 107.324L346.374 103.62ZM341.435 98.8207L345.158 102.439L341.52 106.143L337.798 102.525L341.435 98.8207ZM336.491 94.0157L340.214 97.6338L336.576 101.338L332.853 97.7203L336.491 94.0157ZM331.553 89.2165L335.276 92.8346L331.638 96.5392L327.915 92.9211L331.553 89.2165ZM326.609 84.4115L330.332 88.0297L326.694 91.7342L322.971 88.1161L326.609 84.4115ZM321.671 79.6123L325.394 83.2305L321.756 86.935L318.033 83.3169L321.671 79.6123ZM316.732 74.8131L320.455 78.4313L316.818 82.1358L313.095 78.5177L316.732 74.8131ZM311.788 70.0082L315.511 73.6263L311.873 77.3309L308.151 73.7127L311.788 70.0082ZM306.935 72.5317L303.212 68.9135L306.85 65.209L310.573 68.8271L306.935 72.5317ZM298.268 64.1086L301.906 60.404L305.629 64.0221L301.991 67.7267L298.268 64.1086ZM293.409 69.1278L297.047 65.4232L300.77 69.0414L297.132 72.7459L293.409 69.1278ZM288.584 74.0416L292.222 70.3371L295.944 73.9552L292.307 77.6598L288.584 74.0416ZM283.753 78.9614L287.391 75.2568L291.113 78.8749L287.476 82.5795L283.753 78.9614ZM278.928 83.8752L282.565 80.1707L286.288 83.7888L282.65 87.4933L278.928 83.8752ZM274.097 88.795L277.734 85.0904L281.457 88.7085L277.819 92.4131L274.097 88.795ZM269.271 93.7088L272.909 90.0043L276.632 93.6224L272.994 97.3269L269.271 93.7088ZM264.44 98.6286L268.078 94.924L271.801 98.5421L268.163 102.247L264.44 98.6286ZM259.615 103.542L263.253 99.8379L266.976 103.456L263.338 107.161L259.615 103.542ZM254.79 108.456L258.428 104.752L262.15 108.37L258.513 112.074L254.79 108.456ZM249.959 113.376L253.597 109.671L257.319 113.29L253.682 116.994L249.959 113.376ZM245.134 118.29L248.771 114.585L252.494 118.203L248.856 121.908L245.134 118.29ZM240.303 123.21L243.94 119.505L247.663 123.123L244.025 126.828L240.303 123.21ZM235.477 128.123L239.115 124.419L242.838 128.037L239.2 131.742L235.477 128.123ZM230.652 133.037L234.29 129.333L238.013 132.951L234.375 136.655L230.652 133.037ZM225.821 137.957L229.459 134.252L233.182 137.871L229.544 141.575L225.821 137.957ZM220.996 142.871L224.634 139.166L228.357 142.784L224.719 146.489L220.996 142.871ZM216.165 147.791L219.803 144.086L223.525 147.704L219.888 151.409L216.165 147.791ZM211.34 152.704L214.977 149L218.7 152.618L215.062 156.323L211.34 152.704ZM206.52 157.612L210.158 153.908L213.881 157.526L210.243 161.231L206.52 157.612ZM201.695 162.526L205.333 158.822L209.056 162.44L205.418 166.144L201.695 162.526ZM196.87 167.44L200.507 163.736L204.23 167.354L200.593 171.058L196.87 167.44ZM192.039 172.36L195.676 168.655L199.399 172.273L195.762 175.978L192.039 172.36ZM187.213 177.274L190.851 173.569L194.574 177.187L190.936 180.892L187.213 177.274ZM182.382 182.193L186.02 178.489L189.743 182.107L186.105 185.812L182.382 182.193ZM177.557 187.107L181.195 183.403L184.918 187.021L181.28 190.725L177.557 187.107ZM172.726 192.027L176.364 188.322L180.087 191.941L176.449 195.645L172.726 192.027ZM167.901 196.941L171.539 193.236L175.262 196.854L171.624 200.559L167.901 196.941ZM163.076 201.855L166.713 198.15L170.436 201.768L166.799 205.473L163.076 201.855ZM158.245 206.774L161.882 203.07L165.605 206.688L161.968 210.393L158.245 206.774Z" fill="black"/>
<path d="M167.82 172.988L171.521 169.218L172.651 168.068L176.352 164.299L177.482 163.148L181.183 159.379L182.313 158.229L186.014 154.459L187.144 153.309L190.845 149.539L191.975 148.389L195.676 144.62L196.806 143.469L200.507 139.7L201.637 138.55L205.338 134.78L206.468 133.63L210.169 129.86L211.299 128.71L214.96 124.982L216.101 123.82L219.791 120.062L220.92 118.912L224.622 115.142L225.751 113.992L229.441 110.234L230.571 109.084L234.272 105.315L235.402 104.164L239.103 100.395L240.233 99.2447L243.923 95.487L245.052 94.3367L248.754 90.5673L249.883 89.417L253.585 85.6476L254.714 84.4973L258.404 80.7396L259.534 79.5893L263.235 75.8199L264.365 74.6696L268.066 70.9001L269.196 69.7498L272.897 65.9804L274.027 64.8301L277.728 61.0606L278.858 59.9103L282.559 56.1409L283.689 54.9906L287.39 51.2211L288.52 50.0708L292.221 46.3014L293.351 45.1511L297.052 41.3816L298.182 40.2313L301.912 36.4324L305.701 40.1139L306.857 41.2374L310.645 44.9189L311.801 46.0423L315.589 49.7238L316.745 50.8473L320.533 54.5288L321.689 55.6523L325.477 59.3337L326.633 60.4572L330.421 64.1387L331.577 65.2622L335.365 68.9437L336.521 70.0671L340.31 73.7486L341.466 74.8721L345.254 78.5536L346.41 79.6771L350.198 83.3586L351.354 84.482L355.142 88.1635L356.298 89.287L360.086 92.9685L361.242 94.0919L365.03 97.7734L366.186 98.8969L369.974 102.578L371.13 103.702L374.918 107.383L376.074 108.507L379.863 112.188L381.019 113.312L385.957 118.111L391.888 112.07L386.95 107.271L385.794 106.148L382.006 102.466L380.85 101.343L377.062 97.6613L375.906 96.5378L372.118 92.8563L370.962 91.7329L367.174 88.0514L366.018 86.9279L362.23 83.2464L361.074 82.123L357.285 78.4415L356.129 77.318L352.341 73.6365L351.185 72.513L347.397 68.8315L346.241 67.7081L342.453 64.0266L341.297 62.9031L337.509 59.2216L336.353 58.0982L332.565 54.4167L331.409 53.2932L327.621 49.6117L326.465 48.4882L322.676 44.8067L321.52 43.6833L317.732 40.0018L316.576 38.8783L312.788 35.1968L311.632 34.0733L307.844 30.3919L306.688 29.2684L301.75 24.4692L296.89 29.4184L295.795 30.5333L292.065 34.3323L290.935 35.4826L287.234 39.252L286.104 40.4023L282.403 44.1718L281.273 45.3221L277.572 49.0915L276.442 50.2418L272.741 54.0113L271.611 55.1616L267.91 58.931L266.78 60.0813L263.079 63.8508L261.949 65.0011L258.247 68.7705L257.118 69.9208L253.416 73.6902L252.31 74.8169L248.609 78.5864L247.479 79.7367L243.778 83.5061L242.648 84.6564L238.947 88.4259L237.829 89.5644L234.127 93.3338L232.998 94.4841L229.296 98.2536L228.167 99.4039L224.465 103.173L223.347 104.312L219.646 108.081L218.516 109.232L214.815 113.001L213.685 114.151L209.995 117.909L208.866 119.059L205.176 122.817L204.046 123.967L200.345 127.737L199.215 128.887L195.514 132.656L194.384 133.807L190.683 137.576L189.553 138.726L185.852 142.496L184.722 143.646L181.021 147.416L179.891 148.566L176.19 152.335L175.06 153.486L171.359 157.255L170.229 158.405L166.528 162.175L165.398 163.325L161.697 167.095L160.567 168.245L155.742 173.159L161.836 179.081L166.661 174.168L167.82 172.988ZM389.491 112.046L385.853 115.751L382.13 112.133L385.768 108.428L389.491 112.046ZM380.824 103.623L384.547 107.241L380.909 110.946L377.186 107.328L380.824 103.623ZM375.886 98.8238L379.609 102.442L375.971 106.147L372.248 102.528L375.886 98.8238ZM370.942 94.0189L374.664 97.637L371.027 101.342L367.304 97.7234L370.942 94.0189ZM366.003 89.2197L369.726 92.8378L366.088 96.5423L362.366 92.9242L366.003 89.2197ZM361.059 84.4147L364.782 88.0328L361.144 91.7374L357.421 88.1193L361.059 84.4147ZM356.121 79.6155L359.844 83.2336L356.206 86.9382L352.483 83.3201L356.121 79.6155ZM351.177 74.8105L354.9 78.4287L351.262 82.1332L347.539 78.5151L351.177 74.8105ZM346.239 70.0113L349.962 73.6295L346.324 77.334L342.601 73.7159L346.239 70.0113ZM341.3 65.2121L345.023 68.8303L341.386 72.5348L337.663 68.9167L341.3 65.2121ZM336.356 60.4072L340.079 64.0253L336.441 67.7299L332.719 64.1117L336.356 60.4072ZM331.418 55.608L335.141 59.2261L331.503 62.9307L327.78 59.3125L331.418 55.608ZM326.474 50.803L330.197 54.4211L326.559 58.1257L322.836 54.5076L326.474 50.803ZM321.536 46.0038L325.259 49.6219L321.621 53.3265L317.898 49.7084L321.536 46.0038ZM316.598 41.2046L320.32 44.8227L316.683 48.5273L312.96 44.9092L316.598 41.2046ZM311.653 36.3996L315.376 40.0178L311.739 43.7223L308.016 40.1042L311.653 36.3996ZM306.8 38.9231L303.077 35.305L306.715 31.6005L310.438 35.2186L306.8 38.9231ZM298.133 30.5L301.771 26.7955L305.494 30.4136L301.856 34.1182L298.133 30.5ZM293.273 35.4493L296.911 31.7447L300.634 35.3629L296.996 39.0674L293.273 35.4493ZM288.442 40.369L292.08 36.6645L295.803 40.2826L292.165 43.9872L288.442 40.369ZM283.617 45.2829L287.255 41.5783L290.978 45.1964L287.34 48.901L283.617 45.2829ZM278.792 50.1967L282.43 46.4922L286.153 50.1103L282.515 53.8148L278.792 50.1967ZM273.961 55.1165L277.599 51.4119L281.321 55.03L277.684 58.7346L273.961 55.1165ZM269.136 60.0303L272.773 56.3258L276.496 59.9439L272.859 63.6484L269.136 60.0303ZM264.305 64.9501L267.942 61.2455L271.665 64.8636L268.027 68.5682L264.305 64.9501ZM259.479 69.8639L263.117 66.1593L266.84 69.7775L263.202 73.482L259.479 69.8639ZM254.648 74.7837L258.286 71.0791L262.009 74.6972L258.371 78.4018L254.648 74.7837ZM249.823 79.6975L253.461 75.9929L257.184 79.6111L253.546 83.3156L249.823 79.6975ZM244.998 84.6113L248.636 80.9068L252.359 84.5249L248.721 88.2295L244.998 84.6113ZM240.167 89.5311L243.805 85.8265L247.527 89.4447L243.89 93.1492L240.167 89.5311ZM235.342 94.4449L238.979 90.7404L242.702 94.3585L239.065 98.0631L235.342 94.4449ZM230.511 99.3647L234.148 95.6601L237.871 99.2783L234.233 102.983L230.511 99.3647ZM225.685 104.279L229.323 100.574L233.046 104.192L229.408 107.897L225.685 104.279ZM220.86 109.192L224.498 105.488L228.221 109.106L224.583 112.811L220.86 109.192ZM216.029 114.112L219.667 110.408L223.39 114.026L219.752 117.73L216.029 114.112ZM211.204 119.026L214.842 115.321L218.565 118.94L214.927 122.644L211.204 119.026ZM206.384 123.934L210.022 120.229L213.745 123.847L210.107 127.552L206.384 123.934ZM201.559 128.848L205.197 125.143L208.92 128.761L205.282 132.466L201.559 128.848ZM196.728 133.768L200.366 130.063L204.089 133.681L200.451 137.386L196.728 133.768ZM191.903 138.681L195.541 134.977L199.264 138.595L195.626 142.299L191.903 138.681ZM187.078 143.595L190.715 139.891L194.438 143.509L190.801 147.213L187.078 143.595ZM182.247 148.515L185.884 144.81L189.607 148.429L185.97 152.133L182.247 148.515ZM177.421 153.429L181.059 149.724L184.782 153.342L181.144 157.047L177.421 153.429ZM172.59 158.349L176.228 154.644L179.951 158.262L176.313 161.967L172.59 158.349ZM167.765 163.262L171.403 159.558L175.126 163.176L171.488 166.881L167.765 163.262ZM162.934 168.182L166.572 164.478L170.295 168.096L166.657 171.8L162.934 168.182ZM165.476 173.015L161.838 176.72L158.115 173.102L161.753 169.397L165.476 173.015Z" fill="black"/>
<path d="M167.73 254.513L168.859 253.362L172.561 249.593L173.69 248.443L177.391 244.673L178.521 243.523L182.222 239.754L183.352 238.604L187.053 234.834L188.182 233.684L191.884 229.915L193.013 228.765L196.714 224.995L197.844 223.845L201.545 220.076L202.675 218.926L206.376 215.156L207.506 214.006L211.207 210.237L212.336 209.087L216.026 205.329L217.167 204.167L220.857 200.41L221.986 199.259L225.688 195.49L226.817 194.34L230.519 190.57L231.648 189.42L235.349 185.651L236.479 184.501L240.18 180.731L241.31 179.581L245.011 175.812L245.051 175.771L250.221 180.795L255.029 175.899L260.039 180.768L264.846 175.872L269.856 180.74L274.664 175.845L279.673 180.713L284.481 175.817L289.491 180.686L294.298 175.79L299.308 180.659L304.058 175.822L308.973 180.598L313.78 175.702L318.79 180.571L323.598 175.675L328.607 180.544L333.415 175.648L338.407 180.499L343.214 175.603L348.224 180.472L353.032 175.576L358.042 180.445L363.874 174.505L357.78 168.582L352.972 173.478L347.962 168.609L343.155 173.505L338.145 168.636L333.337 173.532L328.328 168.664L323.52 173.559L318.51 168.691L313.703 173.587L308.693 168.718L303.943 173.555L299.858 169.585L304.487 164.872L299.495 160.021L304.372 155.054L299.38 150.202L304.257 145.236L299.265 140.384L304.142 135.418L299.15 130.566L302.898 126.75L304.027 125.599L307.92 121.635L311.637 125.248L312.793 126.372L316.582 130.053L317.738 131.177L321.526 134.859L322.682 135.982L326.471 139.664L327.627 140.788L331.415 144.469L332.571 145.593L336.36 149.275L337.504 150.387L342.442 155.186L348.403 149.117L343.464 144.317L342.308 143.193L338.52 139.512L337.364 138.388L333.575 134.706L332.419 133.583L328.631 129.901L327.475 128.777L323.686 125.096L322.53 123.972L318.742 120.29L317.585 119.167L313.797 115.485L312.641 114.362L308.853 110.68L307.696 109.556L302.758 104.757L296.803 110.82L296.839 110.855L293.074 114.689L291.944 115.839L288.243 119.609L287.114 120.759L283.412 124.528L282.283 125.679L278.582 129.448L277.452 130.598L273.751 134.367L272.621 135.518L268.92 139.287L267.79 140.437L264.089 144.206L262.96 145.357L259.258 149.126L258.129 150.276L254.428 154.045L253.298 155.196L249.597 158.965L248.467 160.115L244.766 163.884L243.636 165.035L239.935 168.804L238.806 169.954L235.104 173.724L233.975 174.874L230.274 178.643L229.144 179.793L225.443 183.563L224.313 184.713L220.612 188.482L219.482 189.632L215.781 193.402L214.652 194.552L210.962 198.309L209.821 199.471L206.131 203.229L205.002 204.379L201.3 208.148L200.171 209.299L196.47 213.068L195.34 214.218L191.639 217.987L190.509 219.138L186.808 222.907L185.678 224.057L181.977 227.827L180.848 228.977L177.146 232.746L176.017 233.896L172.316 237.666L171.186 238.816L167.485 242.585L166.355 243.735L162.654 247.505L161.524 248.655L156.699 253.568L162.794 259.492L167.706 254.489L167.73 254.513ZM346.058 149.144L342.421 152.848L338.698 149.23L342.335 145.526L346.058 149.144ZM337.397 140.726L341.12 144.344L337.482 148.049L333.759 144.43L337.397 140.726ZM332.452 135.921L336.175 139.539L332.538 143.243L328.815 139.625L332.452 135.921ZM327.514 131.121L331.237 134.74L327.599 138.444L323.876 134.825L327.514 131.121ZM322.575 126.322L326.298 129.94L322.661 133.644L318.937 130.026L322.575 126.322ZM317.631 121.516L321.354 125.135L317.716 128.839L313.993 125.221L317.631 121.516ZM253.716 174.876L250.142 178.516L246.419 174.898L249.993 171.258L253.716 174.876ZM263.533 174.849L259.959 178.489L256.236 174.87L259.81 171.231L263.533 174.849ZM273.345 174.816L269.771 178.456L266.047 174.837L269.621 171.198L273.345 174.816ZM283.162 174.789L279.588 178.428L275.865 174.81L279.439 171.171L283.162 174.789ZM292.979 174.762L289.405 178.401L285.682 174.783L289.256 171.143L292.979 174.762ZM302.791 174.74L299.217 178.38L295.494 174.762L299.068 171.122L302.791 174.74ZM354.233 174.553L357.807 170.914L361.53 174.532L357.956 178.172L354.233 174.553ZM344.416 174.581L347.99 170.941L351.713 174.56L348.139 178.199L344.416 174.581ZM334.598 174.608L338.172 170.968L341.896 174.587L338.322 178.226L334.598 174.608ZM324.781 174.635L328.355 170.996L332.078 174.614L328.504 178.254L324.781 174.635ZM314.975 174.662L318.549 171.023L322.273 174.641L318.699 178.281L314.975 174.662ZM305.158 174.689L308.732 171.05L312.455 174.668L308.881 178.308L305.158 174.689ZM302.148 164.905L298.511 168.61L294.787 164.991L298.425 161.287L302.148 164.905ZM302.033 155.087L298.396 158.791L294.673 155.173L298.31 151.469L302.033 155.087ZM301.919 145.269L298.281 148.973L294.558 145.355L298.195 141.65L301.919 145.269ZM301.804 135.451L298.166 139.155L294.443 135.537L298.081 131.832L301.804 135.451ZM301.689 125.633L298.051 129.337L294.328 125.719L297.966 122.014L301.689 125.633ZM306.52 120.713L302.882 124.417L299.159 120.799L302.797 117.095L306.52 120.713ZM312.772 124.045L309.049 120.427L312.686 116.723L316.409 120.341L312.772 124.045ZM307.833 119.246L304.11 115.627L307.748 111.923L311.471 115.541L307.833 119.246ZM299.166 110.822L302.803 107.118L306.526 110.736L302.889 114.44L299.166 110.822ZM294.306 115.829L297.944 112.125L301.667 115.743L298.03 119.448L294.306 115.829ZM289.476 120.749L293.113 117.045L296.836 120.663L293.199 124.367L289.476 120.749ZM284.651 125.663L288.288 121.958L292.011 125.577L288.374 129.281L284.651 125.663ZM279.82 130.582L283.457 126.878L287.181 130.496L283.543 134.2L279.82 130.582ZM274.995 135.496L278.632 131.791L282.356 135.41L278.718 139.114L274.995 135.496ZM270.164 140.415L273.802 136.711L277.525 140.329L273.887 144.034L270.164 140.415ZM265.339 145.329L268.977 141.624L272.7 145.243L269.062 148.947L265.339 145.329ZM260.514 150.242L264.152 146.538L267.875 150.156L264.237 153.861L260.514 150.242ZM255.683 155.162L259.321 151.458L263.044 155.076L259.406 158.78L255.683 155.162ZM250.858 160.076L254.496 156.371L258.219 159.99L254.581 163.694L250.858 160.076ZM246.027 164.995L249.665 161.291L253.388 164.909L249.751 168.614L246.027 164.995ZM254.615 166.032L255.744 164.882L259.445 161.112L260.575 159.962L264.276 156.193L265.406 155.043L269.107 151.273L270.237 150.123L273.938 146.354L275.067 145.204L278.769 141.434L279.898 140.284L283.599 136.515L284.729 135.364L288.43 131.595L289.56 130.445L293.134 126.805L297.005 130.568L292.128 135.535L297.12 140.386L292.243 145.353L297.235 150.204L292.357 155.171L297.349 160.022L292.472 164.989L297.743 170.111L294.267 173.65L289.258 168.782L284.45 173.678L279.44 168.809L274.633 173.705L269.623 168.836L264.815 173.732L259.806 168.863L254.998 173.759L250.913 169.789L250.936 169.766L254.609 166.026L254.615 166.032ZM241.202 169.909L244.84 166.204L248.563 169.823L244.926 173.527L241.202 169.909ZM236.377 174.822L240.015 171.118L243.738 174.736L240.101 178.441L236.377 174.822ZM231.547 179.742L235.184 176.038L238.907 179.656L235.27 183.36L231.547 179.742ZM226.722 184.656L230.359 180.951L234.082 184.57L230.445 188.274L226.722 184.656ZM221.891 189.575L225.528 185.871L229.252 189.489L225.614 193.193L221.891 189.575ZM217.066 194.489L220.703 190.784L224.427 194.403L220.789 198.107L217.066 194.489ZM212.235 199.408L215.873 195.704L219.596 199.322L215.958 203.027L212.235 199.408ZM207.422 204.31L211.059 200.606L214.782 204.224L211.145 207.928L207.422 204.31ZM202.597 209.224L206.234 205.519L209.957 209.138L206.32 212.842L202.597 209.224ZM197.766 214.143L201.403 210.439L205.127 214.057L201.489 217.762L197.766 214.143ZM192.941 219.057L196.578 215.352L200.302 218.971L196.664 222.675L192.941 219.057ZM188.11 223.976L191.748 220.272L195.471 223.89L191.833 227.595L188.11 223.976ZM183.285 228.89L186.923 225.186L190.646 228.804L187.008 232.508L183.285 228.89ZM178.454 233.809L182.092 230.105L185.815 233.724L182.177 237.428L178.454 233.809ZM173.629 238.723L177.267 235.019L180.99 238.637L177.352 242.342L173.629 238.723ZM168.804 243.637L172.442 239.932L176.165 243.551L172.527 247.255L168.804 243.637ZM163.973 248.556L167.611 244.852L171.334 248.47L167.697 252.175L163.973 248.556ZM159.148 253.47L162.786 249.766L166.509 253.384L162.871 257.088L159.148 253.47Z" fill="black"/>
<path d="M286.425 86.9353L315.96 85.943L316.633 103.347L334.745 102.4L334.221 120.232L352.128 119.294L351.603 137.126L369.505 136.182L368.98 154.013L386.887 153.075L386.363 170.907L401.125 170.14L401.432 175.903L380.386 176.994L380.904 159.169L363.003 160.101L363.521 142.275L345.626 143.213L346.144 125.387L328.243 126.319L328.761 108.494L311.065 109.418L310.386 91.9034L292.82 92.4934L294.721 111.16L276.459 110.358L277.684 128.391L259.528 127.6L260.753 145.633L242.603 144.836L243.822 162.875L225.672 162.078L226.897 180.111L208.741 179.32L209.966 197.353L191.816 196.556L193.035 214.595L174.885 213.798L175.885 228.615L170.104 229.003L168.66 207.748L186.81 208.545L185.591 190.506L203.741 191.303L202.516 173.27L220.672 174.061L219.447 156.028L237.597 156.825L236.378 138.787L254.528 139.583L253.303 121.55L271.459 122.341L270.234 104.309L288.273 105.101L286.425 86.9353Z" fill="#ED2024"/>
<path d="M85.3757 191.607L103.618 209.336L82.7484 230.589L86.8985 234.622L301.834 15.739L443.529 153.446L447.584 149.316L219.882 -71.9763L215.827 -67.8472L275.422 -9.92974L257.344 8.48013L249.578 0.932186L253.453 -3.01405L254.805 -1.70036L253.125 0.0102639L257.275 4.04351L263.009 -1.79621L253.357 -11.1764L241.373 1.02804L250.746 10.1374L229.004 10.3914L228.881 -0.126343L233.956 -0.185633L233.979 1.77332L232.092 1.79537L232.159 7.56732L239.848 7.47749L239.69 -6.02536L223.017 -5.82475L223.208 10.465L207.22 10.6517L207.414 27.2446L220.981 27.0803L220.892 19.431L215.09 19.4988L215.112 21.3761L213.143 21.3991L213.084 16.3501L223.269 16.2311L223.52 37.6748L214.372 28.7844L202.388 40.9888L212.04 50.369L217.774 44.5293L213.624 40.496L211.944 42.2066L210.593 40.8929L214.468 36.9467L222.104 44.3679L203.453 63.3617C203.227 63.5918 202.935 63.7468 202.798 64.0283L201.379 65.4735L203.252 67.2942C203.413 67.4964 203.591 67.6693 203.798 67.8243L220.831 84.3779L130.978 85.4276L132.087 180.344L128.531 183.966L108.593 164.589C108.42 164.364 108.219 164.168 107.982 163.995L106.138 162.204L104.725 163.643C104.445 163.786 104.296 164.079 104.065 164.315L85.286 183.439L77.5195 175.891L81.3946 171.945L82.7463 173.258L81.0607 174.975L85.2108 179.008L90.951 173.163L81.2991 163.782L69.3148 175.987L81.2314 187.568L69.7163 199.295L81.9827 211.216L91.4126 201.613L85.5373 195.903L81.4827 200.032L83.2079 201.709L81.8872 203.053L77.921 199.199L85.3757 191.607ZM137.216 123.146L163.353 122.84L163.48 133.638L157.936 133.703L157.914 131.825L160.316 131.797L160.249 126.025L152.044 126.121L152.201 139.542L169.349 139.342L169.198 126.411L177.308 134.293L168.429 143.335L137.462 143.697L137.216 123.146ZM189.668 90.5205L190.022 121.345L181.357 130.17L173.691 122.72L185.623 122.58L185.424 105.521L171.933 105.678L172.028 113.841L177.83 113.773L177.802 111.383L179.689 111.361L179.754 116.876L169.076 117.001L168.769 90.7646L189.668 90.5205ZM242.281 68.1269L229.833 80.8032L229.686 68.2332L242.281 68.1269ZM229.619 62.4613L229.491 51.5471L240.625 62.3677L229.619 62.4613ZM224.014 79.4135L212.661 68.3796L223.878 68.2836L224.014 79.4135ZM195.464 90.447L220.646 90.1586L195.762 115.499L195.464 90.447ZM163.227 112.55L141.143 91.0874L162.979 90.8323L163.227 112.55ZM159.617 117.111L137.148 117.374L136.887 95.0206L159.617 117.111ZM264.82 15.7457L275.686 15.6188L275.777 26.3935L264.82 15.7457ZM281.488 15.551L294.052 15.4042L281.599 28.0865L281.488 15.551ZM295.532 9.61421L281.432 9.77893L281.315 -4.20254L295.532 9.61421ZM275.535 -1.78509L275.636 9.84082L263.985 9.97693L275.535 -1.78509ZM250.04 15.9184L241.78 24.33L254.047 36.2511L263.471 26.6539L257.596 20.944L253.541 25.0731L255.266 26.7497L253.946 28.0946L249.979 24.24L257.44 16.6425L275.552 34.2447L248.421 61.8743L230.314 44.2778L237.902 36.5505L241.869 40.4051L240.548 41.75L238.823 40.0733L234.768 44.2024L240.643 49.9124L250.073 40.3093L237.807 28.3881L229.321 37.0297L229.077 16.1691L250.04 15.9184ZM223.676 51.0261L223.811 62.5116L212.3 62.6111L223.676 51.0261ZM137.523 149.475L162.688 149.181L137.816 174.51L137.523 149.475ZM109.526 203.319L109.264 173.333L124.465 188.107L109.526 203.319ZM89.4303 187.478L103.465 173.185L103.712 201.358L89.4303 187.478Z" fill="#ED2024"/>
</svg>
