<svg width="357" height="165" viewBox="0 0 357 165" fill="none" xmlns="http://www.w3.org/2000/svg">
<path d="M55.9716 172.167L32.0417 165.749C31.4362 165.587 30.8146 165.676 30.2693 165.991C29.7239 166.306 29.3357 166.799 29.1736 167.405L22.7667 191.338C22.6248 191.932 22.6943 192.565 23.0093 193.111C23.3243 193.656 23.8381 194.033 24.4233 194.207L48.3533 200.625C48.9906 200.796 49.6006 200.687 50.1257 200.383C50.6508 200.08 51.0391 199.587 51.2214 198.969L57.6283 175.036C57.9493 173.773 57.2144 172.5 55.9716 172.167ZM47.3024 195.493L27.8769 190.3L33.0809 170.861L52.4979 176.086L47.3024 195.493Z" fill="#FF0000"/>
<path d="M61.3802 164.976C61.9856 165.138 62.6072 165.049 63.1525 164.734L111.445 136.852C111.99 136.537 112.367 136.024 112.541 135.438L119.698 108.701C120.031 107.458 119.296 106.185 118.054 105.852L94.474 99.5278C93.2313 99.1945 91.9589 99.9292 91.6262 101.172L86.7293 119.464C86.3966 120.707 87.1316 121.98 88.3743 122.313L99.463 125.287C100.674 125.612 102.007 124.843 102.311 123.643L104.623 115.007C104.956 113.764 104.221 112.491 102.978 112.158C101.735 111.825 100.463 112.559 100.13 113.802L98.4237 120.176L91.8597 118.415L95.5537 104.616L114.608 109.727L108.304 133.277L61.6473 160.214L38.0997 153.899L43.2013 134.842L56.9985 138.542L55.2411 145.107L48.8683 143.398C47.6256 143.065 46.3531 143.799 46.0204 145.042C45.6877 146.285 46.4227 147.558 47.6654 147.891L56.3006 150.207C56.906 150.37 57.5276 150.28 58.0729 149.965C58.6183 149.651 58.9949 149.137 59.1686 148.551L62.1375 137.461C62.4702 136.218 61.7352 134.945 60.4925 134.612L42.1504 129.71C40.9077 129.377 39.6352 130.111 39.3025 131.354L32.9895 154.937C32.6568 156.179 33.3917 157.452 34.6344 157.786L61.3802 164.976Z" fill="#FF0000"/>
<path d="M117.701 144.422C117.095 144.259 116.474 144.349 115.928 144.664L67.6558 172.534C67.1105 172.849 66.7339 173.363 66.5601 173.948L59.4025 200.685C59.0697 201.928 59.8047 203.201 61.0474 203.534L84.6269 209.858C85.2324 210.021 85.854 209.931 86.3993 209.616C86.9446 209.301 87.3212 208.788 87.495 208.202L92.3919 189.91C92.7246 188.667 91.9896 187.394 90.7469 187.061L79.6582 184.087C78.4155 183.754 77.143 184.488 76.8103 185.731L74.4984 194.367C74.1656 195.61 74.9006 196.883 76.1433 197.217C77.386 197.55 78.6585 196.815 78.9912 195.572L80.6974 189.199L87.2615 190.959L83.5675 204.758L64.501 199.627L70.8055 176.077L117.422 149.163L140.969 155.478L135.879 174.556L122.082 170.855L123.84 164.291L130.212 166C131.455 166.333 132.728 165.598 133.06 164.356C133.393 163.113 132.658 161.84 131.415 161.506L122.78 159.19C121.537 158.857 120.265 159.592 119.932 160.835L116.963 171.925C116.631 173.168 117.366 174.441 118.608 174.774L136.898 179.679C137.504 179.842 138.126 179.752 138.671 179.437C139.216 179.122 139.593 178.609 139.767 178.023L146.08 154.441C146.412 153.198 145.677 151.925 144.435 151.592L117.701 144.422Z" fill="#FF0000"/>
<path d="M153.203 116.03L129.273 109.613C128.668 109.45 128.046 109.54 127.501 109.854C126.956 110.169 126.579 110.683 126.405 111.268L119.998 135.201C119.836 135.807 119.926 136.429 120.241 136.974C120.556 137.52 121.07 137.897 121.655 138.071L145.585 144.489C146.222 144.66 146.832 144.55 147.357 144.247C147.882 143.944 148.271 143.45 148.453 142.833L154.86 118.9C155.181 117.637 154.446 116.364 153.203 116.03ZM144.554 139.345L125.129 134.152L130.333 114.713L149.75 119.937L144.554 139.345Z" fill="#FF0000"/>
<path d="M158.632 108.828C159.237 108.99 159.859 108.901 160.404 108.586L208.697 80.704C209.242 80.3891 209.619 79.8753 209.793 79.29L216.95 52.5527C217.283 51.3098 216.548 50.0368 215.305 49.7035L191.726 43.3795C190.483 43.0463 189.211 43.7809 188.878 45.0238L183.981 63.3161C183.648 64.5589 184.383 65.832 185.626 66.1653L196.715 69.1392C197.926 69.464 199.259 68.6943 199.563 67.495L201.875 58.8587C202.207 57.6159 201.472 56.3428 200.23 56.0096C198.987 55.6763 197.714 56.4109 197.382 57.6538L195.675 64.0274L189.111 62.2669L192.805 48.4681L211.86 53.5785L205.556 77.129L158.899 104.066L135.351 97.7508L140.453 78.6937L154.25 82.394L152.493 88.9589L146.12 87.2497C144.877 86.9164 143.605 87.6511 143.272 88.8939C142.939 90.1368 143.674 91.4098 144.917 91.7431L153.552 94.059C154.158 94.2214 154.779 94.132 155.325 93.8171C155.87 93.5023 156.247 92.9885 156.42 92.4032L159.389 81.3131C159.722 80.0702 158.987 78.7972 157.744 78.4639L139.454 73.5585C138.212 73.2253 136.939 73.9599 136.606 75.2028L130.293 98.7852C129.961 100.028 130.696 101.301 131.938 101.634L158.632 108.828Z" fill="#FF0000"/>
<path d="M214.952 88.2736C214.347 88.1113 213.725 88.2007 213.18 88.5156L164.908 116.386C164.362 116.701 163.986 117.214 163.812 117.8L156.654 144.537C156.322 145.78 157.057 147.053 158.299 147.386L181.879 153.71C182.484 153.872 183.106 153.783 183.651 153.468C184.196 153.153 184.573 152.639 184.747 152.054L189.644 133.762C189.976 132.519 189.241 131.246 187.999 130.913L176.91 127.939C175.667 127.605 174.395 128.34 174.062 129.583L171.75 138.219C171.417 139.462 172.152 140.735 173.395 141.068C174.638 141.402 175.91 140.667 176.243 139.424L177.949 133.051L184.513 134.811L180.819 148.61L161.753 143.479L168.057 119.929L214.674 93.0149L238.221 99.3303L233.131 118.408L219.334 114.707L221.091 108.142L227.464 109.852C228.707 110.185 229.979 109.45 230.312 108.207C230.645 106.965 229.91 105.691 228.667 105.358L220.032 103.042C218.789 102.709 217.517 103.444 217.184 104.686L214.215 115.777C213.883 117.019 214.618 118.292 215.86 118.626L234.15 123.531C234.756 123.693 235.377 123.604 235.923 123.289C236.468 122.974 236.845 122.46 237.018 121.875L243.331 98.2928C243.664 97.0499 242.929 95.7769 241.686 95.4436L214.952 88.2736Z" fill="#FF0000"/>
<path d="M251.344 59.3688L227.414 52.9509C226.808 52.7885 226.187 52.878 225.641 53.1928C225.096 53.5077 224.719 54.0215 224.546 54.6068L218.139 78.5397C217.977 79.1452 218.066 79.767 218.381 80.3126C218.696 80.8582 219.21 81.2351 219.795 81.4091L243.725 87.8271C244.363 87.998 244.973 87.8883 245.498 87.5851C246.023 87.282 246.411 86.7884 246.593 86.1712L253 62.2382C253.321 60.9752 252.586 59.7021 251.344 59.3688ZM242.695 82.6834L223.269 77.4906L228.473 58.0511L247.89 63.2757L242.695 82.6834Z" fill="#FF0000"/>
<path d="M256.772 52.1663C257.378 52.3287 257.999 52.2392 258.545 51.9243L306.837 24.0426C307.383 23.7277 307.759 23.2139 307.933 22.6286L315.091 -4.10871C315.423 -5.35157 314.688 -6.62461 313.446 -6.9579L289.866 -13.2818C288.624 -13.6151 287.351 -12.8805 287.018 -11.6376L282.122 6.65469C281.789 7.89754 282.524 9.17058 283.767 9.50387L294.855 12.4778C296.066 12.8026 297.399 12.0329 297.703 10.8336L300.015 2.19737C300.348 0.954508 299.613 -0.318534 298.37 -0.651823C297.127 -0.985111 295.855 -0.250473 295.522 0.992384L293.816 7.36601L287.252 5.60555L290.946 -8.19332L310.001 -3.08291L303.696 20.4676L257.08 47.3815L233.532 41.0661L238.634 22.009L252.431 25.7094L250.674 32.2742L244.301 30.565C243.058 30.2317 241.786 30.9664 241.453 32.2092C241.12 33.4521 241.855 34.7251 243.098 35.0584L251.733 37.3743C252.339 37.5367 252.96 37.4473 253.506 37.1324C254.051 36.8176 254.428 36.3038 254.601 35.7185L257.57 24.6284C257.903 23.3855 257.168 22.1125 255.925 21.7792L237.635 16.8738C236.392 16.5406 235.12 17.2752 234.787 18.5181L228.474 42.1005C228.141 43.3433 228.876 44.6164 230.119 44.9497L256.772 52.1663Z" fill="#FF0000"/>
<path d="M313.093 31.6122C312.487 31.4498 311.866 31.5393 311.32 31.8541L263.028 59.7359C262.482 60.0507 262.106 60.5645 261.932 61.1498L254.774 87.8872C254.442 89.13 255.177 90.4031 256.419 90.7364L279.999 97.0603C280.604 97.2227 281.226 97.1332 281.771 96.8184C282.317 96.5035 282.693 95.9897 282.867 95.4044L287.764 77.1121C288.097 75.8693 287.362 74.5962 286.119 74.2629L275.03 71.289C273.787 70.9557 272.515 71.6903 272.182 72.9332L269.87 81.5695C269.538 82.8123 270.273 84.0854 271.515 84.4186C272.758 84.7519 274.03 84.0173 274.363 82.7744L276.069 76.4008L282.633 78.1612L278.939 91.9601L259.873 86.8295L266.178 63.279L312.794 36.3651L336.341 42.6805L331.251 61.7578L317.454 58.0575L319.212 51.4926L325.585 53.2018C326.827 53.5351 328.1 52.8005 328.432 51.5576C328.765 50.3147 328.03 49.0417 326.787 48.7084L318.152 46.3925C316.909 46.0592 315.637 46.7938 315.304 48.0367L312.335 59.1268C312.003 60.3697 312.738 61.6427 313.98 61.976L332.27 66.8813C332.876 67.0437 333.498 66.9542 334.043 66.6394C334.588 66.3245 334.965 65.8107 335.139 65.2254L341.452 41.643C341.784 40.4002 341.049 39.1271 339.807 38.7938L313.093 31.6122Z" fill="#FF0000"/>
<path d="M348.595 3.22053L324.665 -3.19742C324.06 -3.35979 323.438 -3.27033 322.893 -2.95547C322.348 -2.64062 321.971 -2.12681 321.797 -1.54152L315.39 22.3914C315.228 22.9969 315.318 23.6187 315.633 24.1643C315.948 24.7099 316.462 25.0868 317.047 25.2608L340.977 31.6788C341.614 31.8497 342.224 31.74 342.75 31.4368C343.275 31.1336 343.663 30.64 343.845 30.0229L350.252 6.08992C350.573 4.82686 349.838 3.55382 348.595 3.22053ZM339.926 26.5467L320.501 21.354L325.705 1.91441L345.122 7.13905L339.926 26.5467Z" fill="#FF0000"/>
<path d="M354.004 -3.97043C354.609 -3.80807 355.231 -3.89751 355.776 -4.21236L404.069 -32.0941C404.614 -32.409 404.991 -32.9228 405.165 -33.5081L412.322 -60.2454C412.655 -61.4883 411.92 -62.7613 410.677 -63.0946L387.098 -69.4185C385.855 -69.7518 384.583 -69.0172 384.25 -67.7743L379.353 -49.482C379.02 -48.2392 379.755 -46.9661 380.998 -46.6328L392.087 -43.6589C393.298 -43.3341 394.631 -44.1038 394.935 -45.3031L397.247 -53.9394C397.579 -55.1822 396.844 -56.4553 395.602 -56.7885C394.359 -57.1218 393.086 -56.3872 392.754 -55.1443L391.048 -48.7707L384.484 -50.5312L388.177 -64.33L407.232 -59.2196L400.928 -35.6691L354.312 -8.7552L330.764 -15.0706L335.866 -34.1277L349.663 -30.4274L347.905 -23.8625L341.532 -25.5717C340.29 -25.905 339.017 -25.1703 338.685 -23.9275C338.352 -22.6846 339.087 -21.4116 340.33 -21.0783L348.965 -18.7624C349.57 -18.6 350.192 -18.6895 350.737 -19.0043C351.282 -19.3192 351.659 -19.833 351.833 -20.4183L354.802 -31.5084C355.134 -32.7512 354.399 -34.0243 353.157 -34.3575L334.867 -39.2629C333.624 -39.5962 332.352 -38.8615 332.019 -37.6187L325.706 -14.0362C325.373 -12.7934 326.108 -11.5203 327.351 -11.1871L354.004 -3.97043Z" fill="#FF0000"/>
<path d="M410.345 -24.5361C409.739 -24.6985 409.118 -24.609 408.572 -24.2942L360.28 3.58758C359.734 3.90243 359.358 4.41623 359.184 5.00151L352.026 31.7389C351.694 32.9817 352.429 34.2548 353.671 34.5881L377.251 40.912C377.856 41.0744 378.478 40.9849 379.023 40.6701C379.568 40.3552 379.945 39.8414 380.119 39.2561L385.016 20.9638C385.348 19.721 384.613 18.4479 383.371 18.1146L372.282 15.1407C371.039 14.8074 369.767 15.542 369.434 16.7849L367.122 25.4211C366.789 26.664 367.524 27.9371 368.767 28.2703C370.01 28.6036 371.282 27.869 371.615 26.6261L373.321 20.2525L379.885 22.0129L376.191 35.8118L357.125 30.6812L363.429 7.13066L410.046 -19.7832L433.593 -13.4678L428.503 5.6095L414.706 1.90914L416.463 -4.65569L422.836 -2.94651C424.079 -2.61322 425.351 -3.34788 425.684 -4.59073C426.017 -5.83359 425.282 -7.10664 424.039 -7.43992L415.404 -9.75584C414.161 -10.0891 412.889 -9.35448 412.556 -8.11162L409.587 2.97848C409.255 4.22134 409.99 5.49438 411.232 5.82767L429.522 10.733C430.128 10.8954 430.749 10.8059 431.295 10.4911C431.84 10.1762 432.217 9.66239 432.39 9.07711L438.703 -14.5053C439.036 -15.7482 438.301 -17.0212 437.058 -17.3545L410.345 -24.5361Z" fill="#FF0000"/>
</svg>
