<svg width="180" height="81" viewBox="0 0 180 81" fill="none" xmlns="http://www.w3.org/2000/svg">
<path fill-rule="evenodd" clip-rule="evenodd" d="M21.6338 13.4882L21.7569 13.2421V11.0454L26.0891 8.17285L26.9463 8.73703L107.431 8.85003L107.101 9.59425L109.087 10.3002L108.706 52.029L4.45919 53.4222L4.72386 46.3497L4.56309 43.7632L4.45919 43.64L4.42904 43.4428V41.7675L2.70105 40.8575L4.58211 40.7232L4.33608 37.9886L4.46932 32.3936L8.776 28.0203H8.52994L8.776 25.3989L8.60853 20.3622L8.74254 17.2677L12.8147 16.5711L21.6338 13.4882Z" fill="#FEFEFE"/>
<path fill-rule="evenodd" clip-rule="evenodd" d="M142.702 45.0264H177.58L177.343 43.763L177.611 43.4534L177.541 32.3175L142.431 31.3477V45.0264H142.702Z" fill="#FEFEFE"/>
<path fill-rule="evenodd" clip-rule="evenodd" d="M177.014 27.1266H172.136V22.0054H177.014V27.1266Z" fill="#89291F"/>
<path d="M4.4592 32.2141H108.905H109.028V32.3371V43.6401V43.7632H108.905H4.4592H4.33618V43.6401V32.3371V32.2141H4.4592ZM108.782 32.4601H4.58221V43.5171H108.782V32.4601Z" fill="#89291F"/>
<path d="M177.457 32.4601H143.154V43.5171H177.457V32.4601ZM143.031 32.2141H177.58H177.703V32.3371V43.6401V43.7632H177.58H143.031H142.908V43.6401V32.3371V32.2141H143.031Z" fill="#89291F"/>
<path d="M8.65298 18.2346H108.905H109.028V18.3576V28.1431V28.2662H108.905H8.65298H8.52997V28.1431V18.3576V18.2346H8.65298ZM108.782 18.4807H8.776V28.0201H108.782V18.4807Z" fill="#89291F"/>
<path d="M21.6339 11.0454H108.905H109.028V11.1684V13.3651V13.4881H108.905H21.6339H21.511L21.5109 13.3651V11.1684L21.511 11.0454H21.6339ZM108.782 11.2914H21.7569V13.2421H108.782V11.2914Z" fill="#89291F"/>
<path fill-rule="evenodd" clip-rule="evenodd" d="M5.05841 18.3577H108.905V13.365H13.4459L5.05841 18.3577Z" fill="#89291F"/>
<path fill-rule="evenodd" clip-rule="evenodd" d="M18.6398 11.1684H108.905V8.17285H23.6721L18.6398 11.1684Z" fill="#89291F"/>
<path fill-rule="evenodd" clip-rule="evenodd" d="M0.267029 28.4143H108.905V32.5164H3.78516L0.267029 28.4143Z" fill="white"/>
<path d="M0.267063 28.2913H108.905H109.028V28.4143V32.5163L109.028 32.6394H108.905H3.7852H3.72909L3.69195 32.5961L0.173819 28.494L0 28.2913H0.267063ZM108.782 28.5373H0.534157L3.84127 32.3933H108.782V28.5373Z" fill="#89291F"/>
<path fill-rule="evenodd" clip-rule="evenodd" d="M180 28.4143H142.899V16.9597H165.944L180 28.4143Z" fill="#89291F"/>
<path fill-rule="evenodd" clip-rule="evenodd" d="M179.601 28.4143H142.933V32.5164H177.58L179.601 28.4143Z" fill="white"/>
<path d="M179.403 28.5373H143.056V32.3933H177.504L179.403 28.5373ZM142.933 28.2913H179.601H179.798L179.711 28.4685L177.69 32.5706L177.657 32.6394H177.58H142.933H142.81V32.5163V28.4143V28.2913H142.933H142.933Z" fill="#89291F"/>
<path fill-rule="evenodd" clip-rule="evenodd" d="M108.829 54.7344H142.899V7.05674C131.649 0.225737 120.302 -0.344447 108.829 7.05674V54.7344Z" fill="white"/>
<path d="M108.952 54.6114H142.776V7.1257C137.19 3.74449 131.58 1.91294 125.946 1.84218C120.312 1.77158 114.649 3.46191 108.952 7.12384V54.6114ZM142.899 54.8574H108.829H108.706V54.7344V7.05677V6.99011L108.763 6.95343C114.52 3.23948 120.248 1.52562 125.949 1.59712C131.649 1.66871 137.319 3.52526 142.962 6.95194L143.022 6.98812V7.05675V54.7344L143.022 54.8574H142.899V54.8574Z" fill="#89291F"/>
<path fill-rule="evenodd" clip-rule="evenodd" d="M119.104 14.385H133.32V40.9254H119.104V14.385Z" fill="white"/>
<path fill-rule="evenodd" clip-rule="evenodd" d="M142.717 57.3441H108.829V53.9001H142.717V57.3441Z" fill="#89291F"/>
<path fill-rule="evenodd" clip-rule="evenodd" d="M172.913 34.884C174.363 34.8817 174.71 35.9828 174.698 37.1314V41.428H171.128C171.128 39.9958 171.128 38.5636 171.128 37.1314C171.167 35.8826 171.463 34.8864 172.913 34.884Z" fill="#89291F"/>
<path fill-rule="evenodd" clip-rule="evenodd" d="M166.762 34.884C168.212 34.8817 168.56 35.9828 168.547 37.1314V41.428H164.978C164.978 39.9958 164.978 38.5636 164.978 37.1314C165.017 35.8826 165.312 34.8864 166.762 34.884Z" fill="#89291F"/>
<path fill-rule="evenodd" clip-rule="evenodd" d="M160.612 34.884C162.062 34.8817 162.409 35.9828 162.396 37.1314V41.428H158.827C158.827 39.9958 158.827 38.5636 158.827 37.1314C158.866 35.8826 159.161 34.8864 160.612 34.884Z" fill="#89291F"/>
<path fill-rule="evenodd" clip-rule="evenodd" d="M154.461 34.884C155.911 34.8817 156.258 35.9828 156.245 37.1314V41.428H152.676C152.676 39.9958 152.676 38.5636 152.676 37.1314C152.715 35.8826 153.011 34.8864 154.461 34.884Z" fill="#89291F"/>
<path fill-rule="evenodd" clip-rule="evenodd" d="M148.31 34.884C149.76 34.8817 150.107 35.9828 150.095 37.1314V41.428H146.525C146.525 39.9958 146.525 38.5636 146.525 37.1314C146.564 35.8826 146.86 34.8864 148.31 34.884Z" fill="#89291F"/>
<path fill-rule="evenodd" clip-rule="evenodd" d="M4.45923 43.6401H108.905V57.3003H4.45923V43.6401Z" fill="#89291F"/>
<path fill-rule="evenodd" clip-rule="evenodd" d="M177.58 43.6401H143.031V57.3003H177.58V43.6401Z" fill="#89291F"/>
<path d="M4.39311 41.5214H108.782V40.9692H3.16755L4.39314 41.5214H4.39311ZM108.905 41.7674H4.36731H4.34147L4.31684 41.7564L2.5452 40.9581L2.02374 40.7231H2.59563H108.905H109.028V40.8462V41.6444V41.7674H108.905Z" fill="#89291F"/>
<path fill-rule="evenodd" clip-rule="evenodd" d="M177.634 41.6444H143.227V40.8462H178.217L177.634 41.6444Z" fill="white"/>
<path d="M177.634 41.7674H143.227H143.104V41.6444V40.8462V40.7231H143.227H178.217H178.459L178.317 40.9187L177.733 41.717L177.696 41.7674H177.634H177.634ZM143.35 41.5214H177.572L177.975 40.9692H143.35V41.5214Z" fill="#89291F"/>
<path fill-rule="evenodd" clip-rule="evenodd" d="M171.128 54.0514H174.766V46.4023H171.128V54.0514Z" fill="white"/>
<path fill-rule="evenodd" clip-rule="evenodd" d="M164.978 54.0514H168.615V46.4023H164.978V54.0514Z" fill="white"/>
<path fill-rule="evenodd" clip-rule="evenodd" d="M158.827 54.0514H162.464V46.4023H158.827V54.0514Z" fill="white"/>
<path fill-rule="evenodd" clip-rule="evenodd" d="M152.676 54.0514H156.313V46.4023H152.676V54.0514Z" fill="white"/>
<path fill-rule="evenodd" clip-rule="evenodd" d="M146.525 54.0514H150.163V46.4023H146.525V54.0514Z" fill="white"/>
<path fill-rule="evenodd" clip-rule="evenodd" d="M177.58 54.0513H143.031V54.1879H177.58V54.0513Z" fill="white"/>
<path fill-rule="evenodd" clip-rule="evenodd" d="M108.905 55.9519H4.84875V56.0886H108.905V55.9519Z" fill="white"/>
<path fill-rule="evenodd" clip-rule="evenodd" d="M48.9894 46.386H32.9445V44.0881H48.9894V46.386Z" fill="white"/>
<path fill-rule="evenodd" clip-rule="evenodd" d="M48.9894 49.0335H32.9445V46.7356H48.9894V49.0335Z" fill="white"/>
<path fill-rule="evenodd" clip-rule="evenodd" d="M48.9894 51.6941H32.9445V49.3962H48.9894V51.6941Z" fill="white"/>
<path fill-rule="evenodd" clip-rule="evenodd" d="M48.9894 54.3948H32.9445V52.0969H48.9894V54.3948Z" fill="white"/>
<path fill-rule="evenodd" clip-rule="evenodd" d="M48.9894 57.1011H32.9445V54.8032H48.9894V57.1011Z" fill="white"/>
<path fill-rule="evenodd" clip-rule="evenodd" d="M4.36737 32.5163H108.905V32.1472L3.93427 32.272L4.36737 32.5163Z" fill="white"/>
<path d="M4.86602 32.3935H108.782V32.2699L4.86602 32.3935ZM108.905 32.6395H4.36739H4.33641L4.30739 32.6231L3.87428 32.3787L3.46918 32.1502L3.93431 32.1495L108.905 32.0248L109.028 32.0247V32.1473V32.5165V32.6395H108.905L108.905 32.6395Z" fill="#89291F"/>
<path fill-rule="evenodd" clip-rule="evenodd" d="M52.8821 55.724H63.4211V44.2759H52.8821V55.724Z" fill="white"/>
<path fill-rule="evenodd" clip-rule="evenodd" d="M58.7475 54.0514H62.4863V46.4023H58.7475V54.0514Z" fill="#89291F"/>
<path fill-rule="evenodd" clip-rule="evenodd" d="M53.8168 54.0514H57.5556V46.4023H53.8168V54.0514Z" fill="#89291F"/>
<path fill-rule="evenodd" clip-rule="evenodd" d="M66.4138 55.724H76.9526V44.2759H66.4138V55.724Z" fill="white"/>
<path fill-rule="evenodd" clip-rule="evenodd" d="M72.2792 54.0514H76.018V46.4023H72.2792V54.0514Z" fill="#89291F"/>
<path fill-rule="evenodd" clip-rule="evenodd" d="M67.3485 54.0514H71.0873V46.4023H67.3485V54.0514Z" fill="#89291F"/>
<path fill-rule="evenodd" clip-rule="evenodd" d="M79.9454 55.724H90.4844V44.2759H79.9454V55.724Z" fill="white"/>
<path fill-rule="evenodd" clip-rule="evenodd" d="M85.811 54.0514H89.5498V46.4023H85.811V54.0514Z" fill="#89291F"/>
<path fill-rule="evenodd" clip-rule="evenodd" d="M80.8801 54.0514H84.6189V46.4023H80.8801V54.0514Z" fill="#89291F"/>
<path fill-rule="evenodd" clip-rule="evenodd" d="M93.4772 55.724H104.016V44.2759H93.4772V55.724Z" fill="white"/>
<path fill-rule="evenodd" clip-rule="evenodd" d="M99.3426 54.0514H103.081V46.4023H99.3426V54.0514Z" fill="#89291F"/>
<path fill-rule="evenodd" clip-rule="evenodd" d="M94.4119 54.0514H98.1506V46.4023H94.4119V54.0514Z" fill="#89291F"/>
<path fill-rule="evenodd" clip-rule="evenodd" d="M28.0995 34.023C29.5496 34.0206 29.8969 35.1217 29.8842 36.2703V40.5669H26.3148C26.3148 39.1348 26.3148 37.7025 26.3148 36.2703C26.3538 35.0216 26.6494 34.0253 28.0995 34.023Z" fill="#89291F"/>
<path fill-rule="evenodd" clip-rule="evenodd" d="M21.9487 34.023C23.3988 34.0206 23.7461 35.1217 23.7334 36.2703V40.5669H20.164C20.164 39.1348 20.164 37.7025 20.164 36.2703C20.203 35.0216 20.4986 34.0253 21.9487 34.023Z" fill="#89291F"/>
<path fill-rule="evenodd" clip-rule="evenodd" d="M15.798 34.023C17.2481 34.0206 17.5954 35.1217 17.5827 36.2703V40.5669H14.0133C14.0133 39.1348 14.0133 37.7025 14.0133 36.2703C14.0523 35.0216 14.3479 34.0253 15.798 34.023Z" fill="#89291F"/>
<path fill-rule="evenodd" clip-rule="evenodd" d="M9.6472 34.023C11.0973 34.0206 11.4446 35.1217 11.4319 36.2703V40.5669H7.86249C7.86249 39.1348 7.86249 37.7025 7.86249 36.2703C7.90149 35.0216 8.19711 34.0253 9.6472 34.023Z" fill="#89291F"/>
<path fill-rule="evenodd" clip-rule="evenodd" d="M26.3148 54.0514H29.9522V46.4023H26.3148V54.0514Z" fill="white"/>
<path fill-rule="evenodd" clip-rule="evenodd" d="M20.164 54.0514H23.8014V46.4023H20.164V54.0514Z" fill="white"/>
<path fill-rule="evenodd" clip-rule="evenodd" d="M14.0132 54.0514H17.6506V46.4023H14.0132V54.0514Z" fill="white"/>
<path fill-rule="evenodd" clip-rule="evenodd" d="M7.86249 54.0514H11.4999V46.4023H7.86249V54.0514Z" fill="white"/>
<path fill-rule="evenodd" clip-rule="evenodd" d="M10.8576 28.0334H16.3446V20.3845H10.8576V28.0334Z" fill="#89291F"/>
<path fill-rule="evenodd" clip-rule="evenodd" d="M19.3405 28.0334H24.8274V20.3845H19.3405V28.0334Z" fill="#89291F"/>
<path fill-rule="evenodd" clip-rule="evenodd" d="M27.5084 28.0334H32.9953V20.3845H27.5084V28.0334Z" fill="#89291F"/>
<path fill-rule="evenodd" clip-rule="evenodd" d="M41.0034 11.6487C44.4343 11.6487 47.4261 13.4249 49.0067 16.0577C47.9301 17.1988 47.202 19.3811 47.202 21.8863C47.202 21.9882 47.2033 22.0897 47.2057 22.1905H45.7889C45.7889 21.2017 45.7844 21.1395 45.7844 20.3426C45.7844 18.993 43.6438 15.8229 41.0034 15.8229C38.4099 15.8229 36.2989 17.7751 36.2245 20.2099H36.2244V20.2136C36.2043 20.8591 36.2244 21.5412 36.2244 22.1906H34.7888C34.7911 22.0898 34.7923 21.9883 34.7923 21.8863C34.7923 19.3871 34.0677 17.209 32.9952 16.0657C34.5746 13.4286 37.5689 11.6487 41.0034 11.6487L41.0034 11.6487Z" fill="white"/>
<path d="M41.0034 11.5256C42.7098 11.5256 44.3096 11.9599 45.6854 12.7179C47.1109 13.5031 48.2965 14.6365 49.1119 15.9945L49.1599 16.0742L49.0961 16.1416C48.561 16.7087 48.1131 17.5424 47.8014 18.5491C47.4987 19.5268 47.3251 20.6675 47.3251 21.8863H47.3246L47.3255 22.0355L47.3282 22.1885L47.3304 22.3135H47.2056H45.7891H45.6661V22.1904C45.6661 21.5728 45.665 21.356 45.6641 21.1566C45.6628 20.8801 45.6615 20.6237 45.6615 20.3426C45.6615 19.6008 44.9807 18.2789 43.9171 17.2733C43.1174 16.5173 42.1031 15.9458 41.0034 15.9458C39.7404 15.9458 38.5951 16.4202 37.7565 17.19C36.9171 17.9604 36.3842 19.027 36.3472 20.2098H36.3474V20.2135L36.3469 20.2167V20.2168L36.3456 20.2644C36.334 20.6799 36.3383 21.1096 36.3425 21.535C36.345 21.7794 36.3474 22.0234 36.3474 22.1904V22.3135H36.2244H34.7888H34.6641L34.6663 22.1885L34.669 22.0368L34.6698 21.8863H34.6693C34.6693 20.6703 34.4965 19.5323 34.1951 18.5562C33.8849 17.5509 33.4387 16.7179 32.9058 16.1498L32.8425 16.0822L32.8901 16.0027C33.7045 14.6425 34.8904 13.507 36.317 12.7202C37.6938 11.9609 39.2951 11.5256 41.0034 11.5256H41.0034ZM45.5673 12.9332C44.2269 12.1947 42.6676 11.7717 41.0034 11.7717C39.3375 11.7717 37.7765 12.1957 36.4352 12.9355C35.074 13.6863 33.9382 14.7623 33.1478 16.0505C33.678 16.6427 34.1204 17.4824 34.4296 18.4841C34.7383 19.484 34.9154 20.6469 34.9154 21.8864L34.9149 21.8869L34.9141 22.0392V22.0407L34.9136 22.0674H36.1013C36.1008 21.8638 36.0991 21.7007 36.0975 21.537C36.093 21.0932 36.0885 20.6447 36.1018 20.2134H36.1014V20.2098V20.0867H36.1074C36.1766 18.8808 36.7316 17.7975 37.5902 17.0094C38.4729 16.1989 39.6771 15.6997 41.0035 15.6997C42.174 15.6997 43.2453 16.3 44.0854 17.0943C45.1965 18.1447 45.9076 19.5457 45.9076 20.3426C45.9076 20.8151 45.9085 20.9845 45.9092 21.1555C45.9106 21.4252 45.9119 21.7044 45.9122 22.0674H47.0809L47.0804 22.0394V22.0379L47.0796 21.8868L47.0791 21.8863C47.0791 20.6439 47.257 19.4782 47.567 18.4769C47.8776 17.4736 48.3218 16.6333 48.854 16.0422C48.0629 14.7566 46.9274 13.6824 45.5674 12.9331L45.5673 12.9332Z" fill="#89291F"/>
<path fill-rule="evenodd" clip-rule="evenodd" d="M38.134 28.0334H43.621V18.3577H38.134V28.0334Z" fill="#89291F"/>
<path fill-rule="evenodd" clip-rule="evenodd" d="M38.134 43.6401H43.621V32.1475H38.134V43.6401Z" fill="#89291F"/>
<path fill-rule="evenodd" clip-rule="evenodd" d="M0.266968 28.4023H108.905V28.0332H0.267092L0.266968 28.4023Z" fill="white"/>
<path d="M0.389417 28.2794H108.782V28.1562H0.389541L0.389417 28.2794ZM108.905 28.5254H0.266898H0.144348V28.4024L0.144472 28.0332L0.144596 27.9102H0.266991H108.905H109.028V28.0332V28.4024V28.5254H108.905Z" fill="#89291F"/>
<path fill-rule="evenodd" clip-rule="evenodd" d="M2.02622 30.3647H108.905V29.9956H1.51459L2.02622 30.3647Z" fill="white"/>
<path d="M2.06517 30.2417H108.782V30.1186H1.89454L2.06514 30.2417H2.06517ZM108.905 30.4878H2.02617H1.98717L1.95458 30.4643L1.44294 30.0951L1.13452 29.8726H1.5145H108.905H109.028V29.9956V30.3648V30.4878H108.905H108.905Z" fill="#89291F"/>
<path d="M177.003 32.6394H142.933H142.81V32.5164V32.1472V32.0242H142.933H177.58H178L177.646 32.2505L177.069 32.6197L177.038 32.6394H177.003L177.003 32.6394ZM143.056 32.3934H176.968L177.161 32.2702H143.056V32.3934H143.056Z" fill="#89291F"/>
<path d="M178.334 30.2851H142.933H142.81V30.1621V29.7929V29.6699H142.933H178.934H179.369L178.999 29.8977L178.399 30.2669L178.369 30.2851H178.334ZM143.056 30.0391H178.3L178.5 29.9159H143.056V30.0391Z" fill="#89291F"/>
<path fill-rule="evenodd" clip-rule="evenodd" d="M49.0961 12.6875H54.2125V12.01H49.0961V12.6875Z" fill="#89291F"/>
<path fill-rule="evenodd" clip-rule="evenodd" d="M56.477 12.6875H61.5934V12.01H56.477V12.6875Z" fill="#89291F"/>
<path fill-rule="evenodd" clip-rule="evenodd" d="M63.8578 12.6875H68.9742V12.01H63.8578V12.6875Z" fill="#89291F"/>
<path fill-rule="evenodd" clip-rule="evenodd" d="M71.2388 12.6875H76.3553V12.01H71.2388V12.6875Z" fill="#89291F"/>
<path fill-rule="evenodd" clip-rule="evenodd" d="M78.6196 12.6875H83.736V12.01H78.6196V12.6875Z" fill="#89291F"/>
<path fill-rule="evenodd" clip-rule="evenodd" d="M86.0006 12.6875H91.117V12.01H86.0006V12.6875Z" fill="#89291F"/>
<path fill-rule="evenodd" clip-rule="evenodd" d="M93.3816 12.6875H98.498V12.01H93.3816V12.6875Z" fill="#89291F"/>
<path fill-rule="evenodd" clip-rule="evenodd" d="M100.762 12.6875H105.879V12.01H100.762V12.6875Z" fill="#89291F"/>
<path fill-rule="evenodd" clip-rule="evenodd" d="M23.0245 12.6875H28.141V12.01H23.0245V12.6875Z" fill="#89291F"/>
<path fill-rule="evenodd" clip-rule="evenodd" d="M30.4055 12.6875H35.5219V12.01H30.4055V12.6875Z" fill="#89291F"/>
<path fill-rule="evenodd" clip-rule="evenodd" d="M52.7847 34.1241C56.0064 32.2788 59.5333 32.0152 63.5185 34.1241V40.6733H52.7847V34.1241Z" fill="#89291F"/>
<path fill-rule="evenodd" clip-rule="evenodd" d="M60.6168 34.9229C62.1073 34.9207 62.4642 35.9118 62.4512 36.9456V40.8127H58.7823C58.7823 39.5237 58.7823 38.2346 58.7823 36.9456C58.8223 35.8217 59.1262 34.925 60.6167 34.9229H60.6168ZM55.686 34.9229C57.1765 34.9207 57.5335 35.9118 57.5205 36.9456V40.8127H53.8515C53.8515 39.5237 53.8515 38.2346 53.8515 36.9456C53.8916 35.8217 54.1955 34.925 55.686 34.9229H55.686Z" fill="white"/>
<path fill-rule="evenodd" clip-rule="evenodd" d="M57.117 30.3645H58.9108V33.3356H57.117V30.3645Z" fill="white"/>
<path d="M57.1169 30.2417H58.9107H59.0338V30.3648V33.3358V33.4588H58.9107H57.1169H56.9939V33.3358V30.3648V30.2417H57.1169ZM58.7877 30.4878H57.2399V33.2128H58.7877V30.4878Z" fill="#89291F"/>
<path fill-rule="evenodd" clip-rule="evenodd" d="M66.3164 34.1241C69.5381 32.2788 73.0649 32.0152 77.0501 34.1241V40.6733H66.3164V34.1241Z" fill="#89291F"/>
<path fill-rule="evenodd" clip-rule="evenodd" d="M74.1484 34.9229C75.639 34.9207 75.9959 35.9118 75.9829 36.9456V40.8127H72.3139C72.3139 39.5237 72.3139 38.2346 72.3139 36.9456C72.354 35.8217 72.6579 34.925 74.1484 34.9229H74.1484ZM69.2177 34.9229C70.7083 34.9207 71.0652 35.9118 71.0521 36.9456V40.8127H67.3832C67.3832 39.5237 67.3832 38.2346 67.3832 36.9456C67.4233 35.8217 67.7271 34.925 69.2176 34.9229H69.2177Z" fill="white"/>
<path fill-rule="evenodd" clip-rule="evenodd" d="M70.6486 30.3645H72.4424V33.3356H70.6486V30.3645Z" fill="white"/>
<path d="M70.6486 30.2417H72.4424H72.5654V30.3648V33.3358V33.4588H72.4424H70.6486H70.5256V33.3358V30.3648V30.2417H70.6486ZM72.3194 30.4878H70.7716V33.2128H72.3194V30.4878Z" fill="#89291F"/>
<path fill-rule="evenodd" clip-rule="evenodd" d="M79.8481 34.1241C83.0698 32.2788 86.5966 32.0152 90.5818 34.1241V40.6733H79.8481V34.1241Z" fill="#89291F"/>
<path fill-rule="evenodd" clip-rule="evenodd" d="M87.6801 34.9229C89.1707 34.9207 89.5276 35.9118 89.5146 36.9456V40.8127H85.8456C85.8456 39.5237 85.8456 38.2346 85.8456 36.9456C85.8857 35.8217 86.1895 34.925 87.6801 34.9229H87.6801ZM82.7494 34.9229C84.2399 34.9207 84.5968 35.9118 84.5838 36.9456V40.8127H80.9149C80.9149 39.5237 80.9149 38.2346 80.9149 36.9456C80.9549 35.8217 81.2588 34.925 82.7493 34.9229H82.7494Z" fill="white"/>
<path fill-rule="evenodd" clip-rule="evenodd" d="M84.1803 30.3645H85.9741V33.3356H84.1803V30.3645Z" fill="white"/>
<path d="M84.1804 30.2417H85.9741H86.0972V30.3648V33.3358V33.4588H85.9741H84.1804H84.0573V33.3358V30.3648V30.2417H84.1804ZM85.8511 30.4878H84.3034V33.2128H85.8511V30.4878Z" fill="#89291F"/>
<path fill-rule="evenodd" clip-rule="evenodd" d="M93.3797 34.1241C96.6014 32.2788 100.128 32.0152 104.113 34.1241V40.6733H93.3797V34.1241Z" fill="#89291F"/>
<path fill-rule="evenodd" clip-rule="evenodd" d="M101.212 34.9229C102.702 34.9207 103.059 35.9118 103.046 36.9456V40.8127H99.3773C99.3773 39.5237 99.3773 38.2346 99.3773 36.9456C99.4174 35.8217 99.7212 34.925 101.212 34.9229H101.212ZM96.281 34.9229C97.7716 34.9207 98.1285 35.9118 98.1155 36.9456V40.8127H94.4465C94.4465 39.5237 94.4465 38.2346 94.4465 36.9456C94.4866 35.8217 94.7905 34.925 96.281 34.9229H96.281Z" fill="white"/>
<path fill-rule="evenodd" clip-rule="evenodd" d="M97.712 30.3645H99.5059V33.3356H97.712V30.3645Z" fill="white"/>
<path d="M97.712 30.2417H99.5058H99.6288V30.3648V33.3358V33.4588H99.5058H97.712H97.589V33.3358V30.3648V30.2417H97.712ZM99.3828 30.4878H97.835V33.2128H99.3828V30.4878Z" fill="#89291F"/>
<path fill-rule="evenodd" clip-rule="evenodd" d="M142.899 56.8875V10.2395H142.762V56.8875H142.899Z" fill="black"/>
<path d="M143.022 10.2395V56.8876V57.0106H142.899H142.762H142.639V56.8876V10.2395V10.1165H142.762H142.899H143.022V10.2395Z" fill="#89291F"/>
<path fill-rule="evenodd" clip-rule="evenodd" d="M108.966 55.8405V9.97778H108.829V55.8405H108.966Z" fill="black"/>
<path d="M109.089 9.97775V55.8405V55.9636H108.966H108.829H108.706V55.8405V9.97775V9.85474H108.829H108.966H109.089V9.97775Z" fill="#89291F"/>
<path d="M35.9473 22.2931H34.8762V43.517H35.9473V22.2931ZM34.7532 22.0471H36.0703H36.1934V22.1701V43.64V43.763H36.0703H34.7532H34.6302V43.64V22.1701V22.0471H34.7532Z" fill="#89291F"/>
<path d="M47.03 22.2931H45.9588V43.517H47.03V22.2931ZM45.8357 22.0471H47.153H47.276V22.1701V43.64V43.763H47.153H45.8357H45.7127V43.64V22.1701V22.0471H45.8357Z" fill="#89291F"/>
<path fill-rule="evenodd" clip-rule="evenodd" d="M178.026 62.6078H3.55011V59.2466H178.026V62.6078Z" fill="#89291F"/>
<path fill-rule="evenodd" clip-rule="evenodd" d="M11.542 27.8406H15.66V22.1001H11.542V27.8406Z" fill="#FEFEFE"/>
<path fill-rule="evenodd" clip-rule="evenodd" d="M20.025 27.8406H24.143V22.1001H20.025V27.8406Z" fill="#FEFEFE"/>
<path fill-rule="evenodd" clip-rule="evenodd" d="M28.1591 27.8406H32.277V22.1001H28.1591V27.8406Z" fill="#FEFEFE"/>
<path fill-rule="evenodd" clip-rule="evenodd" d="M53.0351 28.0334H63.2681V20.3845H53.0351V28.0334Z" fill="#89291F"/>
<path fill-rule="evenodd" clip-rule="evenodd" d="M53.711 27.8406H62.5923V22.1001H53.711V27.8406Z" fill="#FEFEFE"/>
<path fill-rule="evenodd" clip-rule="evenodd" d="M66.5668 28.0334H76.7997V20.3845H66.5668V28.0334Z" fill="#89291F"/>
<path fill-rule="evenodd" clip-rule="evenodd" d="M67.2427 27.8406H76.1238V22.1001H67.2427V27.8406Z" fill="#FEFEFE"/>
<path fill-rule="evenodd" clip-rule="evenodd" d="M80.0984 28.0334H90.3315V20.3845H80.0984V28.0334Z" fill="#89291F"/>
<path fill-rule="evenodd" clip-rule="evenodd" d="M80.7744 27.8406H89.6555V22.1001H80.7744V27.8406Z" fill="#FEFEFE"/>
<path fill-rule="evenodd" clip-rule="evenodd" d="M93.6302 28.0334H103.863V20.3845H93.6302V28.0334Z" fill="#89291F"/>
<path fill-rule="evenodd" clip-rule="evenodd" d="M94.306 27.8406H103.187V22.1001H94.306V27.8406Z" fill="#FEFEFE"/>
<path fill-rule="evenodd" clip-rule="evenodd" d="M37.278 57.2076H44.477V49.3962H37.278V57.2076Z" fill="#89291F"/>
<path d="M125.821 1.8421C128.799 1.8421 131.581 2.70301 133.94 4.19319C136.382 5.73699 138.373 7.95871 139.658 10.6012L139.768 10.8268L139.594 10.914L133.283 14.0825C133.182 13.99 133.081 13.8995 132.978 13.8108L139.337 10.6182C138.078 8.1325 136.17 6.03834 133.84 4.56604C131.514 3.09594 128.766 2.24665 125.821 2.24665C122.775 2.24665 119.939 3.15567 117.562 4.72103C115.37 6.16495 113.568 8.16623 112.352 10.5258L112.359 10.5293L118.767 13.8012C118.665 13.8897 118.563 13.9797 118.463 14.0718L112.34 10.9456L111.921 10.6074L111.967 10.2775C113.196 7.49066 114.967 5.99185 117.46 4.35C119.869 2.76361 122.74 1.84204 125.821 1.84204V1.8421Z" fill="#89291F"/>
<path d="M125.822 5.8953C128.135 5.8953 130.301 6.496 132.153 7.54068C134.075 8.62501 135.66 10.1898 136.723 12.0597L136.854 12.2897L136.665 12.3843L133.283 14.0823C133.182 13.9898 133.081 13.8995 132.978 13.8107L136.393 12.0964C135.361 10.3784 133.865 8.93611 132.063 7.91981C130.24 6.89115 128.105 6.29987 125.822 6.29987C123.553 6.29987 121.431 6.88344 119.616 7.89897C117.823 8.90239 116.33 10.3275 115.293 12.0271L118.767 13.8013C118.665 13.8897 118.563 13.9797 118.463 14.0718L115.018 12.3129L114.828 12.2161L114.961 11.9865C116.03 10.1371 117.613 8.59089 119.527 7.52001C121.371 6.48822 123.523 5.89526 125.822 5.89526L125.822 5.8953Z" fill="#89291F"/>
<path d="M125.821 10.5191C127.377 10.5191 128.841 10.8207 130.121 11.3519C131.453 11.9048 132.587 12.7086 133.418 13.6814L133.617 13.9147L133.38 14.0338L133.283 14.0822C133.182 13.9897 133.081 13.8996 132.978 13.8108L133.055 13.7722C132.273 12.9344 131.246 12.2373 130.053 11.742C128.795 11.22 127.354 10.9233 125.821 10.9233C124.301 10.9233 122.87 11.215 121.62 11.7295C120.435 12.2164 119.412 12.9031 118.628 13.73L118.767 13.8009C118.665 13.8894 118.564 13.9797 118.463 14.0717L118.301 13.9889L118.062 13.8671L118.264 13.635C119.097 12.6763 120.227 11.8843 121.553 11.3392C122.826 10.8158 124.279 10.519 125.821 10.519V10.5191Z" fill="#89291F"/>
<path d="M126.098 2.04395L126.121 11.0082C126.036 11.0062 125.952 11.0049 125.867 11.0049L125.86 11.0051L125.837 2.04562L126.098 2.04395Z" fill="#89291F"/>
<path d="M121.215 3.02783L124.095 11.1645C124.002 11.1815 123.909 11.1998 123.817 11.2193L120.986 3.22064L121.215 3.02783Z" fill="#89291F"/>
<path d="M116.345 6.43192L121.555 11.9777C121.449 12.0271 121.344 12.0787 121.239 12.1316L116.197 6.76347L116.345 6.43188V6.43192Z" fill="#89291F"/>
<path d="M131.019 3.22061L128.168 11.2753C128.077 11.2536 127.985 11.2333 127.892 11.2141L130.79 3.02783L131.019 3.22063V3.22061Z" fill="#89291F"/>
<path d="M135.808 6.76347L130.677 12.2252C130.574 12.1707 130.47 12.1183 130.366 12.0673L135.659 6.43188L135.808 6.76347Z" fill="#89291F"/>
<path d="M142.702 8.81714V16.9063V17.0412H142.567H139.633H139.498V16.9063V8.81714H139.768V16.7713H142.432V8.81714H142.702Z" fill="#89291F"/>
<path d="M139.633 20.9009H142.567H142.702V21.0358V29.4177V29.5528H142.567H139.633H139.498V29.4177V21.0358V20.9009H139.633ZM142.432 21.1708H139.768V29.2827H142.432V21.1708Z" fill="#89291F"/>
<path d="M139.633 33.4124H142.567H142.702V33.5474V41.9292V42.0641H142.567H139.633H139.498V41.9292V33.5474V33.4124H139.633ZM142.432 33.6823H139.768V41.7942H142.432V33.6823Z" fill="#89291F"/>
<path d="M139.768 12.9291V16.9737V17.0411H139.633H136.699H136.564V16.9737L136.533 12.1787H136.803L136.834 16.9062H139.498V12.9291H139.768Z" fill="#89291F"/>
<path d="M136.699 20.9009H139.633H139.768V21.0358V29.4177V29.5528H139.633H136.699H136.564V29.4177V21.0358V20.9009H136.699ZM139.498 21.1708H136.834V29.2827H139.498V21.1708Z" fill="#89291F"/>
<path d="M136.699 33.4124H139.633H139.768V33.5474V41.9292V42.0641H139.633H136.699H136.564V41.9292V33.5474V33.4124H136.699ZM139.498 33.6823H136.834V41.7942H139.498V33.6823Z" fill="#89291F"/>
<path d="M136.835 13.644V16.9853V17.041H136.7H133.766H133.631V16.9853V13.644H133.901V16.9295H136.565V13.644H136.835Z" fill="#89291F"/>
<path d="M128.572 14.385V16.954H133.631V14.385H133.901V16.9976V17.0411H133.766H128.437H128.302V16.9976V14.385H128.572Z" fill="#89291F"/>
<path d="M123.243 12.9292V16.9063H128.302V12.9292H128.571V16.9738V17.0412H128.436H123.108H122.973V16.9738V12.9292H123.243Z" fill="#89291F"/>
<path d="M117.913 15.3123V16.9844H122.972V15.3123H123.242V17.0128V17.0411H123.107H117.778H117.643V17.0128V15.3123H117.913Z" fill="#89291F"/>
<path d="M117.809 13.5707V16.9697V17.0412H117.674H114.741H114.606V16.9697V11.6809L114.876 11.9867V16.8982H117.54V13.5707H117.809Z" fill="#89291F"/>
<path d="M114.741 20.9009H117.674H117.809V21.0358V29.4177V29.5528H117.674H114.741H114.606V29.4177V21.0358V20.9009H114.741ZM117.54 21.1708H114.876V29.2827H117.54V21.1708Z" fill="#89291F"/>
<path d="M114.741 33.4124H117.674H117.809V33.5474V41.9292V42.0641H117.674H114.741H114.606V41.9292V33.5474V33.4124H114.741ZM117.54 33.6823H114.876V41.7942H117.54V33.6823Z" fill="#89291F"/>
<path d="M114.864 12.4L114.876 16.9303V17.0412H114.741H111.807H111.672V16.9303V10.271H111.942V16.8191H114.606L114.864 12.2371V12.4Z" fill="#89291F"/>
<path d="M111.807 20.9009H114.741H114.876V21.0358V29.4177V29.5528H114.741H111.807H111.672V29.4177V21.0358V20.9009H111.807ZM114.606 21.1708H111.942V29.2827H114.606V21.1708Z" fill="#89291F"/>
<path d="M111.807 33.4124H114.741H114.876V33.5474V41.9292V42.0641H114.741H111.807H111.672V41.9292V33.5474V33.4124H111.807ZM114.606 33.6823H111.942V41.7942H114.606V33.6823Z" fill="#89291F"/>
<path d="M111.943 8.81714V16.9063V17.0412H111.808H108.874H108.739V16.9063V8.81714H109.009V16.7713H111.673V8.81714H111.943Z" fill="#89291F"/>
<path d="M108.874 20.9009H111.808H111.943V21.0358V29.4177V29.5528H111.808H108.874H108.739V29.4177V21.0358V20.9009H108.874ZM111.673 21.1708H109.009V29.2827H111.673V21.1708Z" fill="#89291F"/>
<path d="M108.874 33.4124H111.808H111.943V33.5474V41.9292V42.0641H111.808H108.874H108.739V41.9292V33.5474V33.4124H108.874ZM111.673 33.6823H109.009V41.7942H111.673V33.6823Z" fill="#89291F"/>
<path d="M139.768 18.8363H142.432V17.0411H139.768V18.8363ZM142.567 19.1063H139.633H139.498V18.9712V16.9063V16.7712H139.633H142.567H142.702V16.9063V18.9712V19.1063H142.567Z" fill="#89291F"/>
<path d="M139.768 31.3478H142.432V29.5528H139.768V31.3478ZM142.567 31.6177H139.633H139.498V31.4828V29.4177V29.2827H139.633H142.567H142.702V29.4177V31.4828V31.6177H142.567Z" fill="#89291F"/>
<path d="M139.768 43.8593H142.432V42.0641H139.768V43.8593ZM142.567 44.1293H139.633H139.498V43.9944V41.9292V41.7942H139.633H142.567H142.702V41.9292V43.9944V44.1293H142.567Z" fill="#89291F"/>
<path d="M139.768 20.901H142.432V19.1058H139.768V20.901ZM142.567 21.1709H139.633H139.498V21.0359V18.9709V18.8359H139.633H142.567H142.702V18.9709V21.0359V21.1709H142.567Z" fill="#89291F"/>
<path d="M139.768 33.4125H142.432V31.6175H139.768V33.4125ZM142.567 33.6825H139.633H139.498V33.5475V31.4825V31.3474H139.633H142.567H142.702V31.4825V33.5475V33.6825H142.567Z" fill="#89291F"/>
<path d="M139.768 45.9241H142.432V44.1288H139.768V45.9241ZM142.567 46.1938H139.633H139.498V46.059V43.994V43.8589H139.633H142.567H142.702V43.994V46.059V46.1938H142.567Z" fill="#89291F"/>
<path d="M136.834 18.8363H139.498V17.0411H136.834V18.8363ZM139.633 19.1063H136.699H136.564V18.9712V16.9063V16.7712H136.699H139.633H139.768V16.9063V18.9712V19.1063H139.633Z" fill="#89291F"/>
<path d="M136.834 31.3478H139.498V29.5528H136.834V31.3478ZM139.633 31.6177H136.699H136.564V31.4828V29.4177V29.2827H136.699H139.633H139.768V29.4177V31.4828V31.6177H139.633Z" fill="#89291F"/>
<path d="M136.834 43.8593H139.498V42.0641H136.834V43.8593ZM139.633 44.1293H136.699H136.564V43.9944V41.9292V41.7942H136.699H139.633H139.768V41.9292V43.9944V44.1293H139.633Z" fill="#89291F"/>
<path d="M136.834 20.901H139.498V19.1058H136.834V20.901ZM139.633 21.1709H136.699H136.564V21.0359V18.9709V18.8359H136.699H139.633H139.768V18.9709V21.0359V21.1709H139.633Z" fill="#89291F"/>
<path d="M136.834 33.4125H139.498V31.6175H136.834V33.4125ZM139.633 33.6825H136.699H136.564V33.5475V31.4825V31.3474H136.699H139.633H139.768V31.4825V33.5475V33.6825H139.633Z" fill="#89291F"/>
<path d="M136.834 45.9241H139.498V44.1288H136.834V45.9241ZM139.633 46.1938H136.699H136.564V46.059V43.994V43.8589H136.699H139.633H139.768V43.994V46.059V46.1938H139.633Z" fill="#89291F"/>
<path d="M114.876 18.8363H117.54V17.0411H114.876V18.8363ZM117.674 19.1063H114.741H114.606V18.9712V16.9063V16.7712H114.741H117.674H117.809V16.9063V18.9712V19.1063H117.674Z" fill="#89291F"/>
<path d="M114.876 31.3478H117.54V29.5528H114.876V31.3478ZM117.674 31.6177H114.741H114.606V31.4828V29.4177V29.2827H114.741H117.674H117.809V29.4177V31.4828V31.6177H117.674Z" fill="#89291F"/>
<path d="M114.876 43.8593H117.54V42.0641H114.876V43.8593ZM117.674 44.1293H114.741H114.606V43.9944V41.9292V41.7942H114.741H117.674H117.809V41.9292V43.9944V44.1293H117.674Z" fill="#89291F"/>
<path d="M114.876 20.901H117.54V19.1058H114.876V20.901ZM117.674 21.1709H114.741H114.606V21.0359V18.9709V18.8359H114.741H117.674H117.809V18.9709V21.0359V21.1709H117.674Z" fill="#89291F"/>
<path d="M114.876 33.4125H117.54V31.6175H114.876V33.4125ZM117.674 33.6825H114.741H114.606V33.5475V31.4825V31.3474H114.741H117.674H117.809V31.4825V33.5475V33.6825H117.674Z" fill="#89291F"/>
<path d="M114.876 45.9241H117.54V44.1288H114.876V45.9241ZM117.674 46.1938H114.741H114.606V46.059V43.994V43.8589H114.741H117.674H117.809V43.994V46.059V46.1938H117.674Z" fill="#89291F"/>
<path d="M111.942 18.8363H114.606V17.0411H111.942V18.8363ZM114.741 19.1063H111.807H111.672V18.9712V16.9063V16.7712H111.807H114.741H114.876V16.9063V18.9712V19.1063H114.741Z" fill="#89291F"/>
<path d="M111.942 31.3478H114.606V29.5528H111.942V31.3478ZM114.741 31.6177H111.807H111.672V31.4828V29.4177V29.2827H111.807H114.741H114.876V29.4177V31.4828V31.6177H114.741Z" fill="#89291F"/>
<path d="M111.942 43.8593H114.606V42.0641H111.942V43.8593ZM114.741 44.1293H111.807H111.672V43.9944V41.9292V41.7942H111.807H114.741H114.876V41.9292V43.9944V44.1293H114.741Z" fill="#89291F"/>
<path d="M111.942 20.901H114.606V19.1058H111.942V20.901ZM114.741 21.1709H111.807H111.672V21.0359V18.9709V18.8359H111.807H114.741H114.876V18.9709V21.0359V21.1709H114.741Z" fill="#89291F"/>
<path d="M111.942 33.4125H114.606V31.6175H111.942V33.4125ZM114.741 33.6825H111.807H111.672V33.5475V31.4825V31.3474H111.807H114.741H114.876V31.4825V33.5475V33.6825H114.741Z" fill="#89291F"/>
<path d="M111.942 45.9241H114.606V44.1288H111.942V45.9241ZM114.741 46.1938H111.807H111.672V46.059V43.994V43.8589H111.807H114.741H114.876V43.994V46.059V46.1938H114.741Z" fill="#89291F"/>
<path d="M109.009 18.8363H111.673V17.0411H109.009V18.8363ZM111.808 19.1063H108.874H108.739V18.9712V16.9063V16.7712H108.874H111.808H111.943V16.9063V18.9712V19.1063H111.808Z" fill="#89291F"/>
<path d="M109.009 31.3478H111.673V29.5528H109.009V31.3478ZM111.808 31.6177H108.874H108.739V31.4828V29.4177V29.2827H108.874H111.808H111.943V29.4177V31.4828V31.6177H111.808Z" fill="#89291F"/>
<path d="M109.009 43.8593H111.673V42.0641H109.009V43.8593ZM111.808 44.1293H108.874H108.739V43.9944V41.9292V41.7942H108.874H111.808H111.943V41.9292V43.9944V44.1293H111.808Z" fill="#89291F"/>
<path d="M109.009 20.901H111.673V19.1058H109.009V20.901ZM111.808 21.1709H108.874H108.739V21.0359V18.9709V18.8359H108.874H111.808H111.943V18.9709V21.0359V21.1709H111.808Z" fill="#89291F"/>
<path d="M109.009 33.4125H111.673V31.6175H109.009V33.4125ZM111.808 33.6825H108.874H108.739V33.5475V31.4825V31.3474H108.874H111.808H111.943V31.4825V33.5475V33.6825H111.808Z" fill="#89291F"/>
<path d="M109.009 45.9241H111.673V44.1288H109.009V45.9241ZM111.808 46.1938H108.874H108.739V46.059V43.994V43.8589H108.874H111.808H111.943V43.994V46.059V46.1938H111.808Z" fill="#89291F"/>
<path d="M139.633 45.8809H142.567H142.702V46.0159V56.387V56.5219H142.567H139.633H139.498V56.387V46.0159V45.8809H139.633ZM142.432 46.1509H139.768V56.2519H142.432V46.1509Z" fill="#89291F"/>
<path d="M136.699 45.8809H139.633H139.768V46.0159V56.387V56.5219H139.633H136.699H136.564V56.387V46.0159V45.8809H136.699ZM139.498 46.1509H136.834V56.2519H139.498V46.1509Z" fill="#89291F"/>
<path d="M114.741 45.8809H117.674H117.809V46.0159V56.387V56.5219H117.674H114.741H114.606V56.387V46.0159V45.8809H114.741ZM117.54 46.1509H114.876V56.2519H117.54V46.1509Z" fill="#89291F"/>
<path d="M111.807 45.8809H114.741H114.876V46.0159V56.387V56.5219H114.741H111.807H111.672V56.387V46.0159V45.8809H111.807ZM114.606 46.1509H111.942V56.2519H114.606V46.1509Z" fill="#89291F"/>
<path d="M108.874 45.8809H111.808H111.943V46.0159V56.387V56.5219H111.808H108.874H108.739V56.387V46.0159V45.8809H108.874ZM111.673 46.1509H109.009V56.2519H111.673V46.1509Z" fill="#89291F"/>
<path d="M133.766 20.9009H136.7H136.835V21.0358V29.4177V29.5528H136.7H133.766H133.631V29.4177V21.0358V20.9009H133.766ZM136.565 21.1708H133.901V29.2827H136.565V21.1708Z" fill="#89291F"/>
<path d="M133.766 33.4124H136.7H136.835V33.5474V41.9292V42.0641H136.7H133.766H133.631V41.9292V33.5474V33.4124H133.766ZM136.565 33.6823H133.901V41.7942H136.565V33.6823Z" fill="#89291F"/>
<path d="M133.631 21.1708H128.572V29.2827H133.631V21.1708ZM128.437 20.9009H133.766H133.901V21.0358V29.4177V29.5528H133.766H128.437H128.302V29.4177V21.0358V20.9009H128.437Z" fill="#89291F"/>
<path d="M133.631 33.6823H128.572V41.7942H133.631V33.6823ZM128.437 33.4124H133.766H133.901V33.5474V41.9292V42.0641H133.766H128.437H128.302V41.9292V33.5474V33.4124H128.437Z" fill="#89291F"/>
<path d="M128.302 21.1708H123.243V29.2827H128.302V21.1708ZM123.108 20.9009H128.436H128.571V21.0358V29.4177V29.5528H128.436H123.108H122.973V29.4177V21.0358V20.9009H123.108Z" fill="#89291F"/>
<path d="M128.302 33.6823H123.243V41.7942H128.302V33.6823ZM123.108 33.4124H128.436H128.571V33.5474V41.9292V42.0641H128.436H123.108H122.973V41.9292V33.5474V33.4124H123.108Z" fill="#89291F"/>
<path d="M122.972 21.1708H117.913V29.2827H122.972V21.1708ZM117.779 20.9009H123.107H123.242V21.0358V29.4177V29.5528H123.107H117.779H117.643V29.4177V21.0358V20.9009H117.779Z" fill="#89291F"/>
<path d="M122.972 33.6823H117.913V41.7942H122.972V33.6823ZM117.779 33.4124H123.107H123.242V33.5474V41.9292V42.0641H123.107H117.779H117.643V41.9292V33.5474V33.4124H117.779Z" fill="#89291F"/>
<path d="M133.901 18.8363H136.565V17.0411H133.901V18.8363ZM136.7 19.1063H133.766H133.631V18.9712V16.9063V16.7712H133.766H136.7H136.835V16.9063V18.9712V19.1063H136.7Z" fill="#89291F"/>
<path d="M133.901 31.3478H136.565V29.5528H133.901V31.3478ZM136.7 31.6177H133.766H133.631V31.4828V29.4177V29.2827H133.766H136.7H136.835V29.4177V31.4828V31.6177H136.7Z" fill="#89291F"/>
<path d="M134.849 43.8593H136.652V42.0641H134.849V43.8593ZM136.743 44.1293H134.758H134.667V43.9944V41.9292V41.7942H134.758H136.743H136.835V41.9292V43.9944V44.1293H136.743Z" fill="#89291F"/>
<path d="M133.901 20.901H136.565V19.1058H133.901V20.901ZM136.7 21.1709H133.766H133.631V21.0359V18.9709V18.8359H133.766H136.7H136.835V18.9709V21.0359V21.1709H136.7Z" fill="#89291F"/>
<path d="M133.901 33.4125H136.565V31.6175H133.901V33.4125ZM136.7 33.6825H133.766H133.631V33.5475V31.4825V31.3474H133.766H136.7H136.835V31.4825V33.5475V33.6825H136.7Z" fill="#89291F"/>
<path d="M135.091 45.9241H136.674V44.1288H135.091V45.9241ZM136.754 46.1938H135.011H134.931V46.059V43.994V43.8589H135.011H136.754H136.835V43.994V46.059V46.1938H136.754Z" fill="#89291F"/>
<path d="M133.766 19.1063H128.437H128.302V18.9712V16.9063V16.7712H128.437H133.766H133.901V16.9063V18.9712V19.1063H133.766ZM128.572 18.8363H133.631V17.0411H128.572V18.8363Z" fill="#89291F"/>
<path d="M133.766 31.6177H128.437H128.302V31.4828V29.4177V29.2827H128.437H133.766H133.901V29.4177V31.4828V31.6177H133.766ZM128.572 31.3478H133.631V29.5528H128.572V31.3478Z" fill="#89291F"/>
<path d="M133.766 21.1709H128.437H128.302V21.0359V18.9709V18.8359H128.437H133.766H133.901V18.9709V21.0359V21.1709H133.766ZM128.572 20.901H133.631V19.1058H128.572V20.901Z" fill="#89291F"/>
<path d="M133.766 33.6825H128.437H128.302V33.5475V31.4825V31.3474H128.437H133.766H133.901V31.4825V33.5475V33.6825H133.766ZM128.572 33.4125H133.631V31.6175H128.572V33.4125Z" fill="#89291F"/>
<path d="M128.436 19.1063H123.108H122.973V18.9712V16.9063V16.7712H123.108H128.436H128.571V16.9063V18.9712V19.1063H128.436ZM123.243 18.8363H128.302V17.0411H123.243V18.8363Z" fill="#89291F"/>
<path d="M128.436 31.6177H123.108H122.973V31.4828V29.4177V29.2827H123.108H128.436H128.571V29.4177V31.4828V31.6177H128.436ZM123.243 31.3478H128.302V29.5528H123.243V31.3478Z" fill="#89291F"/>
<path d="M128.436 21.1709H123.108H122.973V21.0359V18.9709V18.8359H123.108H128.436H128.571V18.9709V21.0359V21.1709H128.436ZM123.243 20.901H128.302V19.1058H123.243V20.901Z" fill="#89291F"/>
<path d="M128.436 33.6825H123.108H122.973V33.5475V31.4825V31.3474H123.108H128.436H128.571V31.4825V33.5475V33.6825H128.436ZM123.243 33.4125H128.302V31.6175H123.243V33.4125Z" fill="#89291F"/>
<path d="M123.107 19.1063H117.779H117.643V18.9712V16.9063V16.7712H117.779H123.107H123.242V16.9063V18.9712V19.1063H123.107ZM117.913 18.8363H122.972V17.0411H117.913V18.8363Z" fill="#89291F"/>
<path d="M123.107 31.6177H117.779H117.643V31.4828V29.4177V29.2827H117.779H123.107H123.242V29.4177V31.4828V31.6177H123.107ZM117.913 31.3478H122.972V29.5528H117.913V31.3478Z" fill="#89291F"/>
<path d="M123.107 21.1709H117.779H117.643V21.0359V18.9709V18.8359H117.779H123.107H123.242V18.9709V21.0359V21.1709H123.107ZM117.913 20.901H122.972V19.1058H117.913V20.901Z" fill="#89291F"/>
<path d="M123.107 33.6825H117.779H117.643V33.5475V31.4825V31.3474H117.779H123.107H123.242V31.4825V33.5475V33.6825H123.107ZM117.913 33.4125H122.972V31.6175H117.913V33.4125Z" fill="#89291F"/>
<path d="M135.011 45.8809H136.754H136.835V46.0159V56.387V56.5219H136.754H135.011H134.931V56.387V46.0159V45.8809H135.011ZM136.674 46.1509H135.091V56.2519H136.674V46.1509Z" fill="#89291F"/>
<path fill-rule="evenodd" clip-rule="evenodd" d="M125.864 0.122803C133.833 0.122803 140.744 3.60699 144.174 8.13882V8.81071L142.696 10.2392L139.139 10.2314L137.562 8.8204V7.97383C134.741 5.56512 130.517 3.57025 125.864 3.57025C121.211 3.57025 117.097 5.59507 114.277 7.98135V8.79451L112.648 10.177H109.133L107.554 8.79451V7.94158C110.984 3.45971 117.895 0.122803 125.864 0.122803H125.864Z" fill="black"/>
<path d="M125.864 0C129.726 0 133.341 0.815108 136.437 2.17016C139.76 3.62514 142.485 5.70352 144.272 8.0649L144.297 8.09798V8.13894V8.81085V8.86265L144.259 8.89932L142.781 10.3279L142.745 10.3621L142.696 10.362L139.139 10.3541H139.092L139.057 10.3229L137.48 8.91191L137.439 8.87501V8.82064V8.03052C135.955 6.77169 134.084 5.62924 131.969 4.83297C130.093 4.12701 128.025 3.69347 125.864 3.69347C123.723 3.69347 121.697 4.12528 119.861 4.82449C117.754 5.62655 115.896 6.78092 114.4 8.03848V8.79477V8.85146L114.357 8.88852L112.727 10.271L112.693 10.3003H109.133H109.087L109.052 10.2695L107.474 8.88706L107.431 8.85001V8.79477V7.94179V7.90069L107.457 7.86735C109.236 5.54275 111.943 3.52467 115.244 2.11504C118.349 0.788829 121.982 3.63026e-05 125.864 3.63026e-05V0Z" fill="#89291F"/>
<path fill-rule="evenodd" clip-rule="evenodd" d="M112.891 5.59717L112.89 6.14927L113.442 6.14852L113.051 6.53857L113.442 6.92846L112.89 6.9279L112.891 7.48003L112.501 7.08918L112.111 7.48012L112.112 6.928L111.56 6.92871L111.95 6.53876L111.559 6.14883L112.112 6.14939L112.111 5.59726L112.501 5.98805L112.891 5.59717Z" fill="#FCFCFB"/>
<path fill-rule="evenodd" clip-rule="evenodd" d="M139.973 5.59766L139.973 6.14978L140.525 6.14901L140.134 6.53909L140.525 6.92894L139.973 6.92839L139.973 7.48051L139.583 7.08967L139.194 7.48061L139.194 6.92848L138.642 6.9292L139.033 6.53925L138.642 6.14932L139.194 6.14988L139.193 5.59775L139.583 5.98854L139.973 5.59766Z" fill="#FCFCFB"/>
<path d="M115.55 5.42769L115.372 5.52567L115.076 4.98398C114.949 5.13098 114.825 5.2372 114.705 5.30268C114.612 5.35352 114.517 5.37732 114.422 5.3723C114.327 5.36815 114.248 5.33838 114.187 5.28435C114.126 5.23033 114.066 5.14882 114.006 5.03984L113.79 4.64468L113.968 4.5467L114.176 4.92584C114.256 5.0728 114.336 5.15477 114.415 5.17174C114.493 5.18866 114.57 5.1763 114.645 5.1351C114.77 5.06639 114.887 4.96661 114.995 4.83517L114.636 4.18131L114.815 4.08329L115.55 5.42769ZM115.679 5.33336L115.573 3.69501L115.775 3.60204L116.982 4.73396L116.773 4.83058L116.417 4.4821L115.831 4.75183L115.874 5.24315L115.679 5.33336ZM115.817 4.57736L116.291 4.35894L115.968 4.0398C115.871 3.94272 115.793 3.86075 115.735 3.79529C115.757 3.89421 115.773 3.99537 115.781 4.09841L115.817 4.57736ZM117.13 4.66026L116.59 3.22613L117.127 3.02285C117.236 2.98161 117.33 2.9633 117.407 2.96742C117.484 2.97111 117.553 2.99677 117.613 3.04252C117.674 3.08834 117.716 3.14463 117.741 3.21101C117.764 3.27192 117.769 3.33557 117.756 3.40195C117.744 3.46881 117.71 3.53107 117.656 3.59015C117.752 3.58284 117.835 3.60068 117.905 3.64464C117.975 3.68813 118.026 3.75177 118.057 3.83513C118.083 3.90288 118.091 3.9702 118.085 4.03891C118.079 4.10712 118.06 4.16479 118.03 4.21197C118 4.25866 117.957 4.30262 117.9 4.34202C117.843 4.38183 117.769 4.41895 117.678 4.4533L117.13 4.66026H117.13ZM117.007 3.75728L117.317 3.64009C117.401 3.60846 117.46 3.57965 117.492 3.5549C117.535 3.52283 117.562 3.48529 117.574 3.44226C117.586 3.3997 117.583 3.35344 117.563 3.30261C117.545 3.25546 117.518 3.21699 117.481 3.19044C117.444 3.16207 117.402 3.14968 117.356 3.15243C117.308 3.15519 117.232 3.17579 117.129 3.21473L116.843 3.32278L117.007 3.75731L117.007 3.75728ZM117.257 4.41987L117.615 4.28481C117.676 4.26188 117.718 4.24311 117.741 4.22939C117.782 4.20513 117.813 4.17855 117.836 4.14878C117.858 4.11948 117.873 4.08376 117.879 4.04163C117.884 3.99953 117.879 3.95554 117.861 3.90975C117.841 3.85573 117.809 3.81449 117.767 3.78568C117.724 3.75635 117.676 3.74266 117.621 3.74492C117.567 3.74764 117.493 3.76552 117.402 3.79988L117.071 3.92576L117.257 4.41984V4.41987ZM118.238 4.20832L118.333 2.56951L118.545 2.50176L119.605 3.77196L119.385 3.84247L119.075 3.45372L118.461 3.65016L118.443 4.14283L118.238 4.20832ZM118.467 3.47479L118.965 3.31591L118.683 2.96012C118.598 2.85157 118.531 2.76093 118.481 2.68856C118.491 2.7898 118.495 2.89233 118.491 2.99537L118.467 3.47479ZM119.421 2.22838L119.619 2.18352L119.916 3.50317L120.411 3.39189L120.114 2.07225L120.312 2.02736L120.609 3.34703L121.104 3.23576L120.807 1.91609L121.005 1.87123L121.342 3.36674L119.757 3.72391L119.421 2.22841V2.22838ZM122.262 3.15286L122.084 1.63081L122.286 1.60702L122.359 2.23435L123.146 2.14186L123.072 1.51452L123.274 1.49116L123.452 3.01321L123.251 3.037L123.167 2.32085L122.381 2.41242L122.464 3.12904L122.262 3.15283V3.15286ZM123.628 2.99902L124.116 1.43162L124.338 1.41697L125.059 2.90652L124.829 2.92115L124.622 2.46967L123.979 2.51133L123.843 2.98527L123.628 2.99902H123.628ZM124.027 2.34242L124.548 2.30942L124.361 1.89506C124.305 1.76957 124.262 1.66563 124.231 1.58276C124.217 1.68443 124.195 1.78424 124.166 1.88313L124.027 2.34242ZM125.207 1.37945L125.41 1.37717L125.427 2.72976L126.223 2.72016L126.207 1.36752L126.41 1.36523L126.426 2.7174L126.565 2.716L126.573 3.32135L126.393 3.32411L126.388 2.89826L125.226 2.912L125.207 1.37943V1.37945ZM126.897 1.38998L127.081 1.40052L127.011 2.61214L127.896 1.44723L128.096 1.4587L128.008 2.98942L127.824 2.97842L127.894 1.77053L127.012 2.93174L126.809 2.91982L126.897 1.39002V1.38998ZM128.916 3.08788L129.164 1.57545L129.464 1.62489L129.646 2.75405C129.662 2.85891 129.674 2.93766 129.681 2.98986C129.707 2.9372 129.748 2.86073 129.802 2.76043L130.338 1.76771L130.607 1.81213L130.358 3.32455L130.167 3.29295L130.374 2.0273L129.725 3.22059L129.545 3.19081L129.319 1.8309L129.108 3.11941L128.916 3.0878L128.916 3.08788ZM130.898 1.97702L131.095 2.02739L131.349 3.06501L132.004 2.25957L132.198 2.30856L131.347 3.32234C131.241 3.4487 131.159 3.52887 131.104 3.56227C131.048 3.59523 130.978 3.60167 130.896 3.58014C130.845 3.56731 130.786 3.53988 130.718 3.49774L130.761 3.33015C130.806 3.37318 130.858 3.40296 130.917 3.41807C130.964 3.43043 131.01 3.42495 131.053 3.40298C131.095 3.38102 131.151 3.32101 131.22 3.2221L130.898 1.97709L130.898 1.97702ZM132.004 3.42306L132.202 3.43634C132.192 3.51144 132.207 3.5943 132.244 3.68451C132.281 3.77475 132.349 3.83652 132.449 3.86954C132.55 3.90343 132.639 3.90434 132.716 3.87091C132.791 3.83795 132.842 3.78482 132.866 3.71066C132.893 3.63098 132.883 3.55586 132.837 3.48857C132.791 3.42082 132.714 3.36952 132.608 3.33473L132.516 3.30407L132.572 3.13558C132.66 3.16442 132.729 3.18183 132.779 3.18731C132.83 3.19189 132.88 3.17953 132.929 3.14976C132.979 3.11999 133.012 3.07786 133.03 3.02473C133.051 2.96157 133.045 2.89838 133.011 2.83565C132.978 2.77245 132.919 2.7271 132.836 2.69918C132.762 2.67536 132.695 2.67264 132.631 2.69321C132.567 2.71288 132.516 2.74953 132.475 2.80405C132.436 2.85761 132.411 2.90018 132.402 2.92995L132.23 2.82601C132.378 2.5325 132.599 2.43358 132.893 2.53156C133.035 2.57781 133.134 2.65473 133.191 2.76142C133.248 2.86767 133.259 2.97343 133.224 3.07922C133.18 3.21475 133.08 3.29856 132.928 3.33062C132.995 3.37594 133.043 3.43867 133.072 3.51788C133.101 3.59799 133.101 3.68132 133.072 3.7697C133.03 3.89473 132.948 3.98355 132.823 4.03621C132.698 4.08841 132.556 4.08795 132.397 4.03531C132.121 3.94421 131.99 3.74043 132.004 3.42312L132.004 3.42306ZM133.148 4.32601L133.704 2.89828L134.735 3.30078L134.67 3.46792L133.828 3.13961L133.657 3.57829L134.445 3.88553L134.38 4.05313L133.592 3.74631L133.402 4.23215L134.278 4.57374L134.212 4.74134L133.147 4.32604L133.148 4.32601ZM135.158 3.50456L135.323 3.58606L134.785 4.67402L136.054 3.94736L136.234 4.03664L135.555 5.41031L135.39 5.32834L135.926 4.24407L134.66 4.968L134.479 4.87822L135.158 3.50456ZM135.859 5.53486L136.655 4.22573L137.601 4.80084L137.507 4.95471L136.736 4.4849L136.491 4.8874L137.213 5.32651L137.12 5.48035L136.397 5.04076L136.126 5.48679L136.929 5.97535L136.835 6.12875L135.859 5.53486H135.859Z" fill="#FCFCFB"/>
<path fill-rule="evenodd" clip-rule="evenodd" d="M134.931 43.1506H116.527V40.8528H134.931V43.1506Z" fill="#89291F"/>
<path fill-rule="evenodd" clip-rule="evenodd" d="M134.931 45.7978H116.527V43.5H134.931V45.7978Z" fill="#89291F"/>
<path fill-rule="evenodd" clip-rule="evenodd" d="M134.931 48.4585H116.527V46.1606H134.931V48.4585Z" fill="#89291F"/>
<path fill-rule="evenodd" clip-rule="evenodd" d="M134.931 51.1592H116.527V48.8613H134.931V51.1592Z" fill="#89291F"/>
<path fill-rule="evenodd" clip-rule="evenodd" d="M134.931 53.8655H116.527V51.5676H134.931V53.8655Z" fill="#89291F"/>
<path fill-rule="evenodd" clip-rule="evenodd" d="M119.499 21.3923H117.829V40.9443H119.499V21.3923Z" fill="#89291F"/>
<path fill-rule="evenodd" clip-rule="evenodd" d="M133.55 21.3923H131.88V40.3374H133.55V21.3923Z" fill="#89291F"/>
<path fill-rule="evenodd" clip-rule="evenodd" d="M117.056 40.3147H120.271L119.889 40.8914H117.442L117.056 40.3147Z" fill="white"/>
<path fill-rule="evenodd" clip-rule="evenodd" d="M119.499 40.8213H117.829V55.2377H119.499V40.8213Z" fill="black"/>
<path d="M119.766 40.9443H117.562V55.1146H119.766V40.9443ZM117.439 40.6982H119.889H120.012V40.8213V55.2377V55.3607H119.889H117.439H117.316V55.2377V40.8213V40.6982H117.439Z" fill="#89291F"/>
<path fill-rule="evenodd" clip-rule="evenodd" d="M117.122 55.8145H120.338L119.955 55.2378H117.508L117.122 55.8145Z" fill="white"/>
<path fill-rule="evenodd" clip-rule="evenodd" d="M131.107 40.3147H134.322L133.94 40.8914H131.493L131.107 40.3147Z" fill="white"/>
<path fill-rule="evenodd" clip-rule="evenodd" d="M133.55 40.8213H131.88V55.2377H133.55V40.8213Z" fill="black"/>
<path d="M133.817 40.9443H131.613V55.1146H133.817V40.9443ZM131.49 40.6982H133.94H134.063V40.8213V55.2377V55.3607H133.94H131.49H131.367V55.2377V40.8213V40.6982H131.49Z" fill="#89291F"/>
<path fill-rule="evenodd" clip-rule="evenodd" d="M131.107 55.8145H134.322L133.94 55.2378H131.493L131.107 55.8145Z" fill="white"/>
<path fill-rule="evenodd" clip-rule="evenodd" d="M125.605 43.2871C127.767 43.2871 129.519 45.114 129.519 47.3675H129.519V55.8807H121.691V47.3675C121.691 45.114 123.443 43.2871 125.605 43.2871Z" fill="white"/>
<path d="M125.605 43.1641C126.72 43.1641 127.73 43.6353 128.461 44.3971C129.164 45.1307 129.609 46.1338 129.64 47.2444H129.642V47.3674V55.8807V56.0037H129.519H121.691H121.568V55.8807V47.3674C121.568 46.208 122.019 45.1577 122.749 44.3971C123.479 43.6353 124.489 43.1641 125.605 43.1641ZM128.284 44.5671C127.598 43.8523 126.651 43.4101 125.605 43.4101C124.559 43.4101 123.611 43.8523 122.926 44.5671C122.239 45.2831 121.814 46.2732 121.814 47.3674V55.7576H129.396V47.4904H129.396V47.3674C129.396 46.2733 128.971 45.2831 128.284 44.5671H128.284Z" fill="#89291F"/>
<path fill-rule="evenodd" clip-rule="evenodd" d="M125.605 44.2166C127.277 44.2166 128.631 45.6292 128.631 47.3717H128.631V55.8807H122.578V47.3717C122.578 45.6292 123.933 44.2166 125.605 44.2166H125.605Z" fill="white"/>
<path d="M125.605 44.0938C126.475 44.0938 127.263 44.4614 127.833 45.0557C128.376 45.6218 128.722 46.3937 128.752 47.2489H128.754V47.3719V55.8808V56.0039H128.631H122.578H122.455V55.8808V47.3719C122.455 46.4679 122.807 45.6489 123.376 45.0557C123.946 44.4615 124.734 44.0938 125.605 44.0938L125.605 44.0938ZM127.656 45.2257C127.131 44.6784 126.406 44.3397 125.605 44.3397C124.804 44.3397 124.078 44.6784 123.553 45.2257C123.027 45.7743 122.701 46.5333 122.701 47.3718V55.7578H128.508V47.4948H128.508V47.3718C128.508 46.5333 128.183 45.7743 127.656 45.2257Z" fill="#89291F"/>
<path fill-rule="evenodd" clip-rule="evenodd" d="M125.605 44.8032C126.84 44.8032 127.867 45.731 128.081 46.9548H123.129C123.342 45.731 124.369 44.8032 125.605 44.8032Z" fill="white"/>
<path d="M125.605 44.6802C126.248 44.6802 126.837 44.9197 127.295 45.3178C127.76 45.7215 128.089 46.2887 128.202 46.9341L128.227 47.0778H128.081H123.129H122.983L123.008 46.9341C123.12 46.2886 123.45 45.7214 123.914 45.3176C124.372 44.9197 124.962 44.6802 125.605 44.6802H125.605ZM127.135 45.5033C126.721 45.143 126.187 44.9262 125.605 44.9262C125.023 44.9262 124.489 45.1431 124.075 45.5032C123.687 45.8401 123.403 46.303 123.279 46.8317H127.93C127.807 46.3032 127.523 45.8403 127.135 45.5033H127.135Z" fill="#89291F"/>
<path fill-rule="evenodd" clip-rule="evenodd" d="M123.159 47.3718H125.481V54.6137H123.159V47.3718ZM125.729 47.3718H128.051V54.6137H125.729V47.3718Z" fill="white"/>
<path d="M123.159 47.2488H125.481H125.604V47.3718V54.6137V54.7367H125.481H123.159H123.036V54.6137V47.3718V47.2488H123.159ZM125.358 47.4948H123.282V54.4907H125.358V47.4948ZM125.729 47.2488H128.051H128.174V47.3718V54.6137V54.7367H128.051H125.729H125.606V54.6137V47.3718V47.2488H125.729ZM127.928 47.4948H125.852V54.4907H127.928V47.4948Z" fill="#89291F"/>
<path fill-rule="evenodd" clip-rule="evenodd" d="M122.578 54.8589H128.631V55.8809H122.578V54.8589Z" fill="white"/>
<path d="M122.578 54.7358H128.631H128.754V54.8589V55.8806V56.0037H128.631H122.578H122.455V55.8806V54.8589V54.7358H122.578ZM128.508 54.9819H122.701V55.7576H128.508V54.9819Z" fill="#89291F"/>
<path fill-rule="evenodd" clip-rule="evenodd" d="M125.753 10.8706C130.103 10.8706 133.896 12.6468 135.9 15.2796C134.535 16.4207 133.612 18.603 133.612 21.1082C133.612 21.2102 133.614 21.3116 133.617 21.4124H131.82C131.82 20.4237 131.815 20.3614 131.815 19.5646C131.815 18.2149 129.101 15.0448 125.753 15.0448C122.465 15.0448 119.788 16.997 119.694 19.4318H119.694V19.4355C119.668 20.081 119.694 20.7631 119.694 21.4125H117.874C117.877 21.3117 117.878 21.2102 117.878 21.1083C117.878 18.609 116.96 16.431 115.6 15.2876C117.602 12.6505 121.399 10.8706 125.753 10.8706L125.753 10.8706Z" fill="#89291F"/>
<path fill-rule="evenodd" clip-rule="evenodd" d="M119.889 40.8213H117.439V55.2377H119.889V40.8213Z" fill="white"/>
<path fill-rule="evenodd" clip-rule="evenodd" d="M133.94 40.8213H131.49V55.2377H133.94V40.8213Z" fill="white"/>
<path d="M118.47 1.9934L118.633 1.94238C118.654 2.05697 118.64 2.15468 118.591 2.23491C118.542 2.31527 118.461 2.37311 118.349 2.40821C118.236 2.44368 118.136 2.44265 118.05 2.40517C117.964 2.36747 117.897 2.29491 117.849 2.18751L118.012 2.13652C118.043 2.19311 118.082 2.23008 118.128 2.24789C118.174 2.26639 118.228 2.26561 118.29 2.24637C118.361 2.22388 118.411 2.19269 118.438 2.15236C118.466 2.11224 118.477 2.05938 118.47 1.9934H118.47Z" fill="#FEFEFE"/>
<path d="M136.173 3.41934L136.326 3.49586C136.262 3.59313 136.184 3.65382 136.093 3.67718C136.002 3.70118 135.904 3.68669 135.798 3.63396C135.692 3.58074 135.621 3.51082 135.586 3.42421C135.55 3.3371 135.552 3.23858 135.592 3.12793L135.745 3.20448C135.728 3.26678 135.73 3.32022 135.751 3.36495C135.771 3.41036 135.81 3.44722 135.868 3.47612C135.935 3.50989 135.993 3.52181 136.04 3.51181C136.088 3.50233 136.133 3.47188 136.173 3.41934H136.173Z" fill="#FEFEFE"/>
<path d="M137.517 4.17858L137.67 4.25513C137.606 4.35241 137.528 4.4131 137.437 4.43645C137.346 4.46046 137.248 4.44595 137.142 4.39323C137.036 4.34001 136.965 4.2701 136.93 4.18348C136.894 4.09637 136.896 3.99786 136.936 3.88721L137.089 3.96376C137.072 4.02605 137.074 4.07948 137.095 4.12421C137.115 4.16963 137.154 4.20649 137.212 4.2354C137.279 4.26916 137.337 4.28109 137.384 4.27108C137.432 4.26157 137.477 4.23115 137.517 4.17858H137.517Z" fill="#FEFEFE"/>
<path d="M10.1125 77.6321H9.02547V73.593C8.05016 74.0339 7.19618 74.2556 6.46082 74.2556C5.9008 74.2556 5.40171 74.0971 4.96761 73.7798C4.53122 73.4625 4.23727 73.0564 4.08343 72.5573C3.92683 72.0577 3.84991 71.3906 3.84991 70.5572V67.6101H4.9374V70.4335C4.9374 71.4138 5.07749 72.1044 5.35954 72.5055C5.64436 72.907 6.06197 73.1076 6.61741 73.1076C7.3757 73.1076 8.17608 72.9002 9.02547 72.4848V67.6101H10.1125V77.6321V77.6321ZM11.7248 80.4275L11.6153 79.2722C11.8392 79.3446 12.0306 79.3821 12.1891 79.3821C12.4038 79.3821 12.5787 79.3377 12.7189 79.2516C12.859 79.1651 12.9735 79.0323 13.0641 78.8477C13.0971 78.7846 13.2276 78.3834 13.4611 77.6462L11.1978 70.373H12.2848L13.5284 74.5751C13.685 75.1003 13.8274 75.6603 13.9602 76.2579C14.0747 75.6928 14.2098 75.1425 14.3687 74.6035L15.6402 70.373H16.6531L14.3897 77.7557C14.0934 78.7122 13.8599 79.3519 13.6896 79.6738C13.5192 79.9934 13.3256 80.2242 13.1085 80.3666C12.8915 80.5067 12.6465 80.579 12.3736 80.579C12.1822 80.579 11.9651 80.5277 11.7247 80.4275L11.7248 80.4275ZM17.5139 70.3731H19.8382C20.3675 70.3731 20.7714 70.4221 21.0511 70.5223C21.3314 70.6226 21.5832 70.8282 21.8048 71.1405C22.0242 71.4532 22.1363 71.8406 22.1363 72.3003C22.1363 72.9931 21.8982 73.5092 21.4248 73.8521C22.0759 74.1438 22.4024 74.7272 22.4024 75.6022C22.4024 76.1622 22.2366 76.6403 21.9028 77.0373C21.5695 77.4338 21.0021 77.6321 20.2022 77.6321H17.5139V70.3731H17.5139ZM18.5195 73.4272H19.6001C20.0268 73.4272 20.3236 73.4016 20.4843 73.3457C20.6455 73.2922 20.7924 73.18 20.9184 73.0142C21.0466 72.8489 21.1098 72.6434 21.1098 72.4029C21.1098 72.0206 20.9976 71.7545 20.7714 71.6099C20.5475 71.4629 20.167 71.3905 19.6326 71.3905H18.5195V73.4272H18.5195ZM18.5195 76.6192H19.852C20.4216 76.6192 20.8158 76.5331 21.0352 76.3582C21.2545 76.1806 21.3639 75.9099 21.3639 75.5413C21.3639 75.1494 21.2471 74.8668 21.0187 74.6965C20.7879 74.5239 20.3653 74.4401 19.7494 74.4401H18.5195V76.6193V76.6192ZM27.4727 76.736C27.1366 77.0886 26.7868 77.3519 26.4204 77.5295C26.0564 77.7067 25.6782 77.7955 25.2862 77.7955C24.6653 77.7955 24.1708 77.6087 23.8022 77.2355C23.4336 76.8619 23.2491 76.3582 23.2491 75.7258C23.2491 75.3055 23.3356 74.9346 23.5082 74.6104C23.6809 74.2862 23.919 74.0339 24.2198 73.8521C24.5211 73.6699 24.9758 73.5348 25.5871 73.4483C26.4063 73.3292 27.0084 73.1896 27.3907 73.0238L27.3981 72.7111C27.3981 72.2138 27.3092 71.864 27.132 71.6634C26.8825 71.3718 26.4974 71.227 25.9767 71.227C25.5078 71.227 25.1557 71.3227 24.9245 71.5164C24.6914 71.7101 24.5211 72.0741 24.4112 72.6085L23.4194 72.4427C23.5618 71.6634 23.8466 71.0965 24.2784 70.7417C24.7074 70.3868 25.326 70.2073 26.126 70.2073C26.7515 70.2073 27.2414 70.3263 27.5963 70.5599C27.953 70.7952 28.1774 71.0846 28.2708 71.4322C28.3637 71.7779 28.4105 72.2839 28.4105 72.9492V74.5894C28.4105 75.7373 28.4315 76.4631 28.4759 76.7593C28.518 77.0579 28.6041 77.3496 28.7328 77.6321H27.6778C27.573 77.3825 27.5052 77.0835 27.4727 76.736ZM27.3907 73.9872C27.0221 74.1718 26.474 74.3256 25.7437 74.4538C25.321 74.5262 25.0248 74.6104 24.8544 74.7038C24.6864 74.7973 24.5559 74.9277 24.4625 75.1004C24.3691 75.2707 24.3224 75.4667 24.3224 75.6906C24.3224 76.0358 24.43 76.3138 24.6448 76.5212C24.8568 76.7291 25.153 76.8317 25.5312 76.8317C25.893 76.8317 26.2195 76.7383 26.5134 76.5519C26.8074 76.3651 27.0268 76.1155 27.1737 75.8028C27.3184 75.4924 27.3907 75.0372 27.3907 74.4401V73.9872L27.3907 73.9872ZM30.03 70.3731H31.0355V76.6123H33.3383V70.3731H34.3489V76.6123H36.6471V70.3731H37.6508V77.6321H30.03V70.3731ZM43.0851 74.9722L44.0764 75.1306C43.9624 75.9965 43.6776 76.6568 43.2178 77.112C42.7604 77.5689 42.21 77.7956 41.5681 77.7956C40.7887 77.7956 40.1472 77.476 39.6431 76.8363C39.1394 76.1948 38.8871 75.2497 38.8871 73.9946C38.8871 72.7322 39.1417 71.7871 39.6504 71.1548C40.1587 70.5247 40.8121 70.2074 41.6079 70.2074C42.2238 70.2074 42.7421 70.3988 43.1643 70.7816C43.5865 71.1662 43.8548 71.7404 43.9738 72.5056L42.9962 72.6901C42.9005 72.1979 42.7348 71.8292 42.4967 71.5866C42.2613 71.3416 41.9765 71.2203 41.6427 71.2203C41.1459 71.2203 40.7352 71.4396 40.4087 71.8806C40.084 72.3193 39.921 73.0166 39.921 73.9759C39.921 74.9627 40.0772 75.6793 40.3899 76.1226C40.7003 76.5635 41.1015 76.7851 41.5891 76.7851C41.9719 76.7851 42.2984 76.6382 42.569 76.3442C42.8401 76.0502 43.0127 75.5928 43.0851 74.9723V74.9722ZM44.9377 70.3731H45.9432V73.5092C46.2674 73.5092 46.4941 73.4346 46.6223 73.2803C46.7528 73.1287 46.9442 72.6923 47.1942 71.9716C47.3902 71.3929 47.5509 71.0124 47.6768 70.8255C47.8004 70.6415 47.9429 70.5201 48.0995 70.4619C48.2579 70.4011 48.5308 70.3731 48.9232 70.3731H49.0748V71.3906L48.7735 71.3832C48.5592 71.3832 48.4072 71.4231 48.3165 71.5C48.2231 71.5769 48.1462 71.7239 48.083 71.9387C47.8545 72.6713 47.6746 73.1429 47.5418 73.3527C47.4108 73.5628 47.2011 73.7469 46.914 73.9058C47.3458 74.0482 47.7725 74.5405 48.1929 75.383L49.2987 77.6322H48.1929L47.1123 75.383C46.893 74.9278 46.7015 74.6293 46.5335 74.4869C46.3682 74.3468 46.1722 74.2767 45.9433 74.2767V77.6322H44.9377V70.3732L44.9377 70.3731ZM49.9613 70.3731H50.9668V75.91L53.7696 70.3731H54.8566V77.6321H53.8511V72.13L51.0488 77.6321H49.9613V70.3731H49.9613ZM56.3805 70.3731H57.386V75.91L60.1888 70.3731H61.2758V77.6321H60.2703V72.13L57.468 77.6321H56.3805V70.3731H56.3805ZM59.757 67.6244H60.4475C60.3894 68.2123 60.2122 68.6532 59.9154 68.9495C59.6192 69.2463 59.2437 69.3955 58.7863 69.3955C58.3311 69.3955 57.9557 69.2463 57.6617 68.9495C57.3678 68.6533 57.1924 68.2123 57.1319 67.6244H57.8224C57.9277 68.2402 58.2405 68.5461 58.7606 68.5461C59.0523 68.5461 59.2762 68.4738 59.4374 68.3291C59.5958 68.1821 59.7035 67.9485 59.757 67.6244ZM65.9564 70.3731H66.962V73.3948H69.7648V70.3731H70.7703V77.6321H69.7648V74.4122H66.962V77.6321H65.9564V70.3731ZM76.1556 76.736C75.8195 77.0886 75.4697 77.3519 75.1033 77.5295C74.7393 77.7067 74.3611 77.7956 73.9692 77.7956C73.3482 77.7956 72.8537 77.6088 72.4851 77.2356C72.1165 76.8619 71.932 76.3582 71.932 75.7259C71.932 75.3055 72.0185 74.9346 72.1911 74.6104C72.3637 74.2863 72.6019 74.0339 72.9027 73.8522C73.204 73.6699 73.6587 73.5349 74.27 73.4483C75.0891 73.3293 75.6913 73.1896 76.0736 73.0238L76.0809 72.7111C76.0809 72.2138 75.9921 71.864 75.8149 71.6635C75.5654 71.3718 75.1803 71.2271 74.6596 71.2271C74.1907 71.2271 73.8386 71.3228 73.6074 71.5164C73.3743 71.7101 73.204 72.0742 73.0941 72.6085L72.1023 72.4428C72.2447 71.6634 72.5295 71.0965 72.9613 70.7417C73.3903 70.3868 74.0089 70.2073 74.8089 70.2073C75.4344 70.2073 75.9243 70.3263 76.2792 70.5599C76.6359 70.7953 76.8603 71.0847 76.9537 71.4322C77.0466 71.7779 77.0933 72.2839 77.0933 72.9492V74.5894C77.0933 75.7373 77.1144 76.4631 77.1588 76.7594C77.2009 77.0579 77.287 77.3496 77.4157 77.6321H76.3607C76.2559 77.3826 76.1881 77.0836 76.1556 76.736ZM76.0736 73.9873C75.705 74.1718 75.1569 74.3257 74.4266 74.4539C74.0039 74.5262 73.7077 74.6105 73.5374 74.7039C73.3693 74.7973 73.2388 74.9278 73.1454 75.1004C73.052 75.2707 73.0053 75.4667 73.0053 75.6906C73.0053 76.0359 73.1129 76.3138 73.3277 76.5213C73.5396 76.7291 73.8359 76.8317 74.2141 76.8317C74.5759 76.8317 74.9024 76.7383 75.1963 76.5519C75.4903 76.3651 75.7096 76.1155 75.8566 75.8028C76.0013 75.4924 76.0737 75.0372 76.0737 74.4401V73.9872L76.0736 73.9873ZM78.6918 70.3731H79.6974V76.6193H82.4928V70.3731H83.5052V76.6193H84.1541V80.4134H83.3189V77.6321H78.6918V70.3731H78.6918ZM85.253 70.3731H86.2586V75.91L89.0614 70.3731H90.1484V77.6321H89.1429V72.13L86.3406 77.6321H85.2531V70.3731H85.253ZM91.2757 74.0015C91.2757 72.7482 91.5394 71.8036 92.0665 71.1662C92.5917 70.5269 93.2589 70.2074 94.0661 70.2074C94.8574 70.2074 95.5222 70.5269 96.0543 71.1662C96.5887 71.8036 96.8547 72.7226 96.8547 73.9268C96.8547 75.2309 96.5932 76.2016 96.0685 76.8385C95.5433 77.4782 94.8761 77.7955 94.0661 77.7955C93.2684 77.7955 92.6031 77.4759 92.0738 76.8363C91.5417 76.1947 91.2757 75.2496 91.2757 74.0014L91.2757 74.0015ZM92.3092 74.0015C92.3092 74.942 92.4795 75.6393 92.8202 76.0968C93.1632 76.5566 93.5881 76.785 94.0922 76.785C94.5657 76.785 94.9741 76.5543 95.3125 76.0899C95.6532 75.6279 95.8235 74.9324 95.8235 74.0015C95.8235 73.0683 95.6509 72.3727 95.3102 71.913C94.9668 71.4556 94.5446 71.2271 94.0382 71.2271C93.5602 71.2271 93.1517 71.4578 92.8133 71.9176C92.4772 72.3773 92.3092 73.0729 92.3092 74.0015ZM98.0562 70.3731H99.0618V73.3948H101.865V70.3731H102.87V77.6321H101.865V74.4122H99.0618V77.6321H98.0562V70.3731ZM108.255 76.736C107.919 77.0886 107.569 77.3519 107.203 77.5296C106.839 77.7068 106.461 77.7956 106.069 77.7956C105.448 77.7956 104.953 77.6088 104.585 77.2356C104.216 76.8619 104.032 76.3583 104.032 75.7259C104.032 75.3055 104.118 74.9347 104.291 74.6105C104.464 74.2863 104.702 74.034 105.002 73.8522C105.304 73.67 105.758 73.5349 106.37 73.4483C107.189 73.3293 107.791 73.1896 108.173 73.0239L108.181 72.7111C108.181 72.2138 108.092 71.864 107.915 71.6635C107.665 71.3718 107.28 71.2271 106.759 71.2271C106.291 71.2271 105.938 71.3228 105.707 71.5165C105.474 71.7102 105.304 72.0742 105.194 72.6085L104.202 72.4428C104.344 71.6635 104.629 71.0965 105.061 70.7417C105.49 70.3868 106.109 70.2074 106.909 70.2074C107.534 70.2074 108.024 70.3264 108.379 70.5599C108.736 70.7953 108.96 71.0847 109.053 71.4322C109.146 71.778 109.193 72.2839 109.193 72.9492V74.5894C109.193 75.7373 109.214 76.4631 109.259 76.7594C109.301 77.0579 109.387 77.3496 109.515 77.6321H108.46C108.356 77.3826 108.288 77.0836 108.255 76.736ZM108.173 73.9873C107.805 74.1718 107.257 74.3257 106.526 74.4539C106.104 74.5263 105.807 74.6105 105.637 74.7039C105.469 74.7973 105.339 74.9278 105.245 75.1004C105.152 75.2708 105.105 75.4667 105.105 75.6907C105.105 76.0359 105.213 76.3139 105.427 76.5213C105.639 76.7292 105.936 76.8317 106.314 76.8317C106.676 76.8317 107.002 76.7383 107.296 76.552C107.59 76.3652 107.809 76.1156 107.956 75.8029C108.101 75.4924 108.173 75.0373 108.173 74.4402V73.9873L108.173 73.9873ZM111.263 70.3732H115.953V77.6322H114.947V71.3906H112.276V75.0071C112.276 75.8331 112.255 76.3862 112.21 76.6683C112.166 76.9508 112.042 77.1912 111.835 77.3872C111.627 77.5832 111.333 77.6812 110.948 77.6812C110.712 77.6812 110.446 77.6647 110.15 77.6322V76.601C110.624 76.596 110.903 76.5799 110.99 76.552C111.076 76.5236 111.144 76.4563 111.191 76.3441C111.24 76.232 111.263 75.8354 111.263 75.1564V70.3732L111.263 70.3732ZM117.449 70.3732H118.455V73.208H119.74C120.659 73.208 121.324 73.425 121.728 73.8591C122.134 74.2909 122.337 74.8156 122.337 75.432C122.337 76.0153 122.155 76.5263 121.786 76.9696C121.42 77.4106 120.816 77.6322 119.971 77.6322H117.448V70.3732H117.449ZM118.455 76.6193H119.514C120.284 76.6193 120.774 76.4979 120.983 76.2507C121.194 76.0057 121.298 75.7351 121.298 75.4388C121.298 75.0515 121.177 74.7529 120.937 74.5427C120.695 74.3326 120.265 74.2277 119.651 74.2277H118.455V76.6193V76.6193ZM123.45 70.3732H124.456V73.3948H127.258V70.3732H128.264V77.6322H127.258V74.4122H124.456V77.6322H123.45V70.3732ZM129.766 70.3732H130.772V73.208H132.058C132.977 73.208 133.642 73.425 134.046 73.8591C134.452 74.2909 134.655 74.8156 134.655 75.432C134.655 76.0153 134.473 76.5263 134.104 76.9696C133.738 77.4106 133.134 77.6322 132.289 77.6322H129.766V70.3732H129.766ZM130.772 76.6193H131.831C132.602 76.6193 133.092 76.4979 133.301 76.2507C133.511 76.0057 133.616 75.7351 133.616 75.4388C133.616 75.0515 133.495 74.7529 133.255 74.5427C133.012 74.3326 132.583 74.2277 131.969 74.2277H130.772V76.6193V76.6193ZM135.658 77.6321V70.3731H136.664V77.6321H135.658ZM138.325 70.3731H139.331V75.91L142.134 70.3731H143.221V77.6321H142.215V72.13L139.413 77.6321H138.325V70.3731H138.325ZM141.702 67.6244H142.392C142.334 68.2123 142.157 68.6533 141.86 68.9496C141.564 69.2463 141.189 69.3955 140.731 69.3955C140.276 69.3955 139.9 69.2463 139.607 68.9496C139.313 68.6533 139.137 68.2123 139.077 67.6244H139.767C139.873 68.2403 140.185 68.5461 140.705 68.5461C140.997 68.5461 141.221 68.4738 141.382 68.3291C141.541 68.1821 141.648 67.9486 141.702 67.6244ZM147.929 70.3731H149.502L151.068 76.1829L152.797 70.3731H154.253V77.6321H153.24V71.7871L151.483 77.6321H150.582L148.914 71.5069V77.6321H147.929V70.3731H147.929ZM155.75 80.4276L155.641 79.2723C155.865 79.3446 156.056 79.3822 156.215 79.3822C156.43 79.3822 156.604 79.3378 156.745 79.2517C156.885 79.1651 156.999 79.0324 157.09 78.8478C157.123 78.7846 157.253 78.3835 157.487 77.6463L155.223 70.3731H156.31L157.554 74.5752C157.711 75.1004 157.853 75.6604 157.986 76.2579C158.1 75.6929 158.235 75.1425 158.394 74.6036L159.666 70.3731H160.679L158.415 77.7557C158.119 78.7123 157.886 79.352 157.715 79.6738C157.545 79.9934 157.351 80.2242 157.134 80.3667C156.917 80.5068 156.672 80.5791 156.399 80.5791C156.208 80.5791 155.991 80.5278 155.75 80.4275L155.75 80.4276ZM162.86 74.3513V73.3879C163.287 73.3829 163.579 73.3623 163.731 73.3247C163.884 73.2899 164.029 73.18 164.165 73.0005C164.303 72.8206 164.37 72.5921 164.37 72.3146C164.37 71.9762 164.282 71.7102 164.099 71.5142C163.92 71.3182 163.686 71.2203 163.4 71.2203C162.83 71.2203 162.431 71.6282 162.202 72.4428L161.246 72.2514C161.552 70.8887 162.275 70.2074 163.413 70.2074C164.041 70.2074 164.538 70.4199 164.9 70.8398C165.261 71.2619 165.443 71.7684 165.443 72.3614C165.443 72.9305 165.208 73.4017 164.739 73.7776C165.336 74.1741 165.635 74.7809 165.635 75.6023C165.635 76.253 165.441 76.7828 165.054 77.1889C164.667 77.5923 164.125 77.7957 163.428 77.7957C162.074 77.7957 161.285 77.0607 161.062 75.5881L162.004 75.3432C162.093 75.8029 162.268 76.1624 162.531 76.4188C162.795 76.6756 163.096 76.8038 163.434 76.8038C163.78 76.8038 164.064 76.6871 164.288 76.454C164.512 76.2182 164.622 75.9196 164.622 75.5533C164.622 75.2617 164.552 75.0139 164.412 74.8111C164.27 74.6105 164.12 74.4801 163.964 74.426C163.805 74.3724 163.549 74.3445 163.187 74.3445L162.86 74.3514V74.3513ZM170.852 75.2941L171.89 75.4503C171.718 76.225 171.403 76.8107 170.95 77.2049C170.497 77.5996 169.935 77.7956 169.266 77.7956C168.421 77.7956 167.74 77.476 167.217 76.8363C166.696 76.1948 166.435 75.2708 166.435 74.0642C166.435 72.8114 166.699 71.8549 167.224 71.1969C167.751 70.5366 168.419 70.2074 169.224 70.2074C169.993 70.2074 170.638 70.5316 171.151 71.1781C171.666 71.827 171.923 72.7625 171.923 73.9873L171.919 74.3165H167.473C167.516 75.133 167.704 75.747 168.04 76.1623C168.379 76.5776 168.789 76.785 169.273 76.785C170.029 76.785 170.556 76.2882 170.852 75.2941ZM167.537 73.3037H170.857C170.812 72.6759 170.677 72.207 170.455 71.8965C170.131 71.4465 169.718 71.2202 169.217 71.2202C168.766 71.2202 168.381 71.4089 168.061 71.7848C167.742 72.1603 167.567 72.6667 167.537 73.3037H167.537ZM173.181 70.3732H174.186V75.91L176.989 70.3732H178.076V77.6322H177.071V72.1301L174.268 77.6322H173.181V70.3732H173.181ZM176.557 67.6244H177.248C177.19 68.2124 177.012 68.6533 176.716 68.9496C176.419 69.2463 176.044 69.3956 175.586 69.3956C175.131 69.3956 174.756 69.2463 174.462 68.9496C174.168 68.6533 173.993 68.2124 173.932 67.6244H174.623C174.728 68.2403 175.041 68.5461 175.561 68.5461C175.853 68.5461 176.076 68.4738 176.238 68.3291C176.396 68.1822 176.504 67.9486 176.557 67.6244Z" fill="#89291F"/>
</svg>
