<svg width="267" height="267" viewBox="0 0 267 267" fill="none" xmlns="http://www.w3.org/2000/svg">
<path d="M143.585 11.1581L132.547 0.120178L121.509 11.1581L132.547 22.1961L143.585 11.1581Z" fill="#ED2024"/>
<path d="M266.339 133.912L255.301 122.874L244.263 133.912L255.301 144.95L266.339 133.912Z" fill="#ED2024"/>
<path d="M22.2951 132.448L11.2572 121.41L0.219235 132.448L11.2572 143.486L22.2951 132.448Z" fill="#ED2024"/>
<path d="M145.049 255.202L134.011 244.164L122.973 255.202L134.011 266.24L145.049 255.202Z" fill="#ED2024"/>
<path d="M172.407 227.391L152.53 207.515L145.459 214.586L158.265 227.391L147.637 238.019L140.629 231.012L138.558 228.94V179.188L154.079 163.667L157.614 167.202L153.393 171.424L157.635 175.667L161.857 171.445L165.958 175.546L149.433 192.071L165.23 207.868L169.083 204.014L173.093 208.024L169.239 211.877L169.288 211.927L169.133 212.083L173.142 216.092L177.151 212.083L173.17 208.102L176.388 204.884L163.575 192.071L173.029 182.617L178.12 187.709L173.899 191.93L178.141 196.173L182.363 191.951L187.397 196.986L194.469 189.915L189.434 184.88L193.655 180.659L189.413 176.416L185.191 180.638L180.1 175.546L189.512 166.135L202.324 178.948L205.499 175.773L209.48 179.754L213.49 175.744L209.48 171.735L209.367 171.848L209.318 171.799L205.422 175.695L201.412 171.686L205.308 167.789L189.512 151.993L173.029 168.475L168.928 164.374L173.149 160.153L168.907 155.91L164.685 160.131L161.15 156.596L178.827 138.918L228.834 138.918L237.786 147.87L227.158 158.498L214.352 145.692L207.281 152.763L227.158 172.64L251.928 147.87L237.977 133.919L252.055 119.84L227.285 95.0705L207.409 114.947L214.48 122.018L227.285 109.213L237.913 119.84L230.906 126.848L228.834 128.92L179.153 128.92L161.687 111.454L165.124 108.018L169.345 112.239L173.588 107.996L169.366 103.775L173.467 99.6738L189.993 116.199L205.789 100.402L201.936 96.5484L205.945 92.5391L209.799 96.3928L209.848 96.3433L210.004 96.4989L214.013 92.4896L210.004 88.4803L206.023 92.4613L202.805 89.244L189.993 102.057L180.539 92.6027L185.63 87.5115L189.851 91.733L194.094 87.4903L189.872 83.2689L194.907 78.2343L187.836 71.1632L182.801 76.1978L178.58 71.9764L174.337 76.2191L178.559 80.4405L173.467 85.5316L164.056 76.1201L176.869 63.3073L173.694 60.1324L177.675 56.1514L173.665 52.1421L169.656 56.1514L169.769 56.2645L169.72 56.314L173.616 60.2102L169.607 64.2194L165.711 60.3233L149.914 76.1201L166.396 92.6027L162.295 96.7039L158.074 92.4825L153.831 96.7251L158.053 100.947L154.616 104.383L137.455 87.2216L137.447 37.2787L146.399 28.3267L157.027 38.9545L144.222 51.7602L151.293 58.8313L171.169 38.9545L146.399 14.1846L132.448 28.1358L118.37 14.0573L93.5998 38.8272L113.477 58.704L120.548 51.6329L107.742 38.8272L118.37 28.1994L125.377 35.2069L127.449 37.2787L127.449 87.0307L109.432 105.048L105.932 101.548L110.153 97.3262L105.91 93.0835L101.689 97.305L97.5878 93.2038L114.113 76.6787L98.3162 60.8819L94.4624 64.7356L90.4531 60.7263L94.3069 56.8726L94.2574 56.8231L94.4129 56.6675L90.4036 52.6583L86.3943 56.6676L90.3753 60.6486L87.158 63.8659L99.9708 76.6787L90.5168 86.1327L85.4256 81.0415L89.647 76.8201L85.4044 72.5775L81.183 76.7989L76.1484 71.7643L69.0773 78.8353L74.1119 83.8699L69.8905 88.0914L74.1331 92.334L78.3545 88.1126L83.4457 93.2038L74.0341 102.615L61.2213 89.8026L58.0464 92.9775L54.0654 88.9965L50.0561 93.0058L54.0654 97.0151L54.1786 96.9019L54.2281 96.9514L58.1242 93.0553L62.1335 97.0646L58.2373 100.961L74.0341 116.757L90.5168 100.275L94.618 104.376L90.3966 108.597L94.6392 112.84L98.8606 108.619L102.361 112.119L87.1863 127.293L37.1797 127.293L28.2277 118.341L38.8555 107.714L51.6612 120.519L58.7323 113.448L38.8555 93.5715L14.0856 118.341L28.0368 132.293L13.9583 146.371L38.7283 171.141L58.605 151.264L51.534 144.193L38.7283 156.999L28.1004 146.371L35.1079 139.364L37.1797 137.292L84.2589 137.292L103.061 156.094L99.4617 159.693L95.2402 155.472L90.9976 159.714L95.219 163.936L91.1178 168.037L74.5998 151.519L58.803 167.316L62.6568 171.169L58.6475 175.179L54.7937 171.325L54.7442 171.374L54.5887 171.219L50.5794 175.228L54.5887 179.237L58.5697 175.256L61.787 178.474L74.5998 165.661L84.0538 175.115L78.9626 180.206L74.7412 175.985L70.4986 180.227L74.72 184.449L69.6854 189.483L76.7565 196.554L81.7911 191.52L86.0125 195.741L90.2551 191.499L86.0337 187.277L91.1249 182.186L100.536 191.598L87.7237 204.41L90.8986 207.585L86.9176 211.566L90.9269 215.576L94.9362 211.566L94.823 211.453L94.8725 211.404L90.9764 207.508L94.9857 203.498L98.8818 207.394L114.679 191.598L98.1889 175.108L102.29 171.007L106.512 175.228L110.754 170.986L106.533 166.764L110.132 163.165L128.559 181.592V228.94L119.607 237.892L108.979 227.264L121.785 214.458L114.714 207.387L94.8372 227.264L119.607 252.034L133.558 238.083L147.637 252.161L172.407 227.391ZM132.356 171.247L94.8655 133.756L132.356 96.2655L169.847 133.756L132.356 171.247Z" fill="#ED2024"/>
<path d="M121.241 133.841L124.677 137.278L114.375 147.58L118.539 151.745L128.842 141.443L132.271 144.872L135.708 141.435L146.018 151.745L150.182 147.58L139.873 137.271L143.309 133.834L139.88 130.405L150.19 120.095L146.025 115.93L135.715 126.24L132.279 122.803L128.842 126.24L118.532 115.93L114.367 120.095L124.677 130.405L121.241 133.841Z" fill="#ED2024"/>
</svg>
